<?xml version="1.0" encoding="utf-8"?>
<!-- Generator: Adobe Illustrator 17.0.0, SVG Export Plug-In . SVG Version: 6.00 Build 0)  -->
<!DOCTYPE svg PUBLIC "-//W3C//DTD SVG 1.1//EN" "http://www.w3.org/Graphics/SVG/1.1/DTD/svg11.dtd">
<svg version="1.1" id="圖層_1" xmlns="http://www.w3.org/2000/svg" xmlns:xlink="http://www.w3.org/1999/xlink" x="0px" y="0px"
	 width="1918.463px" height="117.27px" viewBox="0 0 1918.463 117.27" enable-background="new 0 0 1918.463 117.27"
	 xml:space="preserve">
<g>
	<g>
		<defs>
			<rect id="SVGID_1_" x="0" y="0" width="1918.463" height="117.27"/>
		</defs>
		<clipPath id="SVGID_2_">
			<use xlink:href="#SVGID_1_"  overflow="visible"/>
		</clipPath>
	</g>
	<g>
		<defs>
			<rect id="SVGID_3_" x="0" y="0" width="1918.463" height="117.27"/>
		</defs>
		<clipPath id="SVGID_4_">
			<use xlink:href="#SVGID_3_"  overflow="visible"/>
		</clipPath>
		<g clip-path="url(#SVGID_4_)">
			<g>
				<path fill="none" stroke="#FFFFFF" stroke-width="2" stroke-miterlimit="10" d="M207.514-59.436v174.318h-48.216V15.978
					l-32.391,98.904H85.12L52.729,15.978v98.904H4.018V-59.436h59.59l43.023,113.245l41.787-113.245H207.514z"/>
				<path fill="none" stroke="#FFFFFF" stroke-width="2" stroke-miterlimit="10" d="M332.625-60.179v175.061h-48.71V-60.179H332.625
					z"/>
				<path fill="none" stroke="#FFFFFF" stroke-width="2" stroke-miterlimit="10" d="M532.164,90.898
					c-4.945,7.912-12.201,14.179-21.759,18.792c-9.562,4.617-21.017,6.923-34.369,6.923c-20.275,0-36.965-4.86-50.07-14.588
					c-13.105-9.725-20.237-23.571-21.388-41.54h51.677c0.495,6.101,2.388,10.632,5.687,13.6c3.295,2.967,7.333,4.45,12.116,4.45
					c4.285,0,7.623-1.07,10.014-3.214c2.388-2.141,3.585-5.192,3.585-9.149c0-5.273-2.392-9.353-7.171-12.239
					c-4.783-2.882-12.363-6.058-22.748-9.52c-11.046-3.79-20.152-7.499-27.322-11.126c-7.171-3.624-13.352-9.064-18.545-16.319
					c-5.192-7.252-7.789-16.566-7.789-27.94c0-10.879,2.801-20.233,8.407-28.064c5.602-7.828,13.267-13.762,22.996-17.803
					c9.724-4.038,20.77-6.058,33.133-6.058c20.109,0,36.139,4.741,48.092,14.218c11.95,9.48,18.502,22.79,19.657,39.933h-52.172
					c-0.661-5.44-2.349-9.478-5.069-12.116c-2.72-2.635-6.305-3.956-10.756-3.956c-3.794,0-6.761,0.989-8.901,2.967
					c-2.144,1.978-3.214,4.945-3.214,8.901c0,4.945,2.349,8.82,7.047,11.621c4.698,2.805,12.073,5.934,22.13,9.396
					c11.042,3.956,20.19,7.831,27.446,11.621c7.252,3.794,13.515,9.315,18.792,16.566c5.273,7.256,7.912,16.651,7.912,28.187
					C539.581,74.169,537.109,82.986,532.164,90.898z"/>
				<path fill="none" stroke="#FFFFFF" stroke-width="2" stroke-miterlimit="10" d="M733.434,90.898
					c-4.945,7.912-12.201,14.179-21.759,18.792c-9.562,4.617-21.017,6.923-34.369,6.923c-20.275,0-36.965-4.86-50.07-14.588
					c-13.105-9.725-20.237-23.571-21.388-41.54h51.677c0.495,6.101,2.388,10.632,5.687,13.6c3.295,2.967,7.333,4.45,12.116,4.45
					c4.285,0,7.623-1.07,10.014-3.214c2.388-2.141,3.585-5.192,3.585-9.149c0-5.273-2.392-9.353-7.171-12.239
					c-4.783-2.882-12.363-6.058-22.748-9.52c-11.046-3.79-20.152-7.499-27.322-11.126c-7.171-3.624-13.352-9.064-18.545-16.319
					c-5.192-7.252-7.789-16.566-7.789-27.94c0-10.879,2.801-20.233,8.407-28.064c5.602-7.828,13.267-13.762,22.996-17.803
					c9.724-4.038,20.77-6.058,33.133-6.058c20.109,0,36.139,4.741,48.092,14.218c11.95,9.48,18.502,22.79,19.657,39.933h-52.172
					c-0.661-5.44-2.349-9.478-5.069-12.116c-2.72-2.635-6.305-3.956-10.756-3.956c-3.794,0-6.761,0.989-8.901,2.967
					c-2.144,1.978-3.214,4.945-3.214,8.901c0,4.945,2.349,8.82,7.047,11.621c4.698,2.805,12.073,5.934,22.13,9.396
					c11.042,3.956,20.19,7.831,27.446,11.621c7.252,3.794,13.515,9.315,18.792,16.566c5.273,7.256,7.912,16.651,7.912,28.187
					C740.851,74.169,738.378,82.986,733.434,90.898z"/>
				<path fill="none" stroke="#FFFFFF" stroke-width="2" stroke-miterlimit="10" d="M860.278-60.179v175.061h-48.711V-60.179
					H860.278z"/>
				<path fill="none" stroke="#FFFFFF" stroke-width="2" stroke-miterlimit="10" d="M1066.121-51.401
					c13.599,7.666,24.313,18.34,32.144,32.021c7.827,13.684,11.745,29.095,11.745,46.237c0,17.146-3.956,32.557-11.869,46.238
					c-7.912,13.685-18.668,24.355-32.267,32.021c-13.6,7.665-28.559,11.497-44.878,11.497c-16.319,0-31.321-3.832-45.001-11.497
					c-13.684-7.666-24.479-18.336-32.391-32.021c-7.912-13.681-11.868-29.092-11.868-46.238c0-17.142,3.956-32.553,11.868-46.237
					c7.912-13.681,18.707-24.355,32.391-32.021c13.68-7.665,28.682-11.498,45.001-11.498
					C1037.477-62.898,1052.521-59.066,1066.121-51.401z M991.819-5.905c-7.09,7.997-10.633,18.916-10.633,32.762
					c0,13.518,3.543,24.317,10.633,32.391c7.085,8.079,16.813,12.116,29.177,12.116c12.196,0,21.84-4.037,28.93-12.116
					c7.085-8.074,10.632-18.873,10.632-32.391c0-13.846-3.504-24.765-10.509-32.762c-7.008-7.994-16.69-11.992-29.053-11.992
					C1008.633-17.897,998.904-13.898,991.819-5.905z"/>
				<path fill="none" stroke="#FFFFFF" stroke-width="2" stroke-miterlimit="10" d="M1342.926,114.882h-48.711l-64.287-97.668
					v97.668h-48.711V-59.931h48.711l64.287,98.904v-98.904h48.711V114.882z"/>
			</g>
		</g>
	</g>
	<g>
		<defs>
			<rect id="SVGID_5_" x="0" y="0" width="1918.463" height="117.27"/>
		</defs>
		<clipPath id="SVGID_6_">
			<use xlink:href="#SVGID_5_"  overflow="visible"/>
		</clipPath>
	</g>
</g>
</svg>
