<?xml version="1.0" encoding="utf-8"?>
<!-- Generator: Adobe Illustrator 17.0.0, SVG Export Plug-In . SVG Version: 6.00 Build 0)  -->
<!DOCTYPE svg PUBLIC "-//W3C//DTD SVG 1.1//EN" "http://www.w3.org/Graphics/SVG/1.1/DTD/svg11.dtd">
<svg version="1.1" id="圖層_1" xmlns="http://www.w3.org/2000/svg" xmlns:xlink="http://www.w3.org/1999/xlink" x="0px" y="0px"
	 width="1927px" height="143px" viewBox="0 0 1927 143" enable-background="new 0 0 1927 143" xml:space="preserve">
<g>
	<defs>
		<polygon id="SVGID_1_" points="1927,143 5,143 0,0 1922,0 		"/>
	</defs>
	<clipPath id="SVGID_2_">
		<use xlink:href="#SVGID_1_"  overflow="visible"/>
	</clipPath>
	<g clip-path="url(#SVGID_2_)">
		<g>
			<path fill="none" stroke="#FFFFFF" stroke-width="2" stroke-miterlimit="10" d="M86.583,0.266l31.987,101.959L150.357,0.266
				h41.783l-48.38,141.543H93.18L44.8,0.266H86.583z"/>
			<path fill="none" stroke="#FFFFFF" stroke-width="2" stroke-miterlimit="10" d="M353.075,118.219h-50.18l-7.797,23.59h-41.383
				L305.494,0.865h45.382l51.579,140.943h-41.583L353.075,118.219z M343.279,88.63l-15.194-45.982L312.691,88.63H343.279z"/>
			<path fill="none" stroke="#FFFFFF" stroke-width="2" stroke-miterlimit="10" d="M513.41,112.021h44.182v29.788h-83.566V0.266
				h39.384V112.021z"/>
			<path fill="none" stroke="#FFFFFF" stroke-width="2" stroke-miterlimit="10" d="M670.744,0.266v80.768
				c0,7.997,1.765,14.163,5.298,18.493c3.53,4.333,8.896,6.498,16.094,6.498c7.197,0,12.626-2.199,16.293-6.598
				c3.664-4.398,5.498-10.527,5.498-18.393V0.266h39.184v80.768c0,13.329-2.699,24.659-8.097,33.986
				c-5.398,9.331-12.764,16.362-22.091,21.092c-9.331,4.732-19.861,7.097-31.587,7.097c-11.729,0-22.091-2.33-31.087-6.997
				c-8.997-4.664-16.028-11.661-21.092-20.991c-5.066-9.328-7.597-20.723-7.597-34.187V0.266H670.744z"/>
			<path fill="none" stroke="#FFFFFF" stroke-width="2" stroke-miterlimit="10" d="M873.261,31.653v23.391h45.782v29.788h-45.782
				v25.589h51.779v31.387h-91.164V0.266h91.164v31.388H873.261z"/>
			<path fill="none" stroke="#FFFFFF" stroke-width="2" stroke-miterlimit="10" d="M1034.795,0.266l31.986,101.959l31.787-101.959
				h41.783l-48.381,141.543h-50.578L993.011,0.266H1034.795z"/>
			<path fill="none" stroke="#FFFFFF" stroke-width="2" stroke-miterlimit="10" d="M1301.286,118.219h-50.181l-7.797,23.59h-41.383
				l51.779-140.943h45.382l51.579,140.943h-41.584L1301.286,118.219z M1291.489,88.63l-15.193-45.982l-15.394,45.982H1291.489z"/>
			<path fill="none" stroke="#FFFFFF" stroke-width="2" stroke-miterlimit="10" d="M1461.621,112.021h44.183v29.788h-83.566V0.266
				h39.384V112.021z"/>
			<path fill="none" stroke="#FFFFFF" stroke-width="2" stroke-miterlimit="10" d="M1618.956,0.266v80.768
				c0,7.997,1.765,14.163,5.298,18.493c3.529,4.333,8.896,6.498,16.093,6.498s12.626-2.199,16.294-6.598
				c3.664-4.398,5.498-10.527,5.498-18.393V0.266h39.184v80.768c0,13.329-2.699,24.659-8.097,33.986
				c-5.397,9.331-12.764,16.362-22.091,21.092c-9.331,4.732-19.861,7.097-31.588,7.097c-11.729,0-22.091-2.33-31.087-6.997
				c-8.996-4.664-16.028-11.661-21.092-20.991c-5.066-9.328-7.597-20.723-7.597-34.187V0.266H1618.956z"/>
			<path fill="none" stroke="#FFFFFF" stroke-width="2" stroke-miterlimit="10" d="M1821.472,31.653v23.391h45.781v29.788h-45.781
				v25.589h51.779v31.387h-91.163V0.266h91.163v31.388H1821.472z"/>
		</g>
	</g>
</g>
</svg>
