<?xml version="1.0" encoding="utf-8"?>
<!-- Generator: Adobe Illustrator 17.0.0, SVG Export Plug-In . SVG Version: 6.00 Build 0)  -->
<!DOCTYPE svg PUBLIC "-//W3C//DTD SVG 1.1//EN" "http://www.w3.org/Graphics/SVG/1.1/DTD/svg11.dtd">
<svg version="1.1" id="圖層_1" xmlns="http://www.w3.org/2000/svg" xmlns:xlink="http://www.w3.org/1999/xlink" x="0px" y="0px"
	 width="1922px" height="143.333px" viewBox="0 0 1922 143.333" enable-background="new 0 0 1922 143.333" xml:space="preserve">
<g>
	<defs>
		<rect id="SVGID_1_" y="0" width="1922" height="143.333"/>
	</defs>
	<clipPath id="SVGID_2_">
		<use xlink:href="#SVGID_1_"  overflow="visible"/>
	</clipPath>
	<g clip-path="url(#SVGID_2_)">
		<g>
			<path fill="none" stroke="#FFFFFF" stroke-width="2" stroke-miterlimit="10" d="M81.583,1.331L113.57,103.29L145.357,1.331
				h41.783l-48.38,141.542H88.18L39.8,1.331H81.583z"/>
			<path fill="none" stroke="#FFFFFF" stroke-width="2" stroke-miterlimit="10" d="M278.103,1.331v141.542h-39.384V1.331H278.103z"
				/>
			<path fill="none" stroke="#FFFFFF" stroke-width="2" stroke-miterlimit="10" d="M439.438,123.481
				c-3.999,6.397-9.865,11.464-17.593,15.194c-7.731,3.732-16.993,5.598-27.789,5.598c-16.393,0-29.888-3.93-40.483-11.796
				c-10.596-7.862-16.362-19.058-17.293-33.586h41.783c0.399,4.932,1.93,8.596,4.598,10.995c2.665,2.399,5.929,3.599,9.796,3.599
				c3.464,0,6.163-0.865,8.097-2.599c1.931-1.73,2.899-4.199,2.899-7.397c0-4.264-1.934-7.563-5.798-9.896
				c-3.867-2.33-9.996-4.898-18.393-7.697c-8.931-3.064-16.293-6.063-22.091-8.996c-5.798-2.931-10.796-7.329-14.994-13.195
				c-4.198-5.863-6.297-13.395-6.297-22.591c0-8.796,2.265-16.359,6.797-22.69c4.529-6.329,10.727-11.127,18.592-14.395
				c7.862-3.264,16.793-4.898,26.789-4.898c16.259,0,29.22,3.833,38.884,11.496c9.662,7.666,14.96,18.427,15.894,32.287h-42.183
				c-0.534-4.398-1.899-7.663-4.099-9.796c-2.199-2.13-5.098-3.199-8.696-3.199c-3.067,0-5.467,0.8-7.197,2.399
				c-1.733,1.599-2.599,3.998-2.599,7.197c0,3.999,1.899,7.131,5.698,9.396c3.798,2.268,9.761,4.798,17.893,7.597
				c8.928,3.199,16.325,6.332,22.191,9.396c5.863,3.068,10.927,7.531,15.194,13.395c4.264,5.867,6.397,13.464,6.397,22.791
				C445.435,109.955,443.436,117.084,439.438,123.481z"/>
			<path fill="none" stroke="#FFFFFF" stroke-width="2" stroke-miterlimit="10" d="M541.996,1.331v141.542h-39.384V1.331H541.996z"
				/>
			<path fill="none" stroke="#FFFFFF" stroke-width="2" stroke-miterlimit="10" d="M708.429,8.428
				c10.996,6.197,19.658,14.828,25.989,25.89c6.329,11.064,9.497,23.524,9.497,37.385c0,13.863-3.199,26.324-9.596,37.385
				c-6.397,11.064-15.094,19.692-26.09,25.89s-23.09,9.297-36.285,9.297s-25.324-3.1-36.385-9.297
				c-11.064-6.197-19.792-14.825-26.189-25.89c-6.397-11.061-9.596-23.521-9.596-37.385c0-13.86,3.199-26.32,9.596-37.385
				c6.397-11.062,15.125-19.692,26.189-25.89c11.061-6.197,23.19-9.296,36.385-9.296C685.27-0.869,697.434,2.23,708.429,8.428z
				 M648.354,45.213c-5.732,6.466-8.597,15.294-8.597,26.489c0,10.93,2.864,19.661,8.597,26.189
				c5.729,6.532,13.594,9.796,23.59,9.796c9.862,0,17.659-3.264,23.391-9.796c5.729-6.528,8.596-15.26,8.596-26.189
				c0-11.195-2.833-20.023-8.496-26.489c-5.667-6.463-13.495-9.696-23.491-9.696S654.082,38.75,648.354,45.213z"/>
			<path fill="none" stroke="#FFFFFF" stroke-width="2" stroke-miterlimit="10" d="M932.236,142.873h-39.384l-51.979-78.968v78.968
				h-39.384V1.53h39.384l51.979,79.968V1.53h39.384V142.873z"/>
			<path fill="none" stroke="#FFFFFF" stroke-width="2" stroke-miterlimit="10" d="M1025.796,1.331l31.987,101.959L1089.57,1.331
				h41.783l-48.381,141.542h-50.579L984.013,1.331H1025.796z"/>
			<path fill="none" stroke="#FFFFFF" stroke-width="2" stroke-miterlimit="10" d="M1222.315,1.331v141.542h-39.384V1.331H1222.315z
				"/>
			<path fill="none" stroke="#FFFFFF" stroke-width="2" stroke-miterlimit="10" d="M1383.65,123.481
				c-3.998,6.397-9.864,11.464-17.593,15.194c-7.731,3.732-16.993,5.598-27.789,5.598c-16.394,0-29.888-3.93-40.483-11.796
				c-10.596-7.862-16.362-19.058-17.293-33.586h41.783c0.399,4.932,1.931,8.596,4.598,10.995c2.665,2.399,5.929,3.599,9.796,3.599
				c3.465,0,6.164-0.865,8.098-2.599c1.93-1.73,2.898-4.199,2.898-7.397c0-4.264-1.934-7.563-5.798-9.896
				c-3.867-2.33-9.996-4.898-18.393-7.697c-8.931-3.064-16.293-6.063-22.091-8.996c-5.798-2.931-10.796-7.329-14.994-13.195
				c-4.198-5.863-6.298-13.395-6.298-22.591c0-8.796,2.265-16.359,6.798-22.69c4.529-6.329,10.727-11.127,18.593-14.395
				c7.862-3.264,16.793-4.898,26.789-4.898c16.259,0,29.219,3.833,38.884,11.496c9.662,7.666,14.96,18.427,15.894,32.287h-42.183
				c-0.534-4.398-1.899-7.663-4.099-9.796c-2.199-2.13-5.098-3.199-8.696-3.199c-3.067,0-5.467,0.8-7.197,2.399
				c-1.733,1.599-2.599,3.998-2.599,7.197c0,3.999,1.899,7.131,5.697,9.396c3.799,2.268,9.762,4.798,17.893,7.597
				c8.928,3.199,16.325,6.332,22.191,9.396c5.863,3.068,10.927,7.531,15.194,13.395c4.264,5.867,6.397,13.464,6.397,22.791
				C1389.648,109.955,1387.648,117.084,1383.65,123.481z"/>
			<path fill="none" stroke="#FFFFFF" stroke-width="2" stroke-miterlimit="10" d="M1486.209,1.331v141.542h-39.384V1.331H1486.209z
				"/>
			<path fill="none" stroke="#FFFFFF" stroke-width="2" stroke-miterlimit="10" d="M1652.642,8.428
				c10.996,6.197,19.658,14.828,25.99,25.89c6.328,11.064,9.496,23.524,9.496,37.385c0,13.863-3.199,26.324-9.597,37.385
				c-6.397,11.064-15.094,19.692-26.089,25.89c-10.996,6.197-23.091,9.297-36.286,9.297c-13.194,0-25.324-3.1-36.385-9.297
				c-11.064-6.197-19.792-14.825-26.189-25.89c-6.397-11.061-9.597-23.521-9.597-37.385c0-13.86,3.199-26.32,9.597-37.385
				c6.397-11.062,15.125-19.692,26.189-25.89c11.061-6.197,23.19-9.296,36.385-9.296C1629.482-0.869,1641.646,2.23,1652.642,8.428z
				 M1592.566,45.213c-5.732,6.466-8.597,15.294-8.597,26.489c0,10.93,2.864,19.661,8.597,26.189
				c5.729,6.532,13.595,9.796,23.59,9.796c9.862,0,17.659-3.264,23.391-9.796c5.729-6.528,8.597-15.26,8.597-26.189
				c0-11.195-2.833-20.023-8.496-26.489c-5.667-6.463-13.495-9.696-23.491-9.696C1606.161,35.517,1598.295,38.75,1592.566,45.213z"
				/>
			<path fill="none" stroke="#FFFFFF" stroke-width="2" stroke-miterlimit="10" d="M1876.449,142.873h-39.384l-51.979-78.968v78.968
				h-39.384V1.53h39.384l51.979,79.968V1.53h39.384V142.873z"/>
		</g>
	</g>
</g>
</svg>
