<?xml version="1.0" encoding="utf-8"?>
<!-- Generator: Adobe Illustrator 17.0.0, SVG Export Plug-In . SVG Version: 6.00 Build 0)  -->
<!DOCTYPE svg PUBLIC "-//W3C//DTD SVG 1.1//EN" "http://www.w3.org/Graphics/SVG/1.1/DTD/svg11.dtd">
<svg version="1.1" id="圖層_1" xmlns="http://www.w3.org/2000/svg" xmlns:xlink="http://www.w3.org/1999/xlink" x="0px" y="0px"
	 width="207.916px" height="1298.429px" viewBox="0 0 207.916 1298.429" enable-background="new 0 0 207.916 1298.429"
	 xml:space="preserve">
<g>
	<defs>
		<rect id="SVGID_1_" x="0" y="0" width="207.916" height="1298.429"/>
	</defs>
	<clipPath id="SVGID_2_">
		<use xlink:href="#SVGID_1_"  overflow="visible"/>
	</clipPath>
	<g clip-path="url(#SVGID_2_)">
		<g>
			<path fill="none" stroke="#FFFFFF" stroke-miterlimit="10" d="M211.295,184.597c-5.362,11.438-12.96,20.76-22.8,27.959
				c-9.839,7.2-21.239,12.079-34.198,14.64v-49.678c6.72-2.723,11.958-6.96,15.72-12.72c3.757-5.76,5.64-12.4,5.64-19.919
				c0-10.402-3.881-18.802-11.64-25.199c-7.763-6.401-18.119-9.6-31.079-9.6c-12.959,0-23.361,3.198-31.198,9.6
				c-7.841,6.397-11.76,14.797-11.76,25.199c0,7.519,1.92,14.159,5.76,19.919s9.119,9.997,15.839,12.72v49.678
				c-19.84-3.84-35.638-12.922-47.398-27.239c-11.759-14.32-17.639-32.439-17.639-54.357c0-16.8,3.637-31.48,10.919-44.038
				c7.279-12.563,17.478-22.24,30.599-29.039c13.117-6.803,28.079-10.199,44.878-10.199c16.8,0,31.758,3.396,44.879,10.199
				c13.116,6.799,23.316,16.477,30.599,29.039c7.278,12.558,10.919,27.238,10.919,44.038
				C219.334,160.156,216.653,173.157,211.295,184.597z"/>
			<path fill="none" stroke="#FFFFFF" stroke-miterlimit="10" d="M209.135,369.148c-7.439,13.199-17.801,23.598-31.079,31.198
				c-13.282,7.598-28.24,11.4-44.878,11.4c-16.642,0-31.6-3.84-44.878-11.52c-13.282-7.68-23.64-18.12-31.079-31.319
				c-7.44-13.199-11.16-27.719-11.16-43.559c0-15.839,3.72-30.399,11.16-43.678c7.439-13.282,17.797-23.759,31.079-31.438
				c13.278-7.68,28.236-11.52,44.878-11.52c16.638,0,31.596,3.84,44.878,11.52c13.278,7.68,23.64,18.156,31.079,31.438
				c7.439,13.278,11.159,27.839,11.159,43.678C220.294,341.346,216.574,355.949,209.135,369.148z M164.977,297.031
				c-7.763-6.881-18.359-10.319-31.799-10.319c-13.121,0-23.602,3.438-31.438,10.319c-7.841,6.877-11.76,16.319-11.76,28.318
				c0,11.839,3.919,21.198,11.76,28.079c7.837,6.878,18.317,10.32,31.438,10.32c13.439,0,24.036-3.401,31.799-10.2
				c7.759-6.802,11.64-16.199,11.64-28.199C176.616,313.35,172.735,303.908,164.977,297.031z"/>
			<path fill="none" stroke="#FFFFFF" stroke-miterlimit="10" d="M47.741,585.016v-47.277l94.796-62.398H47.741v-47.277h169.673
				v47.277l-95.996,62.398h95.996v47.277H47.741z"/>
			<path fill="none" stroke="#FFFFFF" stroke-miterlimit="10" d="M217.654,734.288h-37.679v-45.839H47.741v-47.039h132.234v-45.358
				h37.679V734.288z"/>
			<path fill="none" stroke="#FFFFFF" stroke-miterlimit="10" d="M76.06,852.361v-60.237l-28.319-9.36v-49.678l169.193,62.157
				v54.479L47.741,911.639v-49.918L76.06,852.361z M111.578,840.602l55.198-18.239l-55.198-18.479V840.602z"/>
			<path fill="none" stroke="#FFFFFF" stroke-miterlimit="10" d="M211.295,1038.233c-5.362,11.438-12.96,20.76-22.8,27.959
				c-9.839,7.2-21.239,12.079-34.198,14.64v-49.678c6.72-2.723,11.958-6.96,15.72-12.72c3.757-5.76,5.64-12.4,5.64-19.919
				c0-10.402-3.881-18.802-11.64-25.199c-7.763-6.401-18.119-9.6-31.079-9.6c-12.959,0-23.361,3.198-31.198,9.6
				c-7.841,6.397-11.76,14.797-11.76,25.199c0,7.519,1.92,14.159,5.76,19.919c3.84,5.76,9.119,9.997,15.839,12.72v49.678
				c-19.84-3.84-35.638-12.922-47.398-27.239c-11.759-14.32-17.639-32.439-17.639-54.357c0-16.8,3.637-31.48,10.919-44.038
				c7.279-12.563,17.478-22.24,30.599-29.039c13.117-6.803,28.079-10.199,44.878-10.199c16.8,0,31.758,3.396,44.879,10.199
				c13.116,6.799,23.316,16.477,30.599,29.039c7.278,12.558,10.919,27.238,10.919,44.038
				C219.334,1013.792,216.653,1026.793,211.295,1038.233z"/>
			<path fill="none" stroke="#FFFFFF" stroke-miterlimit="10" d="M217.654,1225.064h-37.679v-45.839H47.741v-47.038h132.234v-45.358
				h37.679V1225.064z"/>
		</g>
	</g>
</g>
</svg>
