<?xml version="1.0" encoding="utf-8"?>
<!-- Generator: Adobe Illustrator 17.0.0, SVG Export Plug-In . SVG Version: 6.00 Build 0)  -->
<!DOCTYPE svg PUBLIC "-//W3C//DTD SVG 1.1//EN" "http://www.w3.org/Graphics/SVG/1.1/DTD/svg11.dtd">
<svg version="1.1" id="圖層_1" xmlns="http://www.w3.org/2000/svg" xmlns:xlink="http://www.w3.org/1999/xlink" x="0px" y="0px"
	 width="75.946px" height="93.698px" viewBox="0 0 75.946 93.698" enable-background="new 0 0 75.946 93.698" xml:space="preserve">
<g>
	<g>
		<g>
			<defs>
				<path id="SVGID_20_" d="M23.061,39.796c-0.013-0.015-0.026-0.031-0.039-0.046c-0.001,0-0.004-0.001-0.004-0.001
					C23.032,39.764,23.047,39.78,23.061,39.796"/>
			</defs>
			<clipPath id="SVGID_2_">
				<use xlink:href="#SVGID_20_"  overflow="visible"/>
			</clipPath>
			
				<linearGradient id="SVGID_3_" gradientUnits="userSpaceOnUse" x1="122986.0625" y1="-43662.1211" x2="122986.4609" y2="-43662.1211" gradientTransform="matrix(0.0495 -0.0232 -0.0232 -0.0495 -7074.1738 730.3555)">
				<stop  offset="0" style="stop-color:#61C0B7"/>
				<stop  offset="0.0939" style="stop-color:#5DB9B9"/>
				<stop  offset="0.2706" style="stop-color:#55A4BC"/>
				<stop  offset="0.5095" style="stop-color:#4B80B9"/>
				<stop  offset="0.6301" style="stop-color:#476BB3"/>
				<stop  offset="0.7069" style="stop-color:#546FB4"/>
				<stop  offset="0.9975" style="stop-color:#7A7AB9"/>
				<stop  offset="1" style="stop-color:#7A7AB9"/>
			</linearGradient>
			<polygon clip-path="url(#SVGID_2_)" fill="url(#SVGID_3_)" points="23,39.757 23.053,39.731 23.079,39.787 23.026,39.812 			"/>
		</g>
		<g>
			<defs>
				<path id="SVGID_19_" d="M10.577,5.774c13.182-0.196,19.241,6.444,21.046,13.085c1.83,6.731-0.711,13.462-4.633,13.073
					c-7.397-0.733-9.594-10.964-9.594-10.964c-0.26,1.928-0.283,3.921-0.044,5.946c1.519,12.891,13.107,22.141,25.885,20.66
					c3.208-0.372,6.186-1.386,8.824-2.899c5.169-5.794,7.928-13.726,6.942-22.094c-0.715-6.067-3.292-11.459-7.085-15.665
					c2.899,4.584,2.275,7.689,2.275,7.689C48.426,4.977,39.207-0.001,29.243,0C23.092,0.001,16.655,1.899,10.577,5.774"/>
			</defs>
			<clipPath id="SVGID_4_">
				<use xlink:href="#SVGID_19_"  overflow="visible"/>
			</clipPath>
			
				<linearGradient id="SVGID_5_" gradientUnits="userSpaceOnUse" x1="-8140.0728" y1="1364.8969" x2="-8139.6729" y2="1364.8969" gradientTransform="matrix(-26.0568 -189.8425 -189.8425 26.0568 47050.4375 -1580842.75)">
				<stop  offset="0" style="stop-color:#E84486"/>
				<stop  offset="0.0456" style="stop-color:#E84486"/>
				<stop  offset="0.4475" style="stop-color:#ED807A"/>
				<stop  offset="1" style="stop-color:#F5C235"/>
			</linearGradient>
			<polygon clip-path="url(#SVGID_4_)" fill="url(#SVGID_5_)" points="11.491,55.71 3.968,0.906 59.075,-6.657 66.597,48.147 			"/>
		</g>
		<g>
			<defs>
				<path id="SVGID_18_" d="M0.574,18.215c3.491-1.324,6.269,0.239,7.785,2.88c3.469,6.129-3.728,9.592,1.512,21.714
					c2.07,2.859,4.607,5.334,7.481,7.324c5.034,2.948,11.013,4.347,17.227,3.626c7.014-0.813,13.11-4.184,17.48-9.086
					c-2.638,1.514-5.615,2.527-8.824,2.899c-6.617,0.767-12.915-1.344-17.66-5.348c-0.888-0.748-1.721-1.562-2.492-2.437
					c-6.727-4.593-5.404-11.041-8.262-17.135c-1.864-3.854-4.923-6.341-8.567-6.342C4.478,16.311,2.561,16.902,0.574,18.215"/>
			</defs>
			<clipPath id="SVGID_6_">
				<use xlink:href="#SVGID_18_"  overflow="visible"/>
			</clipPath>
			
				<linearGradient id="SVGID_7_" gradientUnits="userSpaceOnUse" x1="-8096.1821" y1="1426.485" x2="-8095.7817" y2="1426.485" gradientTransform="matrix(147.0349 57.6972 57.6972 -147.0349 1108108.75 676892.25)">
				<stop  offset="0" style="stop-color:#E43637"/>
				<stop  offset="0.0065" style="stop-color:#E43637"/>
				<stop  offset="0.2031" style="stop-color:#D43F53"/>
				<stop  offset="0.4695" style="stop-color:#BF4774"/>
				<stop  offset="0.6966" style="stop-color:#AE4C8A"/>
				<stop  offset="0.8723" style="stop-color:#A24D96"/>
				<stop  offset="0.9755" style="stop-color:#9E4E9A"/>
				<stop  offset="1" style="stop-color:#9E4E9A"/>
			</linearGradient>
			<polygon clip-path="url(#SVGID_6_)" fill="url(#SVGID_7_)" points="7.444,-1.197 65.04,21.404 45.19,71.987 -12.405,49.387 			
				"/>
		</g>
		<path fill="#1A1E2D" d="M59.348,35.035c-0.793,12.38-11.951,21.742-24.922,20.911c-12.971-0.831-22.842-11.541-22.049-23.921
			c0.793-12.38,11.951-21.742,24.922-20.911C50.27,11.946,60.141,22.655,59.348,35.035"/>
		<g>
			<defs>
				<path id="SVGID_17_" d="M34.926,43.302c0-2.529,2.2-4.579,4.913-4.579c2.714,0,4.914,2.05,4.914,4.579
					c0,2.529-2.2,4.579-4.914,4.579C37.125,47.881,34.926,45.831,34.926,43.302 M35.614,13.081
					c-6.478,0.385-11.48,3.69-12.674,4.733c-0.472,0.39-0.946,0.811-1.415,1.267c-0.018,0.017-0.037,0.036-0.055,0.053
					c-0.162,0.159-0.325,0.322-0.486,0.49c-0.076,0.079-0.152,0.16-0.228,0.24c-0.114,0.122-0.227,0.245-0.34,0.371
					c-0.082,0.092-0.164,0.185-0.245,0.279c-0.102,0.118-0.204,0.239-0.305,0.361c-0.078,0.094-0.156,0.189-0.233,0.285
					c-0.105,0.13-0.209,0.263-0.311,0.398c-0.067,0.088-0.133,0.175-0.199,0.263c-0.11,0.149-0.219,0.301-0.326,0.455
					c-0.054,0.077-0.108,0.154-0.161,0.232c-0.113,0.167-0.225,0.336-0.335,0.509c-0.044,0.068-0.087,0.137-0.13,0.206
					c-0.112,0.179-0.221,0.362-0.329,0.548c-0.038,0.065-0.076,0.13-0.113,0.195c-0.106,0.188-0.211,0.379-0.313,0.573
					c-0.034,0.066-0.069,0.132-0.102,0.198c-0.1,0.194-0.198,0.393-0.293,0.594c-0.031,0.064-0.06,0.128-0.09,0.193
					c-0.088,0.191-0.175,0.384-0.258,0.58c-0.007,0.017-0.013,0.032-0.019,0.048c-0.229,0.544-0.433,1.1-0.615,1.664
					c1.795-1.796,4.352-2.921,7.194-2.921c5.428,0,9.828,4.101,9.828,9.159c0,5.058-4.4,9.159-9.828,9.159
					c-2.875,0-5.461-1.151-7.259-2.985c2.492,8.627,9.944,15.742,19.418,16.626c0.013,0.001,0.026,0.001,0.039,0.002
					C48.486,56.947,59.1,47.113,59.1,34.968c0-4.713-1.599-9.078-4.318-12.65c7.021,9.384,0.172,20.636,0.172,20.636
					s3.023-5.928,0.82-12.834c-0.773-2.425-2.188-5.471-4.658-7.795c-3.702-3.484-7.243-4.847-10.551-5.492
					c-4.595-0.896-9-0.018-12.262,1.064c0,0,13.308-8.15,24.239,1.949c0.471,0.435,0.903,0.878,1.303,1.326
					c-4.068-4.662-10.167-8.125-17.02-8.125C36.423,13.045,36.02,13.057,35.614,13.081"/>
			</defs>
			<clipPath id="SVGID_8_">
				<use xlink:href="#SVGID_17_"  overflow="visible"/>
			</clipPath>
			<g clip-path="url(#SVGID_8_)">
				<g>
					<defs>
						<rect id="SVGID_9_" x="15.973" y="9.746" width="45.829" height="47.201"/>
					</defs>
					<clipPath id="SVGID_11_">
						<use xlink:href="#SVGID_9_"  overflow="visible"/>
					</clipPath>
					<g clip-path="url(#SVGID_11_)">
						<defs>
							<rect id="SVGID_12_" x="15.973" y="9.746" width="45.829" height="47.201"/>
						</defs>
						<clipPath id="SVGID_13_">
							<use xlink:href="#SVGID_12_"  overflow="visible"/>
						</clipPath>
						<g transform="matrix(1 0 0 1 -9.536743e-007 0)" clip-path="url(#SVGID_13_)">
							
								<image overflow="visible" width="96" height="99" xlink:href="266542C9.jpg"  transform="matrix(0.48 0 0 0.48 15.9731 9.7458)">
							</image>
						</g>
					</g>
				</g>
			</g>
		</g>
		<g opacity="0.61">
			<g>
				<defs>
					<rect id="SVGID_10_" x="29.578" y="17.779" width="26.39" height="34.454"/>
				</defs>
				<clipPath id="SVGID_14_">
					<use xlink:href="#SVGID_10_"  overflow="visible"/>
				</clipPath>
				<g clip-path="url(#SVGID_14_)">
					<defs>
						<path id="SVGID_16_" d="M40.076,17.781c-3.985-0.07-7.647,1.398-10.499,3.882c1.329-0.453,2.744-0.701,4.212-0.707
							c7.501-0.027,13.741,6.354,14.007,14.343c0.283,8.468-6.076,15.428-13.959,15.428c-0.232,0-0.463-0.006-0.692-0.018
							c2.03,0.979,4.283,1.524,6.656,1.524c9.004,0,16.289-7.845,16.163-17.471C55.846,25.501,48.766,17.934,40.076,17.781"/>
					</defs>
					<clipPath id="SVGID_15_">
						<use xlink:href="#SVGID_16_"  overflow="visible"/>
					</clipPath>
					
						<linearGradient id="SVGID_21_" gradientUnits="userSpaceOnUse" x1="-8024.936" y1="1416.4673" x2="-8024.5361" y2="1416.4673" gradientTransform="matrix(65.926 0 0 -65.926 529081.3125 93416.9531)">
						<stop  offset="0" style="stop-color:#5E4C9D"/>
						<stop  offset="0.532" style="stop-color:#5D4D9D"/>
						<stop  offset="0.7253" style="stop-color:#5851A0"/>
						<stop  offset="0.863" style="stop-color:#4D58A5"/>
						<stop  offset="0.9556" style="stop-color:#3E5FAB"/>
						<stop  offset="1" style="stop-color:#3E5FAB"/>
					</linearGradient>
					<rect x="29.578" y="17.711" clip-path="url(#SVGID_15_)" fill="url(#SVGID_21_)" width="26.514" height="34.522"/>
				</g>
			</g>
		</g>
		<g>
			<defs>
				<path id="SVGID_1_" d="M52.023,7.026c0.21,0.235,0.414,0.475,0.616,0.717c0.063,0.076,0.125,0.153,0.188,0.229
					c0.067,0.083,0.136,0.164,0.203,0.247c0.004,0.007,0.008,0.015,0.012,0.023c3.207,4.027,5.364,8.982,5.983,14.487
					c0.943,8.373-1.859,16.29-7.058,22.057c-4.396,4.879-10.509,8.218-17.528,8.994c-6.218,0.687-12.19-0.742-17.208-3.718
					c-2.865-2.005-5.388-4.493-7.443-7.364c-2.755-3.845-3.419-6.058-4.575-9.445c-0.095,1.766-0.046,3.565,0.159,5.382
					C7.35,56.221,23.082,68.913,40.509,66.986c15.325-1.695,27.891-14.094,28.152-29.08c-2.525,5.152-6.977,9.393-8.861,10.077
					c3.969-4.818,7.431-10.459,7.037-19.637C66.316,16.202,54.465,8.389,52.502,7.295l-0.003-0.002L52.5,7.294
					c-0.281-0.18-0.45-0.275-0.475-0.275C52.02,7.02,52.02,7.022,52.023,7.026"/>
			</defs>
			<clipPath id="SVGID_22_">
				<use xlink:href="#SVGID_1_"  overflow="visible"/>
			</clipPath>
			
				<linearGradient id="SVGID_23_" gradientUnits="userSpaceOnUse" x1="-8091.3872" y1="1409.3666" x2="-8090.9868" y2="1409.3666" gradientTransform="matrix(158.6181 0 0 -158.6181 1283445.5 223589)">
				<stop  offset="0" style="stop-color:#5A479A"/>
				<stop  offset="0.725" style="stop-color:#4174BA"/>
				<stop  offset="0.996" style="stop-color:#208ECF"/>
				<stop  offset="1" style="stop-color:#208ECF"/>
			</linearGradient>
			<rect x="5.118" y="7.02" clip-path="url(#SVGID_22_)" fill="url(#SVGID_23_)" width="63.544" height="61.893"/>
		</g>
		<path fill-rule="evenodd" clip-rule="evenodd" fill="#4EC0DE" d="M52.023,7.026C57.4,9.984,63.449,14.91,64.491,23.953
			c1.028,8.911-9.078,29.531-26.431,31.45c-7.672,0.849-15-1.242-20.884-5.379c4.441,3.128,11.968,4.341,17.263,3.756
			c7.018-0.776,13.132-4.115,17.528-8.994c5.2-5.767,8-13.684,7.058-22.057C58.342,16.658,55.794,11.252,52.023,7.026"/>
	</g>
	<g>
		<path fill="#FFFFFF" d="M15.28,82.318c0-1.22-0.739-1.9-1.86-1.9c-1.14,0-1.86,0.68-1.86,1.9v6.02H7.64v-6.02
			c0-1.22-0.72-1.9-1.84-1.9c-1.16,0-1.88,0.68-1.88,1.9v6.02H0v-11.22h3.92v1.48c0.64-0.9,1.739-1.58,3.26-1.58
			c1.68,0,3,0.76,3.74,2.06c0.76-1.14,2.08-2.06,3.74-2.06c2.84,0,4.54,1.84,4.54,4.78v6.54H15.28V82.318z"/>
		<path fill="#FFFFFF" d="M26.168,88.478c-3.32,0-5.7-2.18-5.7-5.76c0-3.56,2.34-5.74,5.7-5.74c3.32,0,5.66,2.14,5.66,5.62
			c0,0.3-0.02,0.62-0.06,0.92h-7.421c0.08,1.3,0.78,1.82,1.661,1.82c0.76,0,1.18-0.42,1.399-0.88h4.181
			C31.068,86.758,28.969,88.478,26.168,88.478 M24.369,81.618h3.46c0-1-0.78-1.54-1.68-1.54
			C25.209,80.078,24.548,80.598,24.369,81.618"/>
		<rect x="33.097" y="73.538" fill="#FFFFFF" width="3.92" height="14.8"/>
		<path fill="#FFFFFF" d="M43.986,88.478c-3.32,0-5.7-2.18-5.7-5.76c0-3.56,2.34-5.74,5.7-5.74c3.321,0,5.66,2.14,5.66,5.62
			c0,0.3-0.02,0.62-0.06,0.92h-7.42c0.08,1.3,0.78,1.82,1.66,1.82c0.76,0,1.18-0.42,1.4-0.88h4.18
			C48.886,86.758,46.786,88.478,43.986,88.478 M42.186,81.618h3.46c0-1-0.78-1.54-1.68-1.54
			C43.026,80.078,42.366,80.598,42.186,81.618"/>
		<path fill="#FFFFFF" d="M55.477,76.978c1.6,0,2.72,0.7,3.3,1.7v-1.56h3.92v11.22h-3.92v-1.56c-0.579,1-1.72,1.7-3.3,1.7
			c-2.66,0-4.78-2.18-4.78-5.76C50.697,79.138,52.817,76.978,55.477,76.978 M56.737,80.398c-1.12,0-2.04,0.8-2.04,2.32
			c0,1.5,0.92,2.34,2.04,2.34c1.1,0,2.039-0.82,2.039-2.34C58.777,81.218,57.837,80.398,56.737,80.398"/>
		<path fill="#FFFFFF" d="M71.166,76.978c2.68,0,4.78,2.16,4.78,5.74c0,3.58-2.1,5.76-4.78,5.76c-1.58,0-2.68-0.72-3.28-1.7v6.92
			h-3.92v-16.58h3.92v1.56C68.466,77.678,69.606,76.978,71.166,76.978 M69.926,80.398c-1.1,0-2.04,0.82-2.04,2.32
			c0,1.52,0.94,2.34,2.04,2.34c1.1,0,2.039-0.84,2.039-2.34C71.966,81.198,71.026,80.398,69.926,80.398"/>
	</g>
</g>
</svg>
