<?xml version="1.0" encoding="utf-8"?>
<!-- Generator: Adobe Illustrator 17.0.0, SVG Export Plug-In . SVG Version: 6.00 Build 0)  -->
<!DOCTYPE svg PUBLIC "-//W3C//DTD SVG 1.1//EN" "http://www.w3.org/Graphics/SVG/1.1/DTD/svg11.dtd">
<svg version="1.1" id="圖層_1" xmlns="http://www.w3.org/2000/svg" xmlns:xlink="http://www.w3.org/1999/xlink" x="0px" y="0px"
	 width="50.941px" height="62.868px" viewBox="0 0 50.941 62.868" enable-background="new 0 0 50.941 62.868" xml:space="preserve">
<g>
	<g>
		<g>
			<path fill="#FFFFFF" d="M10.249,55.234c0-0.818-0.496-1.274-1.247-1.274c-0.765,0-1.248,0.456-1.248,1.274v4.038H5.124v-4.038
				c0-0.818-0.483-1.274-1.234-1.274c-0.778,0-1.261,0.456-1.261,1.274v4.038H0v-7.526h2.629v0.993
				c0.429-0.604,1.167-1.06,2.187-1.06c1.127,0,2.012,0.51,2.508,1.382c0.51-0.765,1.395-1.382,2.509-1.382
				c1.905,0,3.045,1.234,3.045,3.206v4.387h-2.629V55.234z"/>
			<path fill="#FFFFFF" d="M17.553,59.366c-2.227,0-3.823-1.462-3.823-3.863c0-2.388,1.57-3.85,3.823-3.85
				c2.227,0,3.796,1.436,3.796,3.77c0,0.201-0.013,0.416-0.04,0.617h-4.977c0.054,0.872,0.523,1.221,1.113,1.221
				c0.51,0,0.791-0.282,0.939-0.59h2.804C20.839,58.213,19.431,59.366,17.553,59.366 M16.345,54.765h2.321
				c0-0.671-0.523-1.033-1.127-1.033C16.909,53.732,16.466,54.081,16.345,54.765"/>
			<rect x="22.2" y="49.345" fill="#FFFFFF" width="2.629" height="9.927"/>
			<path fill="#FFFFFF" d="M29.504,59.366c-2.227,0-3.823-1.462-3.823-3.863c0-2.388,1.57-3.85,3.823-3.85
				c2.227,0,3.796,1.436,3.796,3.77c0,0.201-0.013,0.416-0.04,0.617h-4.977c0.054,0.872,0.523,1.221,1.113,1.221
				c0.51,0,0.791-0.282,0.939-0.59h2.804C32.79,58.213,31.382,59.366,29.504,59.366 M28.296,54.765h2.321
				c0-0.671-0.523-1.033-1.127-1.033C28.86,53.732,28.417,54.081,28.296,54.765"/>
			<path fill="#FFFFFF" d="M37.211,51.653c1.073,0,1.824,0.47,2.213,1.14v-1.046h2.629v7.526h-2.629v-1.046
				c-0.389,0.671-1.154,1.14-2.213,1.14c-1.784,0-3.206-1.462-3.206-3.863C34.005,53.102,35.427,51.653,37.211,51.653
				 M38.057,53.947c-0.751,0-1.368,0.536-1.368,1.556c0,1.006,0.617,1.57,1.368,1.57c0.738,0,1.368-0.55,1.368-1.57
				C39.425,54.497,38.794,53.947,38.057,53.947"/>
			<path fill="#FFFFFF" d="M47.735,51.653c1.797,0,3.206,1.449,3.206,3.85c0,2.401-1.409,3.863-3.206,3.863
				c-1.06,0-1.798-0.483-2.2-1.14v4.642h-2.629V51.747h2.629v1.046C45.924,52.122,46.688,51.653,47.735,51.653 M46.903,53.947
				c-0.738,0-1.368,0.55-1.368,1.556c0,1.02,0.631,1.57,1.368,1.57c0.738,0,1.368-0.563,1.368-1.57
				C48.271,54.483,47.641,53.947,46.903,53.947"/>
		</g>
		<path fill="#FFFFFF" d="M40.506,32.411c2.68-3.254,5.018-7.064,4.752-13.262c-0.352-8.202-8.355-13.478-9.682-14.216L35.575,4.93
			l0,0c-0.218-0.14-0.336-0.203-0.322-0.181c1.942,3.106,1.509,5.201,1.509,5.201C30.519-0.596,18.128-2.965,7.338,3.833
			c4.338-0.042,7.525,1.008,9.794,2.613c1.927-0.847,4.05-1.319,6.284-1.319c8.733,0,16.186,6.767,15.597,15.597
			c-0.214,3.205-1.282,5.769-2.137,7.05c1.282-4.273,2.552-10.315-1.436-15.646c-7.059-9.434-22.111-7.402-25.478,3.843
			c3.251-3.487,9.164-2.413,11.009,1.96c1.822,4.314-1.419,9.259-6.129,9.259c-1.846,0-3.681-0.811-4.926-2.173
			c1.713,6.361,7.944,11.517,13.286,11.944c-0.068,0.009-1.26,0.361-4.914-0.641c-6.584-1.806-10.683-8.12-10.683-15.17
			c0-2.629,0.629-5.108,1.737-7.297C7.344,10.965,4.116,9.863,0.538,12.2c2.363-0.882,4.232,0.184,5.248,1.972
			c2.321,4.152-2.553,6.465,0.943,14.67c-1.861-2.597-2.309-4.092-3.09-6.379c-0.064,1.193-0.031,2.408,0.107,3.635
			c1.337,11.876,11.961,20.448,23.731,19.146c10.35-1.145,18.837-9.518,19.013-19.64C44.785,29.084,41.779,31.948,40.506,32.411
			 M35.861,5.47c0.023,0.029,0.049,0.056,0.072,0.085c0.002,0.005,0.005,0.01,0.008,0.015C35.915,5.537,35.888,5.504,35.861,5.47
			 M17.771,9.899c0,0,9.83-4.494,16.046,3.904c5.999,8.105-0.941,16.887-0.941,16.887s2.685-3.956,1.972-9.155
			c-0.251-1.826-0.862-4.164-2.262-6.093c-2.098-2.89-4.323-4.237-6.471-5.043C23.131,9.279,20.078,9.457,17.771,9.899
			 M22.78,27.257c0-1.842,1.493-3.335,3.336-3.335c1.842,0,3.335,1.493,3.335,3.335c0,1.842-1.493,3.335-3.335,3.335
			C24.274,30.592,22.78,29.099,22.78,27.257 M23.843,39.099c3.989-1.088,8.523-3.604,11.255-6.818
			c3.941-4.632,5.741-10.786,4.939-16.885c-0.331-2.515-1.078-4.912-2.204-7.112c2.198,2.435,4.002,5.739,4.517,9.576
			c0.423,3.155-0.813,9.42-4.707,14.285C35.236,35.153,29.812,38.544,23.843,39.099"/>
	</g>
</g>
</svg>
