<?xml version="1.0" encoding="utf-8"?>
<!-- Generator: Adobe Illustrator 17.0.0, SVG Export Plug-In . SVG Version: 6.00 Build 0)  -->
<!DOCTYPE svg PUBLIC "-//W3C//DTD SVG 1.1//EN" "http://www.w3.org/Graphics/SVG/1.1/DTD/svg11.dtd">
<svg version="1.1" id="圖層_1" xmlns="http://www.w3.org/2000/svg" xmlns:xlink="http://www.w3.org/1999/xlink" x="0px" y="0px"
	 width="1920px" height="194.656px" viewBox="0 0 1920 194.656" enable-background="new 0 0 1920 194.656" xml:space="preserve">
<g>
	<defs>
		<rect id="SVGID_1_" y="0" width="1920" height="194.656"/>
	</defs>
	<clipPath id="SVGID_2_">
		<use xlink:href="#SVGID_1_"  overflow="visible"/>
	</clipPath>
	<g clip-path="url(#SVGID_2_)">
		<g>
			<path fill="none" stroke="#FFFFFF" stroke-width="2" stroke-miterlimit="10" d="M195.755,5.434v156.559h-43.304V73.165
				l-29.091,88.828h-37.53L56.74,73.165v88.828H12.992V5.434h53.519l38.64,101.708l37.53-101.708H195.755z"/>
			<path fill="none" stroke="#FFFFFF" stroke-width="2" stroke-miterlimit="10" d="M259.266,39.633v25.982h50.854v33.088
				h-50.854v28.425h57.516v34.865H215.518V4.767h101.264v34.865H259.266z"/>
			<path fill="none" stroke="#FFFFFF" stroke-width="2" stroke-miterlimit="10" d="M466.676,123.686
				c-6.662,11.919-16.138,21.284-28.425,28.092c-12.29,6.811-26.725,10.215-43.304,10.215h-62.624V4.767h62.624
				c16.579,0,31.052,3.296,43.415,9.882c12.359,6.589,21.835,15.805,28.425,27.647c6.586,11.846,9.882,25.393,9.882,40.639
				C476.669,98.186,473.338,111.77,466.676,123.686z M421.374,112.471c7.401-6.957,11.103-16.801,11.103-29.535
				c0-12.582-3.702-22.391-11.103-29.424c-7.405-7.03-17.544-10.548-30.424-10.548h-14.878v79.945h14.878
				C403.83,122.908,413.969,119.432,421.374,112.471z"/>
			<path fill="none" stroke="#FFFFFF" stroke-width="2" stroke-miterlimit="10" d="M535.516,4.767v157.226h-43.748V4.767
				H535.516z"/>
			<path fill="none" stroke="#FFFFFF" stroke-width="2" stroke-miterlimit="10" d="M654.545,135.789h-55.739l-8.661,26.204
				h-45.969L601.693,5.434h50.41l57.294,156.559h-46.191L654.545,135.789z M643.664,102.922l-16.877-51.076l-17.099,51.076H643.664z
				"/>
			<path fill="none" stroke="#FFFFFF" stroke-width="2" stroke-miterlimit="10" d="M853.297,161.993l-13.546-17.1
				c-0.743,1.037-2.075,2.52-3.997,4.441c-3.998,4.441-8.994,7.922-14.99,10.438c-5.996,2.516-12.769,3.775-20.319,3.775
				c-10.958,0-20.358-2.183-28.203-6.551c-7.849-4.365-13.768-10.289-17.766-17.766c-3.997-7.475-5.996-15.802-5.996-24.983
				c0-12.137,3.144-22.318,9.438-30.535c6.291-8.216,14.396-13.435,24.316-15.656l-2.665-4.664c-3.553-7.401-5.33-14.58-5.33-21.541
				c0-6.662,1.85-12.953,5.552-18.876c3.699-5.919,9.14-10.694,16.322-14.324c7.179-3.626,15.802-5.44,25.871-5.44
				c25.167,0,41.156,9.993,47.967,29.979c2.516,7.55,3.553,15.621,3.109,24.206h-40.639c0-3.553-0.222-6.44-0.667-8.661
				c-0.444-6.218-3.407-9.327-8.883-9.327c-2.37,0-4.257,0.666-5.663,1.999c-1.409,1.333-2.11,3.109-2.11,5.33
				c0,1.926,0.406,3.703,1.222,5.33c0.812,1.63,2.332,3.997,4.552,7.106l75.948,102.818H853.297z M811.437,123.464
				c2.738-2.588,4.108-5.958,4.108-10.104c0-4.143-1.482-7.512-4.441-10.104c-2.963-2.589-6.589-3.886-10.881-3.886
				c-4.296,0-7.772,1.221-10.438,3.664c-2.665,2.443-3.997,5.812-3.997,10.104c0,4.296,1.405,7.738,4.219,10.326
				c2.811,2.592,6.364,3.886,10.659,3.886C805.108,127.35,808.696,126.056,811.437,123.464z"/>
			<path fill="none" stroke="#FFFFFF" stroke-width="2" stroke-miterlimit="10" d="M1040.721,135.789h-55.738l-8.662,26.204
				h-45.968L987.869,5.434h50.41l57.293,156.559h-46.189L1040.721,135.789z M1029.84,102.922l-16.877-51.076l-17.1,51.076H1029.84z"
				/>
			<path fill="none" stroke="#FFFFFF" stroke-width="2" stroke-miterlimit="10" d="M1324.082,4.767l-36.641,157.226h-54.186
				l-21.763-97.044l-21.763,97.044h-54.186L1098.903,4.767h47.079l17.321,107.038L1187.51,4.767h47.745l24.428,107.038
				l17.321-107.038H1324.082z"/>
			<path fill="none" stroke="#FFFFFF" stroke-width="2" stroke-miterlimit="10" d="M1437.779,135.789h-55.739l-8.661,26.204
				h-45.968l57.516-156.559h50.41l57.294,156.559h-46.19L1437.779,135.789z M1426.898,102.922l-16.878-51.076l-17.1,51.076H1426.898
				z"/>
			<path fill="none" stroke="#FFFFFF" stroke-width="2" stroke-miterlimit="10" d="M1581.014,161.993l-31.756-57.96h-4.441
				v57.96h-43.747V4.767h69.063c12.581,0,23.279,2.186,32.089,6.551c8.807,4.369,15.434,10.402,19.875,18.099
				c4.441,7.7,6.662,16.36,6.662,25.982c0,10.958-3.036,20.469-9.104,28.536c-6.072,8.071-14.806,13.734-26.204,16.988
				l35.753,61.069H1581.014z M1544.816,74.719h21.541c12.138,0,18.21-5.476,18.21-16.433c0-5.181-1.52-9.25-4.553-12.214
				c-3.036-2.96-7.589-4.441-13.657-4.441h-21.541V74.719z"/>
			<path fill="none" stroke="#FFFFFF" stroke-width="2" stroke-miterlimit="10" d="M1775.991,123.686
				c-6.662,11.919-16.138,21.284-28.425,28.092c-12.29,6.811-26.725,10.215-43.304,10.215h-62.623V4.767h62.623
				c16.579,0,31.052,3.296,43.415,9.882c12.359,6.589,21.836,15.805,28.425,27.647c6.586,11.846,9.882,25.393,9.882,40.639
				C1785.984,98.186,1782.653,111.77,1775.991,123.686z M1730.689,112.471c7.401-6.957,11.104-16.801,11.104-29.535
				c0-12.582-3.702-22.391-11.104-29.424c-7.405-7.03-17.544-10.548-30.424-10.548h-14.879v79.945h14.879
				C1713.146,122.908,1723.284,119.432,1730.689,112.471z"/>
			<path fill="none" stroke="#FFFFFF" stroke-width="2" stroke-miterlimit="10" d="M1911.675,140.452
				c-4.441,7.106-10.958,12.734-19.543,16.877c-8.588,4.146-18.876,6.219-30.867,6.219c-18.21,0-33.199-4.365-44.97-13.103
				c-11.77-8.733-18.175-21.169-19.209-37.308h46.413c0.444,5.479,2.145,9.549,5.107,12.214c2.96,2.665,6.586,3.998,10.882,3.998
				c3.848,0,6.846-0.961,8.993-2.887c2.145-1.922,3.221-4.664,3.221-8.216c0-4.736-2.148-8.401-6.44-10.993
				c-4.296-2.588-11.104-5.441-20.431-8.55c-9.92-3.404-18.099-6.735-24.538-9.993c-6.44-3.254-11.992-8.14-16.655-14.656
				c-4.664-6.513-6.995-14.879-6.995-25.094c0-9.771,2.516-18.171,7.55-25.205c5.031-7.03,11.916-12.36,20.652-15.989
				c8.734-3.626,18.654-5.44,29.758-5.44c18.061,0,32.457,4.257,43.192,12.769c10.732,8.515,16.617,20.469,17.654,35.865h-46.856
				c-0.594-4.886-2.109-8.512-4.553-10.882c-2.442-2.366-5.662-3.553-9.66-3.553c-3.407,0-6.072,0.888-7.994,2.665
				c-1.926,1.777-2.887,4.441-2.887,7.995c0,4.441,2.109,7.921,6.329,10.437c4.219,2.52,10.843,5.33,19.875,8.439
				c9.917,3.553,18.134,7.033,24.649,10.437c6.514,3.408,12.138,8.366,16.878,14.879c4.736,6.516,7.105,14.955,7.105,25.316
				C1918.336,125.428,1916.115,133.346,1911.675,140.452z"/>
		</g>
	</g>
</g>
</svg>
