<?xml version="1.0" encoding="utf-8"?>
<!-- Generator: Adobe Illustrator 17.0.0, SVG Export Plug-In . SVG Version: 6.00 Build 0)  -->
<!DOCTYPE svg PUBLIC "-//W3C//DTD SVG 1.1//EN" "http://www.w3.org/Graphics/SVG/1.1/DTD/svg11.dtd">
<svg version="1.1" id="圖層_1" xmlns="http://www.w3.org/2000/svg" xmlns:xlink="http://www.w3.org/1999/xlink" x="0px" y="0px"
	 width="1013.555px" height="176.233px" viewBox="0 0 1013.555 176.233" enable-background="new 0 0 1013.555 176.233"
	 xml:space="preserve">
<g>
	<polygon fill="none" stroke="#FFFFFF" stroke-width="2" stroke-miterlimit="10" points="198.512,4.36 198.512,173.554 
		151.714,173.554 151.714,77.557 120.275,173.554 79.717,173.554 48.278,77.557 48.278,173.554 1,173.554 1,4.36 58.838,4.36 
		100.596,114.275 141.155,4.36 	"/>
	
		<rect x="224.669" y="3.639" fill="none" stroke="#FFFFFF" stroke-width="2" stroke-miterlimit="10" width="47.278" height="169.914"/>
	<path fill="none" stroke="#FFFFFF" stroke-width="2" stroke-miterlimit="10" d="M417.622,150.274
		c-4.8,7.68-11.842,13.762-21.12,18.239c-9.28,4.48-20.399,6.72-33.358,6.72c-19.679,0-35.879-4.717-48.598-14.159
		c-12.72-9.439-19.642-22.878-20.759-40.318h50.158c0.48,5.921,2.317,10.319,5.519,13.199c3.199,2.879,7.117,4.319,11.76,4.319
		c4.159,0,7.398-1.038,9.72-3.12c2.317-2.077,3.479-5.039,3.479-8.879c0-5.119-2.321-9.079-6.959-11.88
		c-4.643-2.797-12-5.879-22.079-9.239c-10.721-3.679-19.56-7.279-26.519-10.8c-6.96-3.517-12.96-8.797-18-15.839
		c-5.039-7.039-7.559-16.08-7.559-27.119c0-10.561,2.718-19.638,8.159-27.239c5.438-7.597,12.877-13.357,22.32-17.28
		C333.224,2.961,343.945,1,355.944,1c19.518,0,35.076,4.601,46.678,13.799c11.599,9.203,17.958,22.122,19.08,38.759h-50.639
		c-0.641-5.28-2.279-9.199-4.919-11.76c-2.64-2.558-6.12-3.841-10.44-3.841c-3.682,0-6.562,0.96-8.64,2.88
		c-2.081,1.921-3.119,4.801-3.119,8.641c0,4.8,2.28,8.561,6.84,11.279c4.559,2.723,11.718,5.76,21.479,9.119
		c10.716,3.841,19.596,7.602,26.638,11.28c7.039,3.683,13.117,9.041,18.24,16.079c5.118,7.042,7.68,16.162,7.68,27.359
		C424.822,134.037,422.422,142.595,417.622,150.274z"/>
	<path fill="none" stroke="#FFFFFF" stroke-width="2" stroke-miterlimit="10" d="M564.976,150.274
		c-4.8,7.68-11.842,13.762-21.12,18.239c-9.28,4.48-20.399,6.72-33.358,6.72c-19.679,0-35.879-4.717-48.598-14.159
		c-12.72-9.439-19.642-22.878-20.759-40.318h50.158c0.48,5.921,2.317,10.319,5.519,13.199c3.199,2.879,7.117,4.319,11.76,4.319
		c4.159,0,7.398-1.038,9.72-3.12c2.317-2.077,3.479-5.039,3.479-8.879c0-5.119-2.321-9.079-6.959-11.88
		c-4.643-2.797-12-5.879-22.079-9.239c-10.721-3.679-19.56-7.279-26.519-10.8c-6.96-3.517-12.96-8.797-18-15.839
		c-5.039-7.039-7.559-16.08-7.559-27.119c0-10.561,2.718-19.638,8.159-27.239c5.438-7.597,12.877-13.357,22.32-17.28
		C480.578,2.961,491.299,1,503.298,1c19.518,0,35.076,4.601,46.678,13.799c11.599,9.203,17.958,22.122,19.08,38.759h-50.639
		c-0.641-5.28-2.279-9.199-4.919-11.76c-2.64-2.558-6.12-3.841-10.44-3.841c-3.682,0-6.562,0.96-8.64,2.88
		c-2.081,1.921-3.119,4.801-3.119,8.641c0,4.8,2.28,8.561,6.84,11.279c4.559,2.723,11.718,5.76,21.479,9.119
		c10.716,3.841,19.596,7.602,26.638,11.28c7.039,3.683,13.117,9.041,18.24,16.079c5.118,7.042,7.68,16.162,7.68,27.359
		C572.176,134.037,569.776,142.595,564.976,150.274z"/>
	
		<rect x="592.815" y="3.639" fill="none" stroke="#FFFFFF" stroke-width="2" stroke-miterlimit="10" width="47.278" height="169.914"/>
	<path fill="none" stroke="#FFFFFF" stroke-width="2" stroke-miterlimit="10" d="M791.888,12.16
		c13.199,7.439,23.597,17.8,31.197,31.079c7.598,13.281,11.4,28.239,11.4,44.878c0,16.642-3.84,31.6-11.519,44.878
		c-7.68,13.282-18.119,23.639-31.319,31.079c-13.199,7.439-27.719,11.159-43.558,11.159c-15.84,0-30.4-3.72-43.678-11.159
		c-13.283-7.44-23.76-17.797-31.439-31.079c-7.68-13.278-11.521-28.236-11.521-44.878c0-16.639,3.84-31.597,11.521-44.878
		c7.679-13.279,18.156-23.64,31.439-31.079C717.689,4.72,732.249,1,748.088,1C764.086,1,778.688,4.72,791.888,12.16z M719.77,56.318
		c-6.881,7.762-10.32,18.358-10.32,31.799c0,13.121,3.44,23.6,10.32,31.438c6.877,7.84,16.319,11.759,28.319,11.759
		c11.838,0,21.198-3.919,28.079-11.759c6.878-7.838,10.319-18.317,10.319-31.438c0-13.441-3.4-24.037-10.199-31.799
		c-6.803-7.759-16.2-11.641-28.199-11.641C736.088,44.678,726.646,48.56,719.77,56.318z"/>
	<polygon fill="none" stroke="#FFFFFF" stroke-width="2" stroke-miterlimit="10" points="1012.555,173.554 965.277,173.554 
		902.879,78.758 902.879,173.554 855.601,173.554 855.601,3.879 902.879,3.879 965.277,99.876 965.277,3.879 1012.555,3.879 	"/>
</g>
</svg>
