<?xml version="1.0" encoding="utf-8"?>
<!-- Generator: Adobe Illustrator 17.0.0, SVG Export Plug-In . SVG Version: 6.00 Build 0)  -->
<!DOCTYPE svg PUBLIC "-//W3C//DTD SVG 1.1//EN" "http://www.w3.org/Graphics/SVG/1.1/DTD/svg11.dtd">
<svg version="1.1" id="圖層_1" xmlns="http://www.w3.org/2000/svg" xmlns:xlink="http://www.w3.org/1999/xlink" x="0px" y="0px"
	 width="1131.713px" height="132px" viewBox="0 0 1131.713 132" enable-background="new 0 0 1131.713 132" xml:space="preserve">
<g>
	<defs>
		<rect id="SVGID_1_" x="0" y="0" width="720.415" height="132"/>
	</defs>
	<clipPath id="SVGID_2_">
		<use xlink:href="#SVGID_1_"  overflow="visible"/>
	</clipPath>
	<g clip-path="url(#SVGID_2_)">
		<g>
			<path fill="none" stroke="#FFFFFF" stroke-width="2" stroke-miterlimit="10" d="M163.61,146.887h-48.388L51.359,49.866v97.021
				H2.971V-26.769h48.388l63.863,98.25v-98.25h48.388V146.887z"/>
			<path fill="none" stroke="#FFFFFF" stroke-width="2" stroke-miterlimit="10" d="M233.855,11.548v28.738h56.248v36.598h-56.248
				v31.44h63.617v38.562H185.467V-27.015h112.005v38.563H233.855z"/>
			<path fill="none" stroke="#FFFFFF" stroke-width="2" stroke-miterlimit="10" d="M558.077-27.015l-40.528,173.902h-59.932
				L433.546,39.549l-24.071,107.338h-59.933L309.014-27.015h52.073l19.159,118.392l26.773-118.392h52.81l27.019,118.392
				l19.159-118.392H558.077z"/>
			<path fill="none" stroke="#FFFFFF" stroke-width="2" stroke-miterlimit="10" d="M696.361,123.062
				c-4.912,7.859-12.12,14.085-21.614,18.667c-9.499,4.587-20.879,6.878-34.143,6.878c-20.141,0-36.721-4.828-49.739-14.492
				c-13.018-9.66-20.103-23.415-21.246-41.265h51.336c0.491,6.06,2.371,10.562,5.649,13.509c3.273,2.948,7.284,4.422,12.035,4.422
				c4.257,0,7.572-1.063,9.948-3.193c2.371-2.126,3.562-5.158,3.562-9.088c0-5.239-2.376-9.292-7.123-12.158
				c-4.752-2.863-12.281-6.019-22.598-9.457c-10.973-3.765-20.019-7.449-27.142-11.053c-7.123-3.601-13.264-9.004-18.422-16.212
				c-5.158-7.203-7.737-16.457-7.737-27.756c0-10.807,2.782-20.099,8.352-27.878c5.564-7.775,13.179-13.671,22.843-17.685
				c9.66-4.011,20.633-6.019,32.914-6.019c19.976,0,35.899,4.709,47.773,14.124c11.871,9.418,18.38,22.64,19.527,39.668h-51.827
				c-0.656-5.403-2.333-9.414-5.035-12.035c-2.701-2.618-6.263-3.931-10.685-3.931c-3.769,0-6.716,0.982-8.843,2.948
				c-2.13,1.965-3.192,4.912-3.192,8.842c0,4.913,2.333,8.763,7,11.545c4.667,2.786,11.993,5.895,21.983,9.334
				c10.969,3.93,20.057,7.779,27.265,11.544c7.203,3.769,13.425,9.253,18.667,16.457c5.239,7.207,7.86,16.541,7.86,28.001
				C703.73,106.444,701.274,115.202,696.361,123.062z"/>
		</g>
	</g>
</g>
<g>
	<g>
		<g>
			<g>
				<g>
					<path fill="#FFFFFF" d="M742.932,51.622h6.938l4.242,11.54c0.539,1.545,0.971,3.235,1.474,4.889h0.18
						c0.539-1.654,0.971-3.344,1.475-4.889l4.098-11.54h6.975v26.747h-5.86v-9.167c0-2.661,0.504-6.651,0.827-9.275h-0.144
						l-2.229,6.399l-3.595,9.778h-3.522l-3.632-9.778l-2.156-6.399h-0.145c0.324,2.625,0.827,6.615,0.827,9.275v9.167h-5.752V51.622
						z"/>
					<path fill="#FFFFFF" d="M774.68,64.852c0-8.772,4.961-13.733,12.259-13.733s12.259,4.997,12.259,13.733
						c0,8.772-4.961,14.021-12.259,14.021S774.68,73.624,774.68,64.852z M792.655,64.852c0-5.177-2.193-8.232-5.716-8.232
						c-3.523,0-5.681,3.056-5.681,8.232c0,5.213,2.157,8.484,5.681,8.484C790.461,73.336,792.655,70.065,792.655,64.852z"/>
					<path fill="#FFFFFF" d="M820.051,78.369l-4.925-9.419h-3.092v9.419H805.6V51.622h9.813c5.717,0,10.462,1.941,10.462,8.412
						c0,3.918-1.834,6.435-4.602,7.729l5.968,10.605H820.051z M812.034,63.881h2.876c3.056,0,4.674-1.33,4.674-3.847
						c0-2.516-1.618-3.343-4.674-3.343h-2.876V63.881z"/>
					<path fill="#FFFFFF" d="M832.493,51.622h16.968v5.321h-10.533v4.961h8.951v5.393h-8.951v5.68h10.929v5.393h-17.363V51.622z"/>
					<path fill="#FFFFFF" d="M866.253,51.622h6.543l6.65,12.798l2.624,5.932h0.18c-0.359-2.84-0.862-6.687-0.862-9.886v-8.844h6.111
						v26.747h-6.543l-6.615-12.906l-2.624-5.86h-0.18c0.288,2.984,0.827,6.65,0.827,9.886v8.879h-6.111V51.622z"/>
					<path fill="#FFFFFF" d="M895.159,51.622h16.969v5.321h-10.533v4.961h8.951v5.393h-8.951v5.68h10.929v5.393h-17.364V51.622z"/>
					<path fill="#FFFFFF" d="M916.66,51.622h6.578l1.69,12.187l1.078,8.484h0.144c0.504-2.84,1.043-5.716,1.582-8.484l2.732-12.187
						h5.393l2.804,12.187c0.539,2.732,1.007,5.608,1.546,8.484h0.18c0.323-2.876,0.683-5.716,1.007-8.484l1.726-12.187h6.111
						l-4.638,26.747h-8.089l-2.408-11.647c-0.432-2.049-0.791-4.207-1.043-6.22h-0.18c-0.323,2.013-0.647,4.17-1.042,6.22
						l-2.337,11.647h-7.945L916.66,51.622z"/>
					<path fill="#FFFFFF" d="M952.614,75.026l3.632-4.422c1.905,1.618,4.386,2.732,6.507,2.732c2.372,0,3.487-0.898,3.487-2.336
						c0-1.546-1.475-2.049-3.775-3.02l-3.415-1.438c-2.804-1.114-5.429-3.451-5.429-7.333c0-4.494,4.026-8.089,9.707-8.089
						c3.092,0,6.363,1.187,8.699,3.523l-3.199,4.026c-1.762-1.331-3.415-2.049-5.5-2.049c-1.978,0-3.2,0.791-3.2,2.229
						c0,1.474,1.689,2.049,4.063,2.983l3.344,1.331c3.308,1.33,5.284,3.559,5.284,7.333c0,4.458-3.738,8.376-10.21,8.376
						C959.121,78.872,955.382,77.578,952.614,75.026z"/>
				</g>
			</g>
		</g>
	</g>
	<linearGradient id="SVGID_3_" gradientUnits="userSpaceOnUse" x1="998.1176" y1="66.68" x2="1131.713" y2="66.68">
		<stop  offset="0" style="stop-color:#D8447E"/>
		<stop  offset="0.4791" style="stop-color:#DF8370"/>
		<stop  offset="0.9996" style="stop-color:#EABA3A"/>
		<stop  offset="1" style="stop-color:#EABA3A"/>
	</linearGradient>
	<polygon fill="url(#SVGID_3_)" points="1073.837,8.804 1064.956,17.684 1107.673,60.401 998.118,60.401 998.118,72.959 
		1107.673,72.959 1064.956,115.676 1073.837,124.556 1131.713,66.68 	"/>
</g>
</svg>
