<?xml version="1.0" encoding="utf-8"?>
<!-- Generator: Adobe Illustrator 17.0.0, SVG Export Plug-In . SVG Version: 6.00 Build 0)  -->
<!DOCTYPE svg PUBLIC "-//W3C//DTD SVG 1.1//EN" "http://www.w3.org/Graphics/SVG/1.1/DTD/svg11.dtd">
<svg version="1.1" id="圖層_1" xmlns="http://www.w3.org/2000/svg" xmlns:xlink="http://www.w3.org/1999/xlink" x="0px" y="0px"
	 width="1922px" height="224px" viewBox="0 0 1922 224" enable-background="new 0 0 1922 224" xml:space="preserve">
<g>
	<defs>
		<rect id="SVGID_1_" y="0" width="1922" height="224"/>
	</defs>
	<clipPath id="SVGID_2_">
		<use xlink:href="#SVGID_1_"  overflow="visible"/>
	</clipPath>
	<g clip-path="url(#SVGID_2_)">
		<g>
			<path fill="none" stroke="#FFFFFF" stroke-width="2" stroke-miterlimit="10" d="M114.454,61.396
				c10.996,6.197,19.658,14.828,25.989,25.89c6.329,11.064,9.497,23.524,9.497,37.385c0,13.863-3.199,26.324-9.596,37.385
				c-6.397,11.064-15.094,19.692-26.09,25.89s-23.09,9.297-36.285,9.297s-25.324-3.1-36.385-9.297
				c-11.064-6.197-19.792-14.825-26.189-25.89c-6.397-11.061-9.596-23.521-9.596-37.385c0-13.86,3.199-26.32,9.596-37.385
				c6.397-11.062,15.125-19.692,26.189-25.89c11.061-6.197,23.19-9.296,36.385-9.296C91.294,52.1,103.458,55.199,114.454,61.396z
				 M54.378,98.182c-5.732,6.466-8.597,15.294-8.597,26.489c0,10.93,2.864,19.661,8.597,26.189
				c5.729,6.532,13.594,9.796,23.59,9.796c9.862,0,17.659-3.264,23.391-9.796c5.729-6.528,8.596-15.26,8.596-26.189
				c0-11.195-2.833-20.023-8.496-26.489c-5.667-6.463-13.495-9.696-23.491-9.696S60.106,91.719,54.378,98.182z"/>
			<path fill="none" stroke="#FFFFFF" stroke-width="2" stroke-miterlimit="10" d="M270.088,54.299v31.387h-38.185v110.155h-39.184
				V85.686h-37.785V54.299H270.088z"/>
			<path fill="none" stroke="#FFFFFF" stroke-width="2" stroke-miterlimit="10" d="M405.632,54.299v141.542h-39.184v-57.177h-47.981
				v57.177h-39.384V54.299h39.384v52.979h47.981V54.299H405.632z"/>
			<path fill="none" stroke="#FFFFFF" stroke-width="2" stroke-miterlimit="10" d="M462.807,85.686v23.391h45.782v29.788h-45.782
				v25.59h51.779v31.387h-91.164V54.299h91.164v31.387H462.807z"/>
			<path fill="none" stroke="#FFFFFF" stroke-width="2" stroke-miterlimit="10" d="M600.549,195.842l-28.588-52.179h-3.999v52.179
				h-39.384V54.299h62.175c11.327,0,20.957,1.968,28.888,5.898c7.928,3.933,13.895,9.365,17.893,16.293
				c3.998,6.932,5.998,14.729,5.998,23.391c0,9.865-2.733,18.427-8.197,25.689c-5.467,7.266-13.329,12.364-23.591,15.294
				l32.188,54.978H600.549z M567.962,117.274h19.392c10.927,0,16.394-4.929,16.394-14.794c0-4.664-1.368-8.328-4.098-10.996
				c-2.733-2.665-6.832-3.999-12.295-3.999h-19.392V117.274z"/>
			<path fill="none" stroke="#FFFFFF" stroke-width="2" stroke-miterlimit="10" d="M777.478,172.252h-50.18l-7.797,23.59h-41.383
				l51.779-140.943h45.382l51.579,140.943h-41.583L777.478,172.252z M767.682,142.664l-15.194-45.982l-15.394,45.982H767.682z"/>
			<path fill="none" stroke="#FFFFFF" stroke-width="2" stroke-miterlimit="10" d="M906.425,195.842l-28.588-52.179h-3.999v52.179
				h-39.384V54.299h62.175c11.327,0,20.957,1.968,28.888,5.898c7.928,3.933,13.895,9.365,17.893,16.293
				c3.998,6.932,5.998,14.729,5.998,23.391c0,9.865-2.733,18.427-8.197,25.689c-5.467,7.266-13.329,12.364-23.591,15.294
				l32.188,54.978H906.425z M873.838,117.274h19.392c10.927,0,16.394-4.929,16.394-14.794c0-4.664-1.368-8.328-4.098-10.996
				c-2.733-2.665-6.832-3.999-12.295-3.999h-19.392V117.274z"/>
			<path fill="none" stroke="#FFFFFF" stroke-width="2" stroke-miterlimit="10" d="M1091.851,59.597
				c9.527,4.467,17.293,10.795,23.291,18.993c5.997,8.196,10.062,17.692,12.194,28.488h-41.383
				c-2.268-5.598-5.798-9.962-10.596-13.095c-4.798-3.13-10.33-4.698-16.594-4.698c-8.665,0-15.662,3.233-20.991,9.696
				c-5.332,6.466-7.997,15.094-7.997,25.89c0,10.795,2.665,19.461,7.997,25.989c5.329,6.532,12.326,9.796,20.991,9.796
				c6.264,0,11.796-1.599,16.594-4.798s8.328-7.597,10.596-13.194h41.383c-3.198,16.527-10.764,29.688-22.69,39.484
				c-11.93,9.795-27.023,14.693-45.282,14.693c-13.994,0-26.224-3.029-36.685-9.096c-10.465-6.064-18.527-14.561-24.19-25.49
				c-5.667-10.927-8.497-23.391-8.497-37.385c0-13.995,2.83-26.455,8.497-37.385c5.663-10.927,13.726-19.423,24.19-25.49
				c10.461-6.063,22.69-9.096,36.685-9.096C1071.49,52.9,1082.32,55.133,1091.851,59.597z"/>
			<path fill="none" stroke="#FFFFFF" stroke-width="2" stroke-miterlimit="10" d="M1245.586,61.396
				c10.996,6.197,19.658,14.828,25.99,25.89c6.328,11.064,9.496,23.524,9.496,37.385c0,13.863-3.199,26.324-9.597,37.385
				c-6.397,11.064-15.094,19.692-26.089,25.89c-10.996,6.197-23.091,9.297-36.286,9.297c-13.194,0-25.324-3.1-36.385-9.297
				c-11.064-6.197-19.792-14.825-26.189-25.89c-6.397-11.061-9.597-23.521-9.597-37.385c0-13.86,3.199-26.32,9.597-37.385
				c6.397-11.062,15.125-19.692,26.189-25.89c11.061-6.197,23.19-9.296,36.385-9.296C1222.427,52.1,1234.591,55.199,1245.586,61.396
				z M1185.511,98.182c-5.732,6.466-8.597,15.294-8.597,26.489c0,10.93,2.864,19.661,8.597,26.189
				c5.729,6.532,13.595,9.796,23.59,9.796c9.862,0,17.659-3.264,23.391-9.796c5.729-6.528,8.597-15.26,8.597-26.189
				c0-11.195-2.833-20.023-8.496-26.489c-5.667-6.463-13.495-9.696-23.491-9.696C1199.105,88.485,1191.239,91.719,1185.511,98.182z"
				/>
			<path fill="none" stroke="#FFFFFF" stroke-width="2" stroke-miterlimit="10" d="M1425.411,195.842h-39.384l-51.979-78.968v78.968
				h-39.384V54.499h39.384l51.979,79.968V54.499h39.384V195.842z"/>
			<path fill="none" stroke="#FFFFFF" stroke-width="2" stroke-miterlimit="10" d="M1549.758,54.299v31.387h-38.185v110.155h-39.184
				V85.686h-37.785V54.299H1549.758z"/>
			<path fill="none" stroke="#FFFFFF" stroke-width="2" stroke-miterlimit="10" d="M1598.137,85.686v23.391h45.781v29.788h-45.781
				v25.59h51.779v31.387h-91.163V54.299h91.163v31.387H1598.137z"/>
			<path fill="none" stroke="#FFFFFF" stroke-width="2" stroke-miterlimit="10" d="M1794.656,195.842h-39.384l-51.979-78.968v78.968
				h-39.384V54.499h39.384l51.979,79.968V54.499h39.384V195.842z"/>
			<path fill="none" stroke="#FFFFFF" stroke-width="2" stroke-miterlimit="10" d="M1919.003,54.299v31.387h-38.185v110.155h-39.184
				V85.686h-37.785V54.299H1919.003z"/>
		</g>
	</g>
</g>
</svg>
