<?xml version="1.0" encoding="utf-8"?>
<!-- Generator: Adobe Illustrator 17.0.0, SVG Export Plug-In . SVG Version: 6.00 Build 0)  -->
<!DOCTYPE svg PUBLIC "-//W3C//DTD SVG 1.1//EN" "http://www.w3.org/Graphics/SVG/1.1/DTD/svg11.dtd">
<svg version="1.1" id="圖層_1" xmlns="http://www.w3.org/2000/svg" xmlns:xlink="http://www.w3.org/1999/xlink" x="0px" y="0px"
	 width="250.704px" height="874.933px" viewBox="0 0 250.704 874.933" enable-background="new 0 0 250.704 874.933"
	 xml:space="preserve">
<g>
	<g>
		<path fill="none" stroke="#FFFFFF" stroke-width="2" stroke-miterlimit="10" d="M147.424,791.575h22.499v27.372h78.964
			v28.088h-78.964v27.085h-22.499V791.575z"/>
		<path fill="none" stroke="#FFFFFF" stroke-width="2" stroke-miterlimit="10" d="M147.424,685.815h101.463v28.089h-40.986
			v34.394h40.986v28.231H147.424v-28.231h37.978v-34.394h-37.978V685.815z"/>
		<path fill="none" stroke="#FFFFFF" stroke-width="2" stroke-miterlimit="10" d="M169.923,636.233h16.768v-32.818h21.354
			v32.818h18.344v-37.117h22.499v65.349H147.424v-65.349h22.499V636.233z"/>
		<path fill="none" stroke="#FFFFFF" stroke-width="2" stroke-miterlimit="10" d="M147.424,406.225l101.463,23.646v34.967
			l-62.626,14.044l62.626,14.044v34.968l-101.463,23.646v-30.381l69.075-11.179l-69.075-15.62v-30.812l69.075-15.764l-69.075-11.178
			V406.225z"/>
		<path fill="none" stroke="#FFFFFF" stroke-width="2" stroke-miterlimit="10" d="M152.512,313.292
			c4.442-7.882,10.63-14.091,18.558-18.63c7.932-4.537,16.864-6.807,26.799-6.807c9.938,0,18.87,2.293,26.799,6.879
			c7.932,4.585,14.116,10.819,18.559,18.702c4.443,7.882,6.664,16.552,6.664,26.01c0,9.458-2.221,18.153-6.664,26.082
			c-4.442,7.932-10.627,14.188-18.559,18.773c-7.929,4.586-16.861,6.879-26.799,6.879c-9.935,0-18.867-2.293-26.799-6.879
			c-7.928-4.586-14.115-10.842-18.558-18.773c-4.443-7.929-6.664-16.624-6.664-26.082
			C145.848,329.894,148.069,321.174,152.512,313.292z M178.88,356.356c4.636,4.109,10.963,6.162,18.988,6.162
			c7.836,0,14.094-2.053,18.773-6.162c4.683-4.107,7.023-9.745,7.023-16.91c0-7.069-2.341-12.658-7.023-16.767
			c-4.68-4.106-10.938-6.162-18.773-6.162c-8.025,0-14.353,2.031-18.988,6.09c-4.633,4.062-6.95,9.673-6.95,16.839
			C171.93,346.611,174.247,352.249,178.88,356.356z"/>
		<path fill="none" stroke="#FFFFFF" stroke-width="2" stroke-miterlimit="10" d="M248.887,217.923l-37.403,20.493v2.866
			h37.403v28.231H147.424v-44.569c0-8.119,1.411-15.022,4.228-20.708c2.819-5.683,6.713-9.96,11.679-12.826
			c4.969-2.866,10.559-4.299,16.768-4.299c7.071,0,13.209,1.959,18.415,5.875c5.208,3.919,8.862,9.555,10.963,16.91l39.41-23.072
			V217.923z M192.567,241.283v-13.901c0-7.833-3.534-11.751-10.604-11.751c-3.344,0-5.971,0.981-7.883,2.938
			c-1.91,1.959-2.865,4.897-2.865,8.813v13.901H192.567z"/>
		<path fill="none" stroke="#FFFFFF" stroke-width="2" stroke-miterlimit="10" d="M227.535,141.971v-31.671h21.353v59.903
			H147.424v-28.231H227.535z"/>
		<path fill="none" stroke="#FFFFFF" stroke-width="2" stroke-miterlimit="10" d="M224.166,7.263
			c7.691,4.299,13.735,10.414,18.128,18.343c4.396,7.931,6.593,17.246,6.593,27.945v40.413H147.424V53.551
			c0-10.699,2.127-20.038,6.377-28.017c4.252-7.976,10.2-14.091,17.842-18.343c7.645-4.25,16.387-6.377,26.225-6.377
			C207.71,0.814,216.477,2.964,224.166,7.263z M216.929,36.497c-4.489-4.776-10.842-7.165-19.061-7.165
			c-8.119,0-14.449,2.389-18.988,7.165c-4.536,4.779-6.807,11.321-6.807,19.633v9.602h51.592v-9.602
			C223.665,47.819,221.421,41.276,216.929,36.497z"/>
	</g>
</g>
<g>
	<g>
		<path fill="none" stroke="#FFFFFF" stroke-width="2" stroke-miterlimit="10" d="M103.853,822.185l-37.404,20.493v2.866
			h37.404v28.231H2.39v-44.568c0-8.12,1.411-15.023,4.228-20.709c2.819-5.683,6.713-9.959,11.68-12.826
			c4.969-2.865,10.558-4.299,16.767-4.299c7.071,0,13.209,1.959,18.415,5.876c5.208,3.918,8.863,9.555,10.963,16.91l39.41-23.072
			V822.185z M47.533,845.544v-13.901c0-7.832-3.534-11.751-10.605-11.751c-3.343,0-5.97,0.98-7.882,2.938
			c-1.91,1.96-2.866,4.897-2.866,8.813v13.901H47.533z"/>
		<path fill="none" stroke="#FFFFFF" stroke-width="2" stroke-miterlimit="10" d="M7.478,699.441
			c4.442-7.882,10.629-14.091,18.558-18.63c7.932-4.537,16.864-6.808,26.799-6.808c9.938,0,18.87,2.293,26.799,6.879
			c7.931,4.586,14.116,10.82,18.559,18.702c4.442,7.882,6.664,16.552,6.664,26.011c0,9.458-2.221,18.153-6.664,26.082
			c-4.443,7.931-10.627,14.188-18.559,18.773c-7.929,4.586-16.861,6.879-26.799,6.879c-9.935,0-18.867-2.293-26.799-6.879
			c-7.929-4.586-14.116-10.843-18.558-18.773c-4.443-7.929-6.664-16.624-6.664-26.082C0.814,716.042,3.035,707.323,7.478,699.441z
			 M33.847,742.505c4.635,4.108,10.963,6.162,18.988,6.162c7.835,0,14.094-2.054,18.773-6.162c4.682-4.106,7.022-9.745,7.022-16.91
			c0-7.069-2.34-12.658-7.022-16.768c-4.68-4.106-10.938-6.162-18.773-6.162c-8.025,0-14.353,2.031-18.988,6.091
			c-4.633,4.062-6.951,9.673-6.951,16.839C26.896,732.76,29.214,738.399,33.847,742.505z"/>
		<path fill="none" stroke="#FFFFFF" stroke-width="2" stroke-miterlimit="10" d="M6.188,585.512
			c3.202-6.829,7.739-12.396,13.614-16.695c5.876-4.299,12.683-7.213,20.422-8.742v29.665c-4.013,1.626-7.141,4.156-9.387,7.596
			c-2.244,3.439-3.368,7.405-3.368,11.895c0,6.212,2.318,11.228,6.951,15.048c4.635,3.822,10.82,5.732,18.559,5.732
			s13.95-1.91,18.63-5.732c4.682-3.82,7.022-8.836,7.022-15.048c0-4.489-1.146-8.455-3.439-11.895s-5.446-5.97-9.458-7.596v-29.665
			c11.848,2.293,21.281,7.717,28.303,16.266c7.022,8.552,10.533,19.371,10.533,32.46c0,10.031-2.172,18.798-6.521,26.297
			c-4.346,7.501-10.437,13.28-18.271,17.341c-7.833,4.062-16.768,6.09-26.799,6.09c-10.032,0-18.964-2.028-26.799-6.09
			c-7.833-4.061-13.923-9.84-18.272-17.341c-4.346-7.499-6.521-16.266-6.521-26.297C1.387,600.108,2.988,592.344,6.188,585.512z"/>
		<path fill="none" stroke="#FFFFFF" stroke-width="2" stroke-miterlimit="10" d="M51.975,486.846l51.878-39.268v33.965
			l-44.855,31.958h44.855v28.231H2.39v-28.231h43.853L2.39,481.256v-33.678L51.975,486.846z"/>
	</g>
</g>
</svg>
