<?xml version="1.0" encoding="utf-8"?>
<!-- Generator: Adobe Illustrator 17.0.0, SVG Export Plug-In . SVG Version: 6.00 Build 0)  -->
<!DOCTYPE svg PUBLIC "-//W3C//DTD SVG 1.1//EN" "http://www.w3.org/Graphics/SVG/1.1/DTD/svg11.dtd">
<svg version="1.1" id="圖層_1" xmlns="http://www.w3.org/2000/svg" xmlns:xlink="http://www.w3.org/1999/xlink" x="0px" y="0px"
	 width="44.035px" height="54.329px" viewBox="0 0 44.035 54.329" enable-background="new 0 0 44.035 54.329" xml:space="preserve">
<g>
	<g>
		<g>
			<defs>
				<path id="SVGID_8_" d="M13.371,23.074c-0.008-0.009-0.015-0.018-0.023-0.027c0,0-0.002-0.001-0.002-0.001
					C13.354,23.056,13.363,23.065,13.371,23.074"/>
			</defs>
			<clipPath id="SVGID_1_">
				<use xlink:href="#SVGID_8_"  overflow="visible"/>
			</clipPath>
			
				<linearGradient id="SVGID_9_" gradientUnits="userSpaceOnUse" x1="122975.5078" y1="-43733.1172" x2="122975.7422" y2="-43733.1172" gradientTransform="matrix(0.0495 -0.0232 -0.0232 -0.0495 -7088.541 711.305)">
				<stop  offset="0" style="stop-color:#61C0B7"/>
				<stop  offset="0.0939" style="stop-color:#5DB9B9"/>
				<stop  offset="0.2706" style="stop-color:#55A4BC"/>
				<stop  offset="0.5095" style="stop-color:#4B80B9"/>
				<stop  offset="0.6301" style="stop-color:#476BB3"/>
				<stop  offset="0.7069" style="stop-color:#546FB4"/>
				<stop  offset="0.9975" style="stop-color:#7A7AB9"/>
				<stop  offset="1" style="stop-color:#7A7AB9"/>
			</linearGradient>
			<polygon clip-path="url(#SVGID_1_)" fill="url(#SVGID_9_)" points="13.336,23.052 13.367,23.037 13.382,23.069 13.351,23.084 			
				"/>
		</g>
		<g>
			<defs>
				<path id="SVGID_7_" d="M6.133,3.348c7.643-0.113,11.156,3.737,12.203,7.587c1.061,3.903-0.412,7.805-2.686,7.58
					c-4.289-0.425-5.563-6.357-5.563-6.357c-0.151,1.118-0.164,2.274-0.026,3.448c0.881,7.475,7.6,12.838,15.009,11.979
					c1.86-0.216,3.587-0.803,5.116-1.681c2.997-3.36,4.597-7.959,4.025-12.811c-0.415-3.518-1.909-6.644-4.108-9.083
					c1.681,2.658,1.319,4.458,1.319,4.458C28.079,2.886,22.733,0,16.956,0C13.389,0.001,9.657,1.101,6.133,3.348"/>
			</defs>
			<clipPath id="SVGID_10_">
				<use xlink:href="#SVGID_7_"  overflow="visible"/>
			</clipPath>
			
				<linearGradient id="SVGID_11_" gradientUnits="userSpaceOnUse" x1="-8154.7563" y1="1347.4005" x2="-8154.5244" y2="1347.4005" gradientTransform="matrix(-26.0568 -189.8425 -189.8425 26.0568 43329.8516 -1583196.875)">
				<stop  offset="0" style="stop-color:#E84486"/>
				<stop  offset="0.0456" style="stop-color:#E84486"/>
				<stop  offset="0.4475" style="stop-color:#ED807A"/>
				<stop  offset="1" style="stop-color:#F5C135"/>
			</linearGradient>
			<polygon clip-path="url(#SVGID_10_)" fill="url(#SVGID_11_)" points="6.663,32.302 2.301,0.526 34.253,-3.86 38.615,27.917 			
				"/>
		</g>
		<g>
			<defs>
				<path id="SVGID_6_" d="M0.333,10.561c2.024-0.768,3.635,0.139,4.514,1.67c2.012,3.554-2.162,5.561,0.877,12.59
					c1.201,1.658,2.671,3.093,4.338,4.247c2.919,1.709,6.386,2.52,9.989,2.103c4.067-0.471,7.602-2.426,10.136-5.268
					c-1.529,0.878-3.256,1.465-5.116,1.681c-3.837,0.445-7.488-0.779-10.239-3.101c-0.515-0.434-0.998-0.906-1.445-1.413
					c-3.9-2.663-3.134-6.402-4.791-9.935C7.514,10.9,5.741,9.458,3.627,9.458C2.596,9.457,1.485,9.8,0.333,10.561"/>
			</defs>
			<clipPath id="SVGID_12_">
				<use xlink:href="#SVGID_6_"  overflow="visible"/>
			</clipPath>
			
				<linearGradient id="SVGID_13_" gradientUnits="userSpaceOnUse" x1="-8110.7642" y1="1408.9761" x2="-8110.5322" y2="1408.9761" gradientTransform="matrix(147.0349 57.6972 57.6972 -147.0349 1111266.5 675149.625)">
				<stop  offset="0" style="stop-color:#E43637"/>
				<stop  offset="0.0065" style="stop-color:#E43637"/>
				<stop  offset="0.2031" style="stop-color:#D43F53"/>
				<stop  offset="0.4695" style="stop-color:#BF4774"/>
				<stop  offset="0.6966" style="stop-color:#AE4C8A"/>
				<stop  offset="0.8723" style="stop-color:#A24D96"/>
				<stop  offset="0.9755" style="stop-color:#9E4E9A"/>
				<stop  offset="1" style="stop-color:#9E4E9A"/>
			</linearGradient>
			<polygon clip-path="url(#SVGID_12_)" fill="url(#SVGID_13_)" points="4.316,-0.694 37.712,12.411 26.203,41.74 -7.193,28.636 			
				"/>
		</g>
		<path fill="#1A1E2D" d="M34.412,20.314c-0.46,7.178-6.93,12.606-14.451,12.124c-7.521-0.482-13.245-6.692-12.785-13.87
			c0.46-7.178,6.93-12.606,14.451-12.124C29.148,6.926,34.871,13.136,34.412,20.314"/>
		<g>
			<defs>
				<path id="SVGID_5_" d="M20.251,25.108c0-1.466,1.275-2.655,2.849-2.655c1.574,0,2.849,1.189,2.849,2.655
					c0,1.466-1.275,2.655-2.849,2.655C21.526,27.763,20.251,26.574,20.251,25.108 M20.65,7.585c-3.756,0.224-6.656,2.14-7.349,2.744
					c-0.273,0.226-0.548,0.47-0.82,0.734c-0.011,0.01-0.021,0.021-0.032,0.031c-0.094,0.092-0.188,0.187-0.282,0.284
					c-0.044,0.046-0.088,0.093-0.132,0.139c-0.066,0.07-0.132,0.142-0.197,0.215c-0.048,0.053-0.095,0.107-0.142,0.161
					c-0.059,0.068-0.118,0.138-0.177,0.209c-0.045,0.054-0.091,0.11-0.135,0.165c-0.061,0.076-0.121,0.153-0.18,0.231
					c-0.039,0.051-0.077,0.102-0.115,0.153c-0.064,0.086-0.127,0.175-0.189,0.264c-0.031,0.044-0.062,0.089-0.093,0.134
					c-0.066,0.097-0.13,0.195-0.194,0.295c-0.025,0.04-0.051,0.079-0.075,0.119c-0.065,0.104-0.128,0.21-0.191,0.318
					c-0.022,0.038-0.044,0.075-0.065,0.113c-0.061,0.109-0.122,0.22-0.181,0.332c-0.02,0.038-0.04,0.076-0.059,0.115
					c-0.058,0.113-0.115,0.228-0.17,0.344c-0.018,0.037-0.035,0.075-0.052,0.112c-0.051,0.111-0.101,0.223-0.149,0.336
					c-0.004,0.01-0.007,0.019-0.011,0.028c-0.133,0.315-0.251,0.638-0.356,0.965c1.041-1.041,2.524-1.693,4.171-1.693
					c3.147,0,5.699,2.378,5.699,5.311c0,2.933-2.551,5.311-5.699,5.311c-1.667,0-3.167-0.667-4.209-1.731
					c1.445,5.002,5.766,9.128,11.259,9.64c0.008,0,0.015,0,0.023,0.001c7.57,0.054,13.724-5.649,13.724-12.69
					c0-2.733-0.927-5.264-2.504-7.335c4.071,5.441,0.1,11.965,0.1,11.965s1.753-3.437,0.475-7.442
					c-0.448-1.406-1.269-3.172-2.701-4.52c-2.146-2.02-4.2-2.81-6.118-3.184c-2.664-0.519-5.219-0.011-7.11,0.617
					c0,0,7.716-4.725,14.054,1.13c0.273,0.252,0.524,0.509,0.756,0.769c-2.359-2.703-5.895-4.711-9.869-4.711
					C21.119,7.564,20.885,7.571,20.65,7.585"/>
			</defs>
			<clipPath id="SVGID_14_">
				<use xlink:href="#SVGID_5_"  overflow="visible"/>
			</clipPath>
			<g clip-path="url(#SVGID_14_)">
				<g>
					<defs>
						<rect id="SVGID_15_" x="9.221" y="5.615" width="26.572" height="27.368"/>
					</defs>
					<clipPath id="SVGID_16_">
						<use xlink:href="#SVGID_15_"  overflow="visible"/>
					</clipPath>
					<g clip-path="url(#SVGID_16_)">
						<defs>
							<rect id="SVGID_17_" x="9.221" y="5.615" width="26.572" height="27.368"/>
						</defs>
						<clipPath id="SVGID_18_">
							<use xlink:href="#SVGID_17_"  overflow="visible"/>
						</clipPath>
						<g clip-path="url(#SVGID_18_)">
							
								<image overflow="visible" width="56" height="58" xlink:href="7F0F8E97.jpg"  transform="matrix(0.48 0 0 0.48 9.2214 5.6152)">
							</image>
						</g>
					</g>
				</g>
			</g>
		</g>
		<g opacity="0.61">
			<g>
				<defs>
					<rect id="SVGID_3_" x="17.15" y="10.309" width="15.302" height="19.977"/>
				</defs>
				<clipPath id="SVGID_19_">
					<use xlink:href="#SVGID_3_"  overflow="visible"/>
				</clipPath>
				<g clip-path="url(#SVGID_19_)">
					<defs>
						<path id="SVGID_4_" d="M23.237,10.31c-2.311-0.041-4.434,0.811-6.087,2.251c0.77-0.263,1.591-0.406,2.442-0.41
							c4.35-0.016,7.968,3.684,8.122,8.316c0.164,4.91-3.523,8.945-8.094,8.945c-0.135,0-0.269-0.003-0.401-0.011
							c1.177,0.568,2.484,0.884,3.859,0.884c5.221,0,9.445-4.549,9.372-10.13C32.381,14.786,28.276,10.399,23.237,10.31"/>
					</defs>
					<clipPath id="SVGID_20_">
						<use xlink:href="#SVGID_4_"  overflow="visible"/>
					</clipPath>
					
						<linearGradient id="SVGID_21_" gradientUnits="userSpaceOnUse" x1="-8039.6133" y1="1398.9163" x2="-8039.3813" y2="1398.9163" gradientTransform="matrix(65.926 0 0 -65.926 530036.6875 92245.2266)">
						<stop  offset="0" style="stop-color:#5E4C9D"/>
						<stop  offset="0.532" style="stop-color:#5D4D9D"/>
						<stop  offset="0.7253" style="stop-color:#5851A0"/>
						<stop  offset="0.863" style="stop-color:#4D58A5"/>
						<stop  offset="0.9556" style="stop-color:#3E5FAB"/>
						<stop  offset="1" style="stop-color:#3E5FAB"/>
					</linearGradient>
					<rect x="17.15" y="10.269" clip-path="url(#SVGID_20_)" fill="url(#SVGID_21_)" width="15.373" height="20.017"/>
				</g>
			</g>
		</g>
		<g>
			<defs>
				<path id="SVGID_2_" d="M30.164,4.074c0.122,0.136,0.24,0.275,0.357,0.416c0.037,0.044,0.073,0.088,0.109,0.133
					c0.039,0.048,0.079,0.095,0.117,0.143c0.002,0.004,0.005,0.009,0.007,0.013c1.86,2.335,3.11,5.208,3.469,8.4
					c0.547,4.855-1.078,9.446-4.093,12.79c-2.549,2.829-6.094,4.765-10.163,5.215c-3.605,0.399-7.068-0.43-9.977-2.156
					c-1.661-1.162-3.124-2.605-4.316-4.27c-1.598-2.229-1.983-3.513-2.653-5.476c-0.055,1.024-0.026,2.067,0.092,3.121
					C4.262,32.598,13.384,39.958,23.488,38.84c8.886-0.983,16.172-8.172,16.323-16.861c-1.464,2.987-4.046,5.446-5.138,5.843
					c2.302-2.794,4.309-6.064,4.08-11.386C38.452,9.394,31.58,4.864,30.442,4.23L30.44,4.229l0,0.001
					C30.277,4.125,30.18,4.07,30.165,4.07C30.163,4.07,30.163,4.071,30.164,4.074"/>
			</defs>
			<clipPath id="SVGID_22_">
				<use xlink:href="#SVGID_2_"  overflow="visible"/>
			</clipPath>
			
				<linearGradient id="SVGID_23_" gradientUnits="userSpaceOnUse" x1="-8106.02" y1="1391.8517" x2="-8105.7876" y2="1391.8517" gradientTransform="matrix(158.6181 0 0 -158.6181 1285764.375 220794.875)">
				<stop  offset="0" style="stop-color:#5A479A"/>
				<stop  offset="0.725" style="stop-color:#4174BA"/>
				<stop  offset="0.996" style="stop-color:#208ECF"/>
				<stop  offset="1" style="stop-color:#208ECF"/>
			</linearGradient>
			<rect x="2.968" y="4.07" clip-path="url(#SVGID_22_)" fill="url(#SVGID_23_)" width="36.844" height="35.887"/>
		</g>
		<path fill-rule="evenodd" clip-rule="evenodd" fill="#50C0DE" d="M30.164,4.074c3.118,1.715,6.625,4.571,7.23,9.815
			c0.596,5.167-5.264,17.123-15.325,18.236c-4.448,0.492-8.698-0.72-12.109-3.119c2.575,1.814,6.939,2.517,10.009,2.178
			c4.069-0.45,7.614-2.386,10.163-5.215c3.015-3.344,4.639-7.934,4.093-12.789C33.828,9.659,32.351,6.524,30.164,4.074"/>
	</g>
	<g>
		<path fill="#FFFFFF" d="M8.86,47.73c0-0.707-0.429-1.102-1.078-1.102c-0.661,0-1.079,0.394-1.079,1.102v3.491H4.43V47.73
			c0-0.707-0.417-1.102-1.067-1.102c-0.673,0-1.09,0.394-1.09,1.102v3.491H0v-6.506h2.273v0.858c0.371-0.522,1.009-0.916,1.89-0.916
			c0.974,0,1.739,0.44,2.168,1.194c0.441-0.661,1.206-1.194,2.169-1.194c1.647,0,2.633,1.067,2.633,2.771v3.792H8.86V47.73z"/>
		<path fill="#FFFFFF" d="M15.173,51.302c-1.925,0-3.305-1.264-3.305-3.34c0-2.064,1.357-3.328,3.305-3.328
			c1.925,0,3.282,1.241,3.282,3.259c0,0.174-0.012,0.36-0.035,0.533h-4.303c0.047,0.754,0.452,1.055,0.963,1.055
			c0.441,0,0.684-0.244,0.811-0.51h2.424C18.014,50.305,16.797,51.302,15.173,51.302 M14.13,47.324h2.006
			c0-0.58-0.452-0.893-0.974-0.893C14.617,46.431,14.234,46.733,14.13,47.324"/>
		<rect x="19.191" y="42.639" fill="#FFFFFF" width="2.273" height="8.581"/>
		<path fill="#FFFFFF" d="M25.504,51.302c-1.925,0-3.305-1.264-3.305-3.34c0-2.064,1.357-3.328,3.305-3.328
			c1.925,0,3.282,1.241,3.282,3.259c0,0.174-0.011,0.36-0.035,0.533h-4.302c0.046,0.754,0.452,1.055,0.963,1.055
			c0.441,0,0.684-0.244,0.812-0.51h2.424C28.345,50.305,27.128,51.302,25.504,51.302 M24.461,47.324h2.006
			c0-0.58-0.452-0.893-0.974-0.893C24.948,46.431,24.565,46.733,24.461,47.324"/>
		<path fill="#FFFFFF" d="M32.167,44.634c0.928,0,1.577,0.406,1.913,0.986v-0.905h2.273v6.506H34.08v-0.904
			c-0.336,0.58-0.997,0.986-1.913,0.986c-1.542,0-2.771-1.264-2.771-3.34C29.396,45.886,30.625,44.634,32.167,44.634 M32.898,46.617
			c-0.65,0-1.183,0.464-1.183,1.345c0,0.87,0.533,1.357,1.183,1.357c0.638,0,1.183-0.476,1.183-1.357
			C34.08,47.092,33.535,46.617,32.898,46.617"/>
		<path fill="#FFFFFF" d="M41.264,44.634c1.554,0,2.772,1.253,2.772,3.328c0,2.076-1.218,3.34-2.772,3.34
			c-0.916,0-1.554-0.417-1.902-0.986v4.012h-2.273v-9.614h2.273v0.905C39.698,45.04,40.359,44.634,41.264,44.634 M40.545,46.617
			c-0.638,0-1.183,0.475-1.183,1.345c0,0.881,0.545,1.357,1.183,1.357c0.638,0,1.182-0.487,1.182-1.357
			C41.728,47.081,41.183,46.617,40.545,46.617"/>
	</g>
</g>
</svg>
