<?xml version="1.0" encoding="utf-8"?>
<!-- Generator: Adobe Illustrator 17.0.0, SVG Export Plug-In . SVG Version: 6.00 Build 0)  -->
<!DOCTYPE svg PUBLIC "-//W3C//DTD SVG 1.1//EN" "http://www.w3.org/Graphics/SVG/1.1/DTD/svg11.dtd">
<svg version="1.1" id="圖層_1" xmlns="http://www.w3.org/2000/svg" xmlns:xlink="http://www.w3.org/1999/xlink" x="0px" y="0px"
	 width="44.035px" height="54.329px" viewBox="0 0 44.035 54.329" enable-background="new 0 0 44.035 54.329" xml:space="preserve">
<g>
	<g>
		<g>
			<defs>
				<path id="SVGID_1_" d="M13.371,23.074c-0.008-0.009-0.015-0.018-0.023-0.027c0,0-0.002-0.001-0.002-0.001
					C13.354,23.056,13.363,23.065,13.371,23.074"/>
			</defs>
			<clipPath id="SVGID_3_">
				<use xlink:href="#SVGID_1_"  overflow="visible"/>
			</clipPath>
			<g clip-path="url(#SVGID_3_)">
				<g>
					<defs>
						
							<rect id="SVGID_4_" x="13.342" y="23.043" transform="matrix(-0.9052 0.425 -0.425 -0.9052 35.2513 38.2587)" width="0.034" height="0.036"/>
					</defs>
					<clipPath id="SVGID_9_">
						<use xlink:href="#SVGID_4_"  overflow="visible"/>
					</clipPath>
					<polygon clip-path="url(#SVGID_9_)" fill="#61C0B7" points="13.343,23.037 13.365,23.084 13.336,23.084 13.336,23.037 					"/>
					
						<rect x="13.328" y="23.061" transform="matrix(-0.4244 -0.9055 0.9055 -0.4244 -1.8598 44.9392)" clip-path="url(#SVGID_9_)" fill="#61C0B7" width="0.052" height="0"/>
					
						<rect x="13.328" y="23.061" transform="matrix(-0.4244 -0.9055 0.9055 -0.4244 -1.8597 44.9392)" clip-path="url(#SVGID_9_)" fill="#61C0B7" width="0.052" height="0"/>
					
						<rect x="13.328" y="23.061" transform="matrix(-0.4244 -0.9055 0.9055 -0.4244 -1.8596 44.9393)" clip-path="url(#SVGID_9_)" fill="#61C0B7" width="0.052" height="0"/>
					
						<rect x="13.328" y="23.061" transform="matrix(-0.4244 -0.9055 0.9055 -0.4244 -1.8595 44.9393)" clip-path="url(#SVGID_9_)" fill="#61C0B7" width="0.052" height="0"/>
					
						<rect x="13.328" y="23.061" transform="matrix(-0.4244 -0.9055 0.9055 -0.4244 -1.8594 44.9394)" clip-path="url(#SVGID_9_)" fill="#60C0B7" width="0.052" height="0"/>
					
						<rect x="13.328" y="23.061" transform="matrix(-0.4244 -0.9055 0.9055 -0.4244 -1.8593 44.9395)" clip-path="url(#SVGID_9_)" fill="#60BFB8" width="0.052" height="0"/>
					
						<rect x="13.329" y="23.061" transform="matrix(-0.4244 -0.9055 0.9055 -0.4244 -1.8592 44.9395)" clip-path="url(#SVGID_9_)" fill="#60BFB8" width="0.052" height="0"/>
					
						<rect x="13.329" y="23.061" transform="matrix(-0.4244 -0.9055 0.9055 -0.4244 -1.8591 44.9396)" clip-path="url(#SVGID_9_)" fill="#60BFB8" width="0.052" height="0"/>
					
						<rect x="13.329" y="23.061" transform="matrix(-0.4244 -0.9055 0.9055 -0.4244 -1.859 44.9396)" clip-path="url(#SVGID_9_)" fill="#60BFB8" width="0.052" height="0"/>
					
						<rect x="13.329" y="23.061" transform="matrix(-0.4244 -0.9055 0.9055 -0.4244 -1.8589 44.9397)" clip-path="url(#SVGID_9_)" fill="#5FBEB8" width="0.052" height="0"/>
					
						<rect x="13.329" y="23.061" transform="matrix(-0.4244 -0.9055 0.9055 -0.4244 -1.8588 44.9397)" clip-path="url(#SVGID_9_)" fill="#5FBEB8" width="0.052" height="0"/>
					
						<rect x="13.329" y="23.061" transform="matrix(-0.4244 -0.9055 0.9055 -0.4244 -1.8588 44.9398)" clip-path="url(#SVGID_9_)" fill="#5FBDB8" width="0.052" height="0"/>
					
						<rect x="13.329" y="23.061" transform="matrix(-0.4244 -0.9055 0.9055 -0.4244 -1.8587 44.9399)" clip-path="url(#SVGID_9_)" fill="#5FBDB8" width="0.052" height="0"/>
					
						<rect x="13.329" y="23.061" transform="matrix(-0.4244 -0.9055 0.9055 -0.4244 -1.8586 44.9399)" clip-path="url(#SVGID_9_)" fill="#5FBDB9" width="0.052" height="0"/>
					
						<rect x="13.329" y="23.061" transform="matrix(-0.4244 -0.9055 0.9055 -0.4244 -1.8585 44.94)" clip-path="url(#SVGID_9_)" fill="#5EBCB9" width="0.052" height="0"/>
					
						<rect x="13.329" y="23.061" transform="matrix(-0.4244 -0.9055 0.9055 -0.4244 -1.8584 44.94)" clip-path="url(#SVGID_9_)" fill="#5EBCB9" width="0.052" height="0"/>
					
						<rect x="13.329" y="23.061" transform="matrix(-0.4244 -0.9055 0.9055 -0.4244 -1.8583 44.9401)" clip-path="url(#SVGID_9_)" fill="#5EBBB9" width="0.052" height="0"/>
					
						<rect x="13.329" y="23.061" transform="matrix(-0.4244 -0.9055 0.9055 -0.4244 -1.8582 44.9401)" clip-path="url(#SVGID_9_)" fill="#5EBBB9" width="0.052" height="0"/>
					
						<rect x="13.329" y="23.061" transform="matrix(-0.4244 -0.9055 0.9055 -0.4244 -1.8581 44.9402)" clip-path="url(#SVGID_9_)" fill="#5EBAB9" width="0.052" height="0"/>
					
						<rect x="13.329" y="23.061" transform="matrix(-0.4244 -0.9055 0.9055 -0.4244 -1.858 44.9403)" clip-path="url(#SVGID_9_)" fill="#5EBAB9" width="0.052" height="0"/>
					
						<rect x="13.329" y="23.061" transform="matrix(-0.4244 -0.9055 0.9055 -0.4244 -1.8579 44.9403)" clip-path="url(#SVGID_9_)" fill="#5DBAB9" width="0.052" height="0"/>
					
						<rect x="13.33" y="23.061" transform="matrix(-0.4244 -0.9055 0.9055 -0.4244 -1.8578 44.9404)" clip-path="url(#SVGID_9_)" fill="#5DB9B9" width="0.052" height="0"/>
					
						<rect x="13.33" y="23.061" transform="matrix(-0.4244 -0.9055 0.9055 -0.4244 -1.8578 44.9404)" clip-path="url(#SVGID_9_)" fill="#5DB9B9" width="0.052" height="0"/>
					
						<rect x="13.33" y="23.061" transform="matrix(-0.4244 -0.9055 0.9055 -0.4244 -1.8577 44.9405)" clip-path="url(#SVGID_9_)" fill="#5DB8BA" width="0.052" height="0"/>
					
						<rect x="13.33" y="23.061" transform="matrix(-0.4244 -0.9055 0.9055 -0.4244 -1.8576 44.9405)" clip-path="url(#SVGID_9_)" fill="#5CB8BA" width="0.052" height="0"/>
					
						<rect x="13.33" y="23.061" transform="matrix(-0.4244 -0.9055 0.9055 -0.4244 -1.8575 44.9406)" clip-path="url(#SVGID_9_)" fill="#5CB7BA" width="0.052" height="0"/>
					
						<rect x="13.33" y="23.061" transform="matrix(-0.4244 -0.9055 0.9055 -0.4244 -1.8574 44.9407)" clip-path="url(#SVGID_9_)" fill="#5CB7BA" width="0.052" height="0"/>
					
						<rect x="13.33" y="23.061" transform="matrix(-0.4244 -0.9055 0.9055 -0.4244 -1.8573 44.9407)" clip-path="url(#SVGID_9_)" fill="#5CB6BA" width="0.052" height="0"/>
					
						<rect x="13.33" y="23.061" transform="matrix(-0.4244 -0.9055 0.9055 -0.4244 -1.8572 44.9408)" clip-path="url(#SVGID_9_)" fill="#5CB6BA" width="0.052" height="0"/>
					
						<rect x="13.33" y="23.061" transform="matrix(-0.4244 -0.9055 0.9055 -0.4244 -1.8571 44.9408)" clip-path="url(#SVGID_9_)" fill="#5BB5BA" width="0.052" height="0"/>
					
						<rect x="13.33" y="23.061" transform="matrix(-0.4244 -0.9055 0.9055 -0.4244 -1.8571 44.9409)" clip-path="url(#SVGID_9_)" fill="#5BB5BA" width="0.052" height="0"/>
					
						<rect x="13.33" y="23.061" transform="matrix(-0.4244 -0.9055 0.9055 -0.4244 -1.857 44.9409)" clip-path="url(#SVGID_9_)" fill="#5BB4BA" width="0.052" height="0"/>
					
						<rect x="13.33" y="23.061" transform="matrix(-0.4244 -0.9055 0.9055 -0.4244 -1.8569 44.941)" clip-path="url(#SVGID_9_)" fill="#5BB4BB" width="0.052" height="0"/>
					
						<rect x="13.33" y="23.061" transform="matrix(-0.4244 -0.9055 0.9055 -0.4244 -1.8568 44.941)" clip-path="url(#SVGID_9_)" fill="#5BB3BB" width="0.052" height="0"/>
					
						<rect x="13.33" y="23.061" transform="matrix(-0.4244 -0.9055 0.9055 -0.4244 -1.8567 44.9411)" clip-path="url(#SVGID_9_)" fill="#5AB3BB" width="0.052" height="0"/>
					
						<rect x="13.33" y="23.061" transform="matrix(-0.4244 -0.9055 0.9055 -0.4244 -1.8566 44.9412)" clip-path="url(#SVGID_9_)" fill="#5AB2BB" width="0.052" height="0"/>
					
						<rect x="13.33" y="23.061" transform="matrix(-0.4244 -0.9055 0.9055 -0.4244 -1.8565 44.9412)" clip-path="url(#SVGID_9_)" fill="#5AB2BB" width="0.052" height="0"/>
					
						<rect x="13.331" y="23.061" transform="matrix(-0.4244 -0.9055 0.9055 -0.4244 -1.8564 44.9413)" clip-path="url(#SVGID_9_)" fill="#5AB1BB" width="0.052" height="0"/>
					
						<rect x="13.331" y="23.061" transform="matrix(-0.4244 -0.9055 0.9055 -0.4244 -1.8563 44.9413)" clip-path="url(#SVGID_9_)" fill="#59B1BB" width="0.052" height="0"/>
					
						<rect x="13.331" y="23.061" transform="matrix(-0.4244 -0.9055 0.9055 -0.4244 -1.8562 44.9414)" clip-path="url(#SVGID_9_)" fill="#59B0BB" width="0.052" height="0"/>
					
						<rect x="13.331" y="23.061" transform="matrix(-0.4244 -0.9055 0.9055 -0.4244 -1.8562 44.9415)" clip-path="url(#SVGID_9_)" fill="#59B0BB" width="0.052" height="0"/>
					
						<rect x="13.331" y="23.061" transform="matrix(-0.4244 -0.9055 0.9055 -0.4244 -1.8561 44.9415)" clip-path="url(#SVGID_9_)" fill="#59AFBB" width="0.052" height="0"/>
					
						<rect x="13.331" y="23.061" transform="matrix(-0.4244 -0.9055 0.9055 -0.4244 -1.856 44.9416)" clip-path="url(#SVGID_9_)" fill="#59AFBB" width="0.052" height="0"/>
					
						<rect x="13.331" y="23.061" transform="matrix(-0.4244 -0.9055 0.9055 -0.4244 -1.8559 44.9416)" clip-path="url(#SVGID_9_)" fill="#58AEBC" width="0.052" height="0"/>
					
						<rect x="13.331" y="23.061" transform="matrix(-0.4244 -0.9055 0.9055 -0.4244 -1.8558 44.9417)" clip-path="url(#SVGID_9_)" fill="#58ADBC" width="0.052" height="0"/>
					
						<rect x="13.331" y="23.061" transform="matrix(-0.4244 -0.9055 0.9055 -0.4244 -1.8557 44.9417)" clip-path="url(#SVGID_9_)" fill="#58ADBC" width="0.052" height="0"/>
					
						<rect x="13.331" y="23.061" transform="matrix(-0.4244 -0.9055 0.9055 -0.4244 -1.8556 44.9418)" clip-path="url(#SVGID_9_)" fill="#58ACBC" width="0.052" height="0"/>
					
						<rect x="13.331" y="23.061" transform="matrix(-0.4244 -0.9055 0.9055 -0.4244 -1.8555 44.9418)" clip-path="url(#SVGID_9_)" fill="#57ACBC" width="0.052" height="0"/>
					
						<rect x="13.331" y="23.061" transform="matrix(-0.4244 -0.9055 0.9055 -0.4244 -1.8555 44.9419)" clip-path="url(#SVGID_9_)" fill="#57ABBC" width="0.052" height="0"/>
					
						<rect x="13.331" y="23.061" transform="matrix(-0.4244 -0.9055 0.9055 -0.4244 -1.8553 44.942)" clip-path="url(#SVGID_9_)" fill="#57ABBC" width="0.052" height="0"/>
					
						<rect x="13.331" y="23.061" transform="matrix(-0.4244 -0.9055 0.9055 -0.4244 -1.8552 44.942)" clip-path="url(#SVGID_9_)" fill="#57AABC" width="0.052" height="0"/>
					
						<rect x="13.331" y="23.061" transform="matrix(-0.4244 -0.9055 0.9055 -0.4244 -1.8552 44.9421)" clip-path="url(#SVGID_9_)" fill="#56A9BC" width="0.052" height="0"/>
					
						<rect x="13.331" y="23.061" transform="matrix(-0.4244 -0.9055 0.9055 -0.4244 -1.8551 44.9421)" clip-path="url(#SVGID_9_)" fill="#56A9BC" width="0.052" height="0"/>
					
						<rect x="13.332" y="23.061" transform="matrix(-0.4244 -0.9055 0.9055 -0.4244 -1.855 44.9422)" clip-path="url(#SVGID_9_)" fill="#56A8BC" width="0.052" height="0"/>
					
						<rect x="13.332" y="23.061" transform="matrix(-0.4244 -0.9055 0.9055 -0.4244 -1.8549 44.9423)" clip-path="url(#SVGID_9_)" fill="#56A8BC" width="0.052" height="0"/>
					
						<rect x="13.332" y="23.061" transform="matrix(-0.4244 -0.9055 0.9055 -0.4244 -1.8548 44.9423)" clip-path="url(#SVGID_9_)" fill="#56A7BC" width="0.052" height="0"/>
					
						<rect x="13.332" y="23.061" transform="matrix(-0.4244 -0.9055 0.9055 -0.4244 -1.8547 44.9424)" clip-path="url(#SVGID_9_)" fill="#55A7BC" width="0.052" height="0"/>
					
						<rect x="13.332" y="23.061" transform="matrix(-0.4244 -0.9055 0.9055 -0.4244 -1.8546 44.9424)" clip-path="url(#SVGID_9_)" fill="#55A6BC" width="0.052" height="0"/>
					
						<rect x="13.332" y="23.061" transform="matrix(-0.4244 -0.9055 0.9055 -0.4244 -1.8545 44.9425)" clip-path="url(#SVGID_9_)" fill="#55A5BC" width="0.052" height="0"/>
					
						<rect x="13.332" y="23.061" transform="matrix(-0.4244 -0.9055 0.9055 -0.4244 -1.8545 44.9425)" clip-path="url(#SVGID_9_)" fill="#55A5BC" width="0.052" height="0"/>
					
						<rect x="13.332" y="23.061" transform="matrix(-0.4244 -0.9055 0.9055 -0.4244 -1.8544 44.9426)" clip-path="url(#SVGID_9_)" fill="#55A4BC" width="0.052" height="0"/>
					
						<rect x="13.332" y="23.061" transform="matrix(-0.4244 -0.9055 0.9055 -0.4244 -1.8543 44.9426)" clip-path="url(#SVGID_9_)" fill="#54A4BC" width="0.052" height="0"/>
					
						<rect x="13.332" y="23.061" transform="matrix(-0.4244 -0.9055 0.9055 -0.4244 -1.8542 44.9427)" clip-path="url(#SVGID_9_)" fill="#54A3BC" width="0.052" height="0"/>
					
						<rect x="13.332" y="23.061" transform="matrix(-0.4244 -0.9055 0.9055 -0.4244 -1.8541 44.9428)" clip-path="url(#SVGID_9_)" fill="#54A2BC" width="0.052" height="0"/>
					
						<rect x="13.332" y="23.061" transform="matrix(-0.4244 -0.9055 0.9055 -0.4244 -1.854 44.9428)" clip-path="url(#SVGID_9_)" fill="#54A2BD" width="0.052" height="0"/>
					
						<rect x="13.332" y="23.061" transform="matrix(-0.4244 -0.9055 0.9055 -0.4244 -1.8539 44.9429)" clip-path="url(#SVGID_9_)" fill="#53A1BD" width="0.052" height="0"/>
					
						<rect x="13.332" y="23.061" transform="matrix(-0.4244 -0.9055 0.9055 -0.4244 -1.8538 44.9429)" clip-path="url(#SVGID_9_)" fill="#53A1BD" width="0.052" height="0"/>
					
						<rect x="13.332" y="23.061" transform="matrix(-0.4244 -0.9055 0.9055 -0.4244 -1.8537 44.943)" clip-path="url(#SVGID_9_)" fill="#53A0BD" width="0.052" height="0"/>
					
						<rect x="13.332" y="23.061" transform="matrix(-0.4244 -0.9055 0.9055 -0.4244 -1.8536 44.9431)" clip-path="url(#SVGID_9_)" fill="#539FBD" width="0.052" height="0"/>
					
						<rect x="13.333" y="23.061" transform="matrix(-0.4244 -0.9055 0.9055 -0.4244 -1.8535 44.9431)" clip-path="url(#SVGID_9_)" fill="#539FBD" width="0.052" height="0"/>
					
						<rect x="13.333" y="23.061" transform="matrix(-0.4244 -0.9055 0.9055 -0.4244 -1.8535 44.9432)" clip-path="url(#SVGID_9_)" fill="#529EBD" width="0.052" height="0"/>
					
						<rect x="13.333" y="23.061" transform="matrix(-0.4244 -0.9055 0.9055 -0.4244 -1.8534 44.9432)" clip-path="url(#SVGID_9_)" fill="#529DBD" width="0.052" height="0"/>
					
						<rect x="13.333" y="23.061" transform="matrix(-0.4244 -0.9055 0.9055 -0.4244 -1.8533 44.9433)" clip-path="url(#SVGID_9_)" fill="#529DBD" width="0.052" height="0"/>
					
						<rect x="13.333" y="23.061" transform="matrix(-0.4244 -0.9055 0.9055 -0.4244 -1.8532 44.9433)" clip-path="url(#SVGID_9_)" fill="#529CBD" width="0.052" height="0"/>
					
						<rect x="13.333" y="23.061" transform="matrix(-0.4244 -0.9055 0.9055 -0.4244 -1.8531 44.9434)" clip-path="url(#SVGID_9_)" fill="#519BBD" width="0.052" height="0"/>
					
						<rect x="13.333" y="23.061" transform="matrix(-0.4244 -0.9055 0.9055 -0.4244 -1.853 44.9434)" clip-path="url(#SVGID_9_)" fill="#519BBD" width="0.052" height="0"/>
					
						<rect x="13.333" y="23.061" transform="matrix(-0.4244 -0.9055 0.9055 -0.4244 -1.8529 44.9435)" clip-path="url(#SVGID_9_)" fill="#519ABD" width="0.052" height="0"/>
					
						<rect x="13.333" y="23.061" transform="matrix(-0.4244 -0.9055 0.9055 -0.4244 -1.8528 44.9436)" clip-path="url(#SVGID_9_)" fill="#5199BD" width="0.052" height="0"/>
					
						<rect x="13.333" y="23.061" transform="matrix(-0.4244 -0.9055 0.9055 -0.4244 -1.8527 44.9436)" clip-path="url(#SVGID_9_)" fill="#5199BD" width="0.052" height="0"/>
					
						<rect x="13.333" y="23.061" transform="matrix(-0.4244 -0.9055 0.9055 -0.4244 -1.8526 44.9437)" clip-path="url(#SVGID_9_)" fill="#5098BD" width="0.052" height="0"/>
					
						<rect x="13.333" y="23.061" transform="matrix(-0.4244 -0.9055 0.9055 -0.4244 -1.8525 44.9437)" clip-path="url(#SVGID_9_)" fill="#5098BC" width="0.052" height="0"/>
					
						<rect x="13.333" y="23.061" transform="matrix(-0.4244 -0.9055 0.9055 -0.4244 -1.8525 44.9438)" clip-path="url(#SVGID_9_)" fill="#5097BC" width="0.052" height="0"/>
					
						<rect x="13.333" y="23.061" transform="matrix(-0.4244 -0.9055 0.9055 -0.4244 -1.8524 44.9439)" clip-path="url(#SVGID_9_)" fill="#5096BC" width="0.052" height="0"/>
					
						<rect x="13.333" y="23.061" transform="matrix(-0.4244 -0.9055 0.9055 -0.4244 -1.8523 44.9439)" clip-path="url(#SVGID_9_)" fill="#4F96BC" width="0.052" height="0"/>
					
						<rect x="13.333" y="23.061" transform="matrix(-0.4244 -0.9055 0.9055 -0.4244 -1.8522 44.944)" clip-path="url(#SVGID_9_)" fill="#4F95BC" width="0.052" height="0"/>
					
						<rect x="13.334" y="23.061" transform="matrix(-0.4244 -0.9055 0.9055 -0.4244 -1.8521 44.944)" clip-path="url(#SVGID_9_)" fill="#4F94BC" width="0.052" height="0"/>
					
						<rect x="13.334" y="23.061" transform="matrix(-0.4244 -0.9055 0.9055 -0.4244 -1.852 44.9441)" clip-path="url(#SVGID_9_)" fill="#4F94BC" width="0.052" height="0"/>
					
						<rect x="13.334" y="23.061" transform="matrix(-0.4244 -0.9055 0.9055 -0.4244 -1.8519 44.9441)" clip-path="url(#SVGID_9_)" fill="#4F93BC" width="0.052" height="0"/>
					
						<rect x="13.334" y="23.061" transform="matrix(-0.4244 -0.9055 0.9055 -0.4244 -1.8518 44.9442)" clip-path="url(#SVGID_9_)" fill="#4F92BC" width="0.052" height="0"/>
					
						<rect x="13.334" y="23.061" transform="matrix(-0.4244 -0.9055 0.9055 -0.4244 -1.8518 44.9442)" clip-path="url(#SVGID_9_)" fill="#4E91BC" width="0.052" height="0"/>
					
						<rect x="13.334" y="23.061" transform="matrix(-0.4244 -0.9055 0.9055 -0.4244 -1.8517 44.9443)" clip-path="url(#SVGID_9_)" fill="#4E91BC" width="0.052" height="0"/>
					
						<rect x="13.334" y="23.061" transform="matrix(-0.4244 -0.9055 0.9055 -0.4244 -1.8516 44.9444)" clip-path="url(#SVGID_9_)" fill="#4E90BC" width="0.052" height="0"/>
					
						<rect x="13.334" y="23.061" transform="matrix(-0.4244 -0.9055 0.9055 -0.4244 -1.8515 44.9444)" clip-path="url(#SVGID_9_)" fill="#4E8FBC" width="0.052" height="0"/>
					
						<rect x="13.334" y="23.061" transform="matrix(-0.4244 -0.9055 0.9055 -0.4244 -1.8514 44.9445)" clip-path="url(#SVGID_9_)" fill="#4E8FBC" width="0.052" height="0"/>
					
						<rect x="13.334" y="23.061" transform="matrix(-0.4244 -0.9055 0.9055 -0.4244 -1.8513 44.9445)" clip-path="url(#SVGID_9_)" fill="#4E8EBC" width="0.052" height="0"/>
					
						<rect x="13.334" y="23.061" transform="matrix(-0.4244 -0.9055 0.9055 -0.4244 -1.8512 44.9446)" clip-path="url(#SVGID_9_)" fill="#4D8DBC" width="0.052" height="0"/>
					
						<rect x="13.334" y="23.061" transform="matrix(-0.4244 -0.9055 0.9055 -0.4244 -1.8511 44.9447)" clip-path="url(#SVGID_9_)" fill="#4D8CBB" width="0.052" height="0"/>
					
						<rect x="13.334" y="23.061" transform="matrix(-0.4244 -0.9055 0.9055 -0.4244 -1.851 44.9447)" clip-path="url(#SVGID_9_)" fill="#4D8CBB" width="0.052" height="0"/>
					
						<rect x="13.334" y="23.061" transform="matrix(-0.4244 -0.9055 0.9055 -0.4244 -1.8509 44.9448)" clip-path="url(#SVGID_9_)" fill="#4D8BBB" width="0.052" height="0"/>
					
						<rect x="13.334" y="23.061" transform="matrix(-0.4244 -0.9055 0.9055 -0.4244 -1.8508 44.9448)" clip-path="url(#SVGID_9_)" fill="#4D8ABB" width="0.052" height="0"/>
					
						<rect x="13.334" y="23.061" transform="matrix(-0.4244 -0.9055 0.9055 -0.4244 -1.8508 44.9449)" clip-path="url(#SVGID_9_)" fill="#4D8ABB" width="0.052" height="0"/>
					
						<rect x="13.335" y="23.061" transform="matrix(-0.4244 -0.9055 0.9055 -0.4244 -1.8507 44.9449)" clip-path="url(#SVGID_9_)" fill="#4D89BB" width="0.052" height="0"/>
					
						<rect x="13.335" y="23.061" transform="matrix(-0.4244 -0.9055 0.9055 -0.4244 -1.8506 44.945)" clip-path="url(#SVGID_9_)" fill="#4C88BB" width="0.052" height="0"/>
					
						<rect x="13.335" y="23.061" transform="matrix(-0.4244 -0.9055 0.9055 -0.4244 -1.8505 44.945)" clip-path="url(#SVGID_9_)" fill="#4C87BB" width="0.052" height="0"/>
					
						<rect x="13.335" y="23.061" transform="matrix(-0.4244 -0.9055 0.9055 -0.4244 -1.8504 44.9451)" clip-path="url(#SVGID_9_)" fill="#4C87BA" width="0.052" height="0"/>
					
						<rect x="13.335" y="23.061" transform="matrix(-0.4244 -0.9055 0.9055 -0.4244 -1.8503 44.9452)" clip-path="url(#SVGID_9_)" fill="#4C86BA" width="0.052" height="0"/>
					
						<rect x="13.335" y="23.061" transform="matrix(-0.4244 -0.9055 0.9055 -0.4244 -1.8502 44.9452)" clip-path="url(#SVGID_9_)" fill="#4C85BA" width="0.052" height="0"/>
					
						<rect x="13.335" y="23.061" transform="matrix(-0.4244 -0.9055 0.9055 -0.4244 -1.8502 44.9453)" clip-path="url(#SVGID_9_)" fill="#4C84BA" width="0.052" height="0"/>
					
						<rect x="13.335" y="23.061" transform="matrix(-0.4244 -0.9055 0.9055 -0.4244 -1.85 44.9454)" clip-path="url(#SVGID_9_)" fill="#4B84BA" width="0.052" height="0"/>
					
						<rect x="13.335" y="23.061" transform="matrix(-0.4244 -0.9055 0.9055 -0.4244 -1.8499 44.9454)" clip-path="url(#SVGID_9_)" fill="#4B83BA" width="0.052" height="0"/>
					
						<rect x="13.335" y="23.061" transform="matrix(-0.4244 -0.9055 0.9055 -0.4244 -1.8498 44.9455)" clip-path="url(#SVGID_9_)" fill="#4B82BA" width="0.052" height="0"/>
					
						<rect x="13.335" y="23.061" transform="matrix(-0.4244 -0.9055 0.9055 -0.4244 -1.8498 44.9455)" clip-path="url(#SVGID_9_)" fill="#4B81B9" width="0.052" height="0"/>
					
						<rect x="13.335" y="23.061" transform="matrix(-0.4244 -0.9055 0.9055 -0.4244 -1.8497 44.9456)" clip-path="url(#SVGID_9_)" fill="#4B81B9" width="0.052" height="0"/>
					
						<rect x="13.335" y="23.061" transform="matrix(-0.4244 -0.9055 0.9055 -0.4244 -1.8496 44.9456)" clip-path="url(#SVGID_9_)" fill="#4B80B9" width="0.052" height="0"/>
					
						<rect x="13.335" y="23.061" transform="matrix(-0.4244 -0.9055 0.9055 -0.4244 -1.8495 44.9457)" clip-path="url(#SVGID_9_)" fill="#4B7FB9" width="0.052" height="0"/>
					
						<rect x="13.335" y="23.061" transform="matrix(-0.4244 -0.9055 0.9055 -0.4244 -1.8494 44.9457)" clip-path="url(#SVGID_9_)" fill="#4B7EB9" width="0.052" height="0"/>
					
						<rect x="13.335" y="23.061" transform="matrix(-0.4244 -0.9055 0.9055 -0.4244 -1.8493 44.9458)" clip-path="url(#SVGID_9_)" fill="#4A7EB9" width="0.052" height="0"/>
					
						<rect x="13.336" y="23.061" transform="matrix(-0.4244 -0.9055 0.9055 -0.4244 -1.8492 44.9459)" clip-path="url(#SVGID_9_)" fill="#4A7DB8" width="0.052" height="0"/>
					
						<rect x="13.336" y="23.061" transform="matrix(-0.4244 -0.9055 0.9055 -0.4244 -1.8492 44.9459)" clip-path="url(#SVGID_9_)" fill="#4A7CB8" width="0.052" height="0"/>
					
						<rect x="13.336" y="23.061" transform="matrix(-0.4244 -0.9055 0.9055 -0.4244 -1.8491 44.946)" clip-path="url(#SVGID_9_)" fill="#4A7BB8" width="0.052" height="0"/>
					
						<rect x="13.336" y="23.061" transform="matrix(-0.4244 -0.9055 0.9055 -0.4244 -1.849 44.946)" clip-path="url(#SVGID_9_)" fill="#4A7AB8" width="0.052" height="0"/>
					
						<rect x="13.336" y="23.061" transform="matrix(-0.4244 -0.9055 0.9055 -0.4244 -1.8489 44.9461)" clip-path="url(#SVGID_9_)" fill="#4A7AB8" width="0.052" height="0"/>
					
						<rect x="13.336" y="23.061" transform="matrix(-0.4244 -0.9055 0.9055 -0.4244 -1.8488 44.9461)" clip-path="url(#SVGID_9_)" fill="#4A79B7" width="0.052" height="0"/>
					
						<rect x="13.336" y="23.061" transform="matrix(-0.4244 -0.9055 0.9055 -0.4244 -1.8487 44.9462)" clip-path="url(#SVGID_9_)" fill="#4978B7" width="0.052" height="0"/>
					
						<rect x="13.336" y="23.061" transform="matrix(-0.4244 -0.9055 0.9055 -0.4244 -1.8486 44.9463)" clip-path="url(#SVGID_9_)" fill="#4977B7" width="0.052" height="0"/>
					
						<rect x="13.336" y="23.061" transform="matrix(-0.4244 -0.9055 0.9055 -0.4244 -1.8485 44.9463)" clip-path="url(#SVGID_9_)" fill="#4977B7" width="0.052" height="0"/>
					
						<rect x="13.336" y="23.061" transform="matrix(-0.4244 -0.9055 0.9055 -0.4244 -1.8484 44.9464)" clip-path="url(#SVGID_9_)" fill="#4976B7" width="0.052" height="0"/>
					
						<rect x="13.336" y="23.061" transform="matrix(-0.4244 -0.9055 0.9055 -0.4244 -1.8483 44.9464)" clip-path="url(#SVGID_9_)" fill="#4975B6" width="0.052" height="0"/>
					
						<rect x="13.336" y="23.061" transform="matrix(-0.4244 -0.9055 0.9055 -0.4244 -1.8482 44.9465)" clip-path="url(#SVGID_9_)" fill="#4974B6" width="0.052" height="0"/>
					
						<rect x="13.336" y="23.061" transform="matrix(-0.4244 -0.9055 0.9055 -0.4244 -1.8482 44.9465)" clip-path="url(#SVGID_9_)" fill="#4873B6" width="0.052" height="0"/>
					
						<rect x="13.336" y="23.061" transform="matrix(-0.4244 -0.9055 0.9055 -0.4244 -1.8481 44.9466)" clip-path="url(#SVGID_9_)" fill="#4873B6" width="0.052" height="0"/>
					
						<rect x="13.336" y="23.061" transform="matrix(-0.4244 -0.9055 0.9055 -0.4244 -1.848 44.9467)" clip-path="url(#SVGID_9_)" fill="#4872B6" width="0.052" height="0"/>
					
						<rect x="13.336" y="23.061" transform="matrix(-0.4244 -0.9055 0.9055 -0.4244 -1.8479 44.9467)" clip-path="url(#SVGID_9_)" fill="#4871B5" width="0.052" height="0"/>
					
						<rect x="13.337" y="23.061" transform="matrix(-0.4244 -0.9055 0.9055 -0.4244 -1.8478 44.9468)" clip-path="url(#SVGID_9_)" fill="#4870B5" width="0.052" height="0"/>
					
						<rect x="13.337" y="23.061" transform="matrix(-0.4244 -0.9055 0.9055 -0.4244 -1.8477 44.9468)" clip-path="url(#SVGID_9_)" fill="#486FB5" width="0.052" height="0"/>
					
						<rect x="13.337" y="23.061" transform="matrix(-0.4244 -0.9055 0.9055 -0.4244 -1.8476 44.9469)" clip-path="url(#SVGID_9_)" fill="#486FB5" width="0.052" height="0"/>
					
						<rect x="13.337" y="23.061" transform="matrix(-0.4244 -0.9055 0.9055 -0.4244 -1.8475 44.9469)" clip-path="url(#SVGID_9_)" fill="#476EB4" width="0.052" height="0"/>
					
						<rect x="13.337" y="23.061" transform="matrix(-0.4244 -0.9055 0.9055 -0.4244 -1.8475 44.947)" clip-path="url(#SVGID_9_)" fill="#476DB4" width="0.052" height="0"/>
					
						<rect x="13.337" y="23.061" transform="matrix(-0.4244 -0.9055 0.9055 -0.4244 -1.8473 44.9471)" clip-path="url(#SVGID_9_)" fill="#476CB4" width="0.052" height="0"/>
					
						<rect x="13.337" y="23.061" transform="matrix(-0.4244 -0.9055 0.9055 -0.4244 -1.8472 44.9471)" clip-path="url(#SVGID_9_)" fill="#476BB3" width="0.052" height="0"/>
					
						<rect x="13.337" y="23.061" transform="matrix(-0.4244 -0.9055 0.9055 -0.4244 -1.8471 44.9472)" clip-path="url(#SVGID_9_)" fill="#476BB3" width="0.052" height="0"/>
					
						<rect x="13.337" y="23.061" transform="matrix(-0.4244 -0.9055 0.9055 -0.4244 -1.847 44.9473)" clip-path="url(#SVGID_9_)" fill="#496CB3" width="0.052" height="0"/>
					
						<rect x="13.337" y="23.061" transform="matrix(-0.4244 -0.9055 0.9055 -0.4244 -1.8468 44.9474)" clip-path="url(#SVGID_9_)" fill="#4A6CB3" width="0.052" height="0"/>
					
						<rect x="13.337" y="23.061" transform="matrix(-0.4244 -0.9055 0.9055 -0.4244 -1.8466 44.9475)" clip-path="url(#SVGID_9_)" fill="#4C6CB4" width="0.052" height="0"/>
					
						<rect x="13.337" y="23.061" transform="matrix(-0.4244 -0.9055 0.9055 -0.4244 -1.8465 44.9476)" clip-path="url(#SVGID_9_)" fill="#4D6DB4" width="0.052" height="0"/>
					
						<rect x="13.338" y="23.061" transform="matrix(-0.4244 -0.9055 0.9055 -0.4244 -1.8463 44.9477)" clip-path="url(#SVGID_9_)" fill="#4F6DB4" width="0.052" height="0"/>
					
						<rect x="13.338" y="23.061" transform="matrix(-0.4244 -0.9055 0.9055 -0.4244 -1.8462 44.9478)" clip-path="url(#SVGID_9_)" fill="#506DB4" width="0.052" height="0"/>
					
						<rect x="13.338" y="23.061" transform="matrix(-0.4244 -0.9055 0.9055 -0.4244 -1.846 44.9479)" clip-path="url(#SVGID_9_)" fill="#516EB4" width="0.052" height="0"/>
					
						<rect x="13.338" y="23.061" transform="matrix(-0.4244 -0.9055 0.9055 -0.4244 -1.8458 44.948)" clip-path="url(#SVGID_9_)" fill="#536EB4" width="0.052" height="0"/>
					
						<rect x="13.338" y="23.061" transform="matrix(-0.4244 -0.9055 0.9055 -0.4244 -1.8457 44.9481)" clip-path="url(#SVGID_9_)" fill="#546EB4" width="0.052" height="0"/>
					
						<rect x="13.338" y="23.061" transform="matrix(-0.4244 -0.9055 0.9055 -0.4244 -1.8455 44.9482)" clip-path="url(#SVGID_9_)" fill="#556FB5" width="0.052" height="0"/>
					
						<rect x="13.338" y="23.061" transform="matrix(-0.4244 -0.9055 0.9055 -0.4244 -1.8453 44.9483)" clip-path="url(#SVGID_9_)" fill="#576FB5" width="0.052" height="0"/>
					
						<rect x="13.338" y="23.061" transform="matrix(-0.4244 -0.9055 0.9055 -0.4244 -1.8452 44.9484)" clip-path="url(#SVGID_9_)" fill="#5870B5" width="0.052" height="0"/>
					
						<rect x="13.339" y="23.061" transform="matrix(-0.4244 -0.9055 0.9055 -0.4244 -1.845 44.9485)" clip-path="url(#SVGID_9_)" fill="#5970B5" width="0.052" height="0"/>
					
						<rect x="13.339" y="23.061" transform="matrix(-0.4244 -0.9055 0.9055 -0.4244 -1.8448 44.9486)" clip-path="url(#SVGID_9_)" fill="#5A70B5" width="0.052" height="0"/>
					
						<rect x="13.339" y="23.061" transform="matrix(-0.4244 -0.9055 0.9055 -0.4244 -1.8447 44.9487)" clip-path="url(#SVGID_9_)" fill="#5C71B5" width="0.052" height="0"/>
					
						<rect x="13.339" y="23.061" transform="matrix(-0.4244 -0.9055 0.9055 -0.4244 -1.8445 44.9488)" clip-path="url(#SVGID_9_)" fill="#5D71B5" width="0.052" height="0"/>
					
						<rect x="13.339" y="23.061" transform="matrix(-0.4244 -0.9055 0.9055 -0.4244 -1.8444 44.9489)" clip-path="url(#SVGID_9_)" fill="#5E71B6" width="0.052" height="0"/>
					
						<rect x="13.339" y="23.061" transform="matrix(-0.4244 -0.9055 0.9055 -0.4244 -1.8442 44.9491)" clip-path="url(#SVGID_9_)" fill="#5F72B6" width="0.052" height="0"/>
					
						<rect x="13.339" y="23.061" transform="matrix(-0.4244 -0.9055 0.9055 -0.4244 -1.844 44.9492)" clip-path="url(#SVGID_9_)" fill="#6072B6" width="0.052" height="0"/>
					
						<rect x="13.339" y="23.061" transform="matrix(-0.4244 -0.9055 0.9055 -0.4244 -1.8439 44.9492)" clip-path="url(#SVGID_9_)" fill="#6272B6" width="0.052" height="0"/>
					
						<rect x="13.339" y="23.061" transform="matrix(-0.4244 -0.9055 0.9055 -0.4244 -1.8437 44.9494)" clip-path="url(#SVGID_9_)" fill="#6373B6" width="0.052" height="0"/>
					
						<rect x="13.34" y="23.061" transform="matrix(-0.4244 -0.9055 0.9055 -0.4244 -1.8435 44.9495)" clip-path="url(#SVGID_9_)" fill="#6473B6" width="0.052" height="0"/>
					
						<rect x="13.34" y="23.061" transform="matrix(-0.4244 -0.9055 0.9055 -0.4244 -1.8434 44.9496)" clip-path="url(#SVGID_9_)" fill="#6573B6" width="0.052" height="0"/>
					
						<rect x="13.34" y="23.061" transform="matrix(-0.4244 -0.9055 0.9055 -0.4244 -1.8432 44.9497)" clip-path="url(#SVGID_9_)" fill="#6674B7" width="0.052" height="0"/>
					
						<rect x="13.34" y="23.061" transform="matrix(-0.4244 -0.9055 0.9055 -0.4244 -1.8431 44.9498)" clip-path="url(#SVGID_9_)" fill="#6774B7" width="0.052" height="0"/>
					
						<rect x="13.34" y="23.061" transform="matrix(-0.4244 -0.9055 0.9055 -0.4244 -1.8429 44.9499)" clip-path="url(#SVGID_9_)" fill="#6875B7" width="0.052" height="0"/>
					
						<rect x="13.34" y="23.061" transform="matrix(-0.4244 -0.9055 0.9055 -0.4244 -1.8427 44.95)" clip-path="url(#SVGID_9_)" fill="#6975B7" width="0.052" height="0"/>
					
						<rect x="13.34" y="23.061" transform="matrix(-0.4244 -0.9055 0.9055 -0.4244 -1.8426 44.9501)" clip-path="url(#SVGID_9_)" fill="#6A75B7" width="0.052" height="0"/>
					
						<rect x="13.34" y="23.061" transform="matrix(-0.4244 -0.9055 0.9055 -0.4244 -1.8424 44.9502)" clip-path="url(#SVGID_9_)" fill="#6C76B7" width="0.052" height="0"/>
					
						<rect x="13.34" y="23.061" transform="matrix(-0.4244 -0.9055 0.9055 -0.4244 -1.8422 44.9503)" clip-path="url(#SVGID_9_)" fill="#6D76B7" width="0.052" height="0"/>
					
						<rect x="13.341" y="23.061" transform="matrix(-0.4244 -0.9055 0.9055 -0.4244 -1.8421 44.9504)" clip-path="url(#SVGID_9_)" fill="#6E76B7" width="0.052" height="0"/>
					
						<rect x="13.341" y="23.061" transform="matrix(-0.4244 -0.9055 0.9055 -0.4244 -1.8419 44.9505)" clip-path="url(#SVGID_9_)" fill="#6F77B8" width="0.052" height="0"/>
					
						<rect x="13.341" y="23.061" transform="matrix(-0.4244 -0.9055 0.9055 -0.4244 -1.8418 44.9506)" clip-path="url(#SVGID_9_)" fill="#7077B8" width="0.052" height="0"/>
					
						<rect x="13.341" y="23.061" transform="matrix(-0.4244 -0.9055 0.9055 -0.4244 -1.8416 44.9507)" clip-path="url(#SVGID_9_)" fill="#7177B8" width="0.052" height="0"/>
					
						<rect x="13.341" y="23.061" transform="matrix(-0.4244 -0.9055 0.9055 -0.4244 -1.8414 44.9508)" clip-path="url(#SVGID_9_)" fill="#7278B8" width="0.052" height="0"/>
					
						<rect x="13.341" y="23.061" transform="matrix(-0.4244 -0.9055 0.9055 -0.4244 -1.8413 44.9509)" clip-path="url(#SVGID_9_)" fill="#7378B8" width="0.052" height="0"/>
					
						<rect x="13.341" y="23.061" transform="matrix(-0.4244 -0.9055 0.9055 -0.4244 -1.8411 44.951)" clip-path="url(#SVGID_9_)" fill="#7478B8" width="0.052" height="0"/>
					
						<rect x="13.341" y="23.061" transform="matrix(-0.4244 -0.9055 0.9055 -0.4244 -1.8409 44.9511)" clip-path="url(#SVGID_9_)" fill="#7479B8" width="0.052" height="0"/>
					
						<rect x="13.341" y="23.061" transform="matrix(-0.4244 -0.9055 0.9055 -0.4244 -1.8408 44.9512)" clip-path="url(#SVGID_9_)" fill="#7579B9" width="0.052" height="0"/>
					
						<rect x="13.342" y="23.061" transform="matrix(-0.4244 -0.9055 0.9055 -0.4244 -1.8406 44.9513)" clip-path="url(#SVGID_9_)" fill="#7679B9" width="0.052" height="0"/>
					
						<rect x="13.342" y="23.061" transform="matrix(-0.4244 -0.9055 0.9055 -0.4244 -1.8405 44.9514)" clip-path="url(#SVGID_9_)" fill="#7779B9" width="0.052" height="0"/>
					
						<rect x="13.342" y="23.061" transform="matrix(-0.4244 -0.9055 0.9055 -0.4244 -1.8403 44.9515)" clip-path="url(#SVGID_9_)" fill="#787AB9" width="0.052" height="0"/>
					
						<rect x="13.342" y="23.061" transform="matrix(-0.4244 -0.9055 0.9055 -0.4244 -1.8401 44.9517)" clip-path="url(#SVGID_9_)" fill="#797AB9" width="0.052" height="0"/>
					
						<rect x="13.342" y="23.061" transform="matrix(-0.4244 -0.9055 0.9055 -0.4244 -1.84 44.9517)" clip-path="url(#SVGID_9_)" fill="#7A7AB9" width="0.052" height="0"/>
					
						<rect x="13.342" y="23.061" transform="matrix(-0.4244 -0.9055 0.9055 -0.4244 -1.8398 44.9518)" clip-path="url(#SVGID_9_)" fill="#7A7AB9" width="0.052" height="0"/>
					<polygon clip-path="url(#SVGID_9_)" fill="#7A7AB9" points="13.379,23.084 13.357,23.037 13.382,23.037 13.382,23.084 					"/>
				</g>
			</g>
		</g>
		<g>
			<defs>
				<path id="SVGID_10_" d="M6.133,3.348c7.643-0.113,11.156,3.737,12.203,7.587c1.061,3.903-0.412,7.805-2.686,7.58
					c-4.289-0.425-5.563-6.357-5.563-6.357c-0.151,1.118-0.164,2.274-0.026,3.448c0.881,7.475,7.6,12.838,15.009,11.979
					c1.86-0.216,3.587-0.803,5.116-1.681c2.997-3.36,4.597-7.959,4.025-12.811c-0.415-3.518-1.909-6.644-4.108-9.083
					c1.681,2.658,1.319,4.458,1.319,4.458C28.078,2.886,22.733,0,16.956,0C13.389,0.001,9.657,1.101,6.133,3.348"/>
			</defs>
			<clipPath id="SVGID_11_">
				<use xlink:href="#SVGID_10_"  overflow="visible"/>
			</clipPath>
			<g clip-path="url(#SVGID_11_)">
				<g>
					<defs>
						
							<rect id="SVGID_12_" x="4.421" y="-1.905" transform="matrix(0.136 0.9907 -0.9907 0.136 31.765 -7.9806)" width="32.075" height="32.252"/>
					</defs>
					<clipPath id="SVGID_13_">
						<use xlink:href="#SVGID_12_"  overflow="visible"/>
					</clipPath>
					<polygon clip-path="url(#SVGID_13_)" fill="#E84486" points="16.731,32.302 38.615,29.299 38.615,32.302 					"/>
					<polygon clip-path="url(#SVGID_13_)" fill="#E84486" points="2.301,32.234 38.615,27.25 38.615,29.299 16.731,32.302 
						2.301,32.302 					"/>
					<polygon clip-path="url(#SVGID_13_)" fill="#E84486" points="2.301,31.997 38.615,27.013 38.615,27.25 2.301,32.234 					"/>
					<polygon clip-path="url(#SVGID_13_)" fill="#E84586" points="2.301,31.761 38.615,26.776 38.615,27.013 2.301,31.997 					"/>
					<polygon clip-path="url(#SVGID_13_)" fill="#E84686" points="2.301,31.524 38.615,26.54 38.615,26.776 2.301,31.761 					"/>
					<polygon clip-path="url(#SVGID_13_)" fill="#E84786" points="2.301,31.287 38.615,26.303 38.615,26.54 2.301,31.524 					"/>
					<polygon clip-path="url(#SVGID_13_)" fill="#E84886" points="2.301,31.051 38.615,26.066 38.615,26.303 2.301,31.287 					"/>
					<polygon clip-path="url(#SVGID_13_)" fill="#E84986" points="2.301,30.814 38.615,25.83 38.615,26.066 2.301,31.051 					"/>
					<polygon clip-path="url(#SVGID_13_)" fill="#E84986" points="2.301,30.577 38.615,25.593 38.615,25.83 2.301,30.814 					"/>
					<polygon clip-path="url(#SVGID_13_)" fill="#E84A86" points="2.301,30.34 38.615,25.356 38.615,25.593 2.301,30.577 					"/>
					<polygon clip-path="url(#SVGID_13_)" fill="#E84B86" points="2.301,30.104 38.615,25.12 38.615,25.356 2.301,30.34 					"/>
					<polygon clip-path="url(#SVGID_13_)" fill="#E84C86" points="2.301,29.867 38.615,24.883 38.615,25.12 2.301,30.104 					"/>
					<polygon clip-path="url(#SVGID_13_)" fill="#E84D86" points="2.301,29.63 38.615,24.646 38.615,24.883 2.301,29.867 					"/>
					<polygon clip-path="url(#SVGID_13_)" fill="#E84E86" points="2.301,29.394 38.615,24.409 38.615,24.646 2.301,29.63 					"/>
					<polygon clip-path="url(#SVGID_13_)" fill="#E84F86" points="2.301,29.157 38.615,24.173 38.615,24.409 2.301,29.394 					"/>
					<polygon clip-path="url(#SVGID_13_)" fill="#E85085" points="2.301,28.92 38.615,23.936 38.615,24.173 2.301,29.157 					"/>
					<polygon clip-path="url(#SVGID_13_)" fill="#E85185" points="2.301,28.683 38.615,23.699 38.615,23.936 2.301,28.92 					"/>
					<polygon clip-path="url(#SVGID_13_)" fill="#E95285" points="2.301,28.447 38.615,23.463 38.615,23.699 2.301,28.683 					"/>
					<polygon clip-path="url(#SVGID_13_)" fill="#E95285" points="2.301,28.21 38.615,23.226 38.615,23.463 2.301,28.447 					"/>
					<polygon clip-path="url(#SVGID_13_)" fill="#E95385" points="2.301,27.973 38.615,22.989 38.615,23.226 2.301,28.21 					"/>
					<polygon clip-path="url(#SVGID_13_)" fill="#E95485" points="2.301,27.737 38.615,22.752 38.615,22.989 2.301,27.973 					"/>
					<polygon clip-path="url(#SVGID_13_)" fill="#E95585" points="2.301,27.5 38.615,22.516 38.615,22.752 2.301,27.737 					"/>
					<polygon clip-path="url(#SVGID_13_)" fill="#E95685" points="2.301,27.263 38.615,22.279 38.615,22.516 2.301,27.5 					"/>
					<polygon clip-path="url(#SVGID_13_)" fill="#E95785" points="2.301,27.027 38.615,22.042 38.615,22.279 2.301,27.263 					"/>
					<polygon clip-path="url(#SVGID_13_)" fill="#E95785" points="2.301,26.79 38.615,21.806 38.615,22.042 2.301,27.027 					"/>
					<polygon clip-path="url(#SVGID_13_)" fill="#E95884" points="2.301,26.553 38.615,21.569 38.615,21.806 2.301,26.79 					"/>
					<polygon clip-path="url(#SVGID_13_)" fill="#E95984" points="2.301,26.316 38.615,21.332 38.615,21.569 2.301,26.553 					"/>
					<polygon clip-path="url(#SVGID_13_)" fill="#E95A84" points="2.301,26.08 38.615,21.095 38.615,21.332 2.301,26.316 					"/>
					<polygon clip-path="url(#SVGID_13_)" fill="#E95B84" points="2.301,25.843 38.615,20.859 38.615,21.095 2.301,26.08 					"/>
					<polygon clip-path="url(#SVGID_13_)" fill="#E95B84" points="2.301,25.606 38.615,20.622 38.615,20.859 2.301,25.843 					"/>
					<polygon clip-path="url(#SVGID_13_)" fill="#E95C84" points="2.301,25.37 38.615,20.385 38.615,20.622 2.301,25.606 					"/>
					<polygon clip-path="url(#SVGID_13_)" fill="#E95D84" points="2.301,25.133 38.615,20.149 38.615,20.385 2.301,25.37 					"/>
					<polygon clip-path="url(#SVGID_13_)" fill="#E95E84" points="2.301,24.896 38.615,19.912 38.615,20.149 2.301,25.133 					"/>
					<polygon clip-path="url(#SVGID_13_)" fill="#E95F83" points="2.301,24.659 38.615,19.675 38.615,19.912 2.301,24.896 					"/>
					<polygon clip-path="url(#SVGID_13_)" fill="#E96083" points="2.301,24.423 38.615,19.438 38.615,19.675 2.301,24.659 					"/>
					<polygon clip-path="url(#SVGID_13_)" fill="#EA6083" points="2.301,24.186 38.615,19.202 38.615,19.438 2.301,24.423 					"/>
					<polygon clip-path="url(#SVGID_13_)" fill="#EA6183" points="2.301,23.949 38.615,18.965 38.615,19.202 2.301,24.186 					"/>
					<polygon clip-path="url(#SVGID_13_)" fill="#EA6283" points="2.301,23.713 38.615,18.728 38.615,18.965 2.301,23.949 					"/>
					<polygon clip-path="url(#SVGID_13_)" fill="#EA6383" points="2.301,23.476 38.615,18.492 38.615,18.728 2.301,23.713 					"/>
					<polygon clip-path="url(#SVGID_13_)" fill="#EA6483" points="2.301,23.239 38.615,18.255 38.615,18.492 2.301,23.476 					"/>
					<polygon clip-path="url(#SVGID_13_)" fill="#EA6483" points="2.301,23.002 38.615,18.018 38.615,18.255 2.301,23.239 					"/>
					<polygon clip-path="url(#SVGID_13_)" fill="#EA6582" points="2.301,22.766 38.615,17.781 38.615,18.018 2.301,23.002 					"/>
					<polygon clip-path="url(#SVGID_13_)" fill="#EA6682" points="2.301,22.529 38.615,17.545 38.615,17.781 2.301,22.766 					"/>
					<polygon clip-path="url(#SVGID_13_)" fill="#EA6782" points="2.301,22.292 38.615,17.308 38.615,17.545 2.301,22.529 					"/>
					<polygon clip-path="url(#SVGID_13_)" fill="#EA6882" points="2.301,22.056 38.615,17.071 38.615,17.308 2.301,22.292 					"/>
					<polygon clip-path="url(#SVGID_13_)" fill="#EA6882" points="2.301,21.819 38.615,16.835 38.615,17.071 2.301,22.056 					"/>
					<polygon clip-path="url(#SVGID_13_)" fill="#EA6982" points="2.301,21.582 38.615,16.598 38.615,16.835 2.301,21.819 					"/>
					<polygon clip-path="url(#SVGID_13_)" fill="#EA6A81" points="2.301,21.345 38.615,16.361 38.615,16.598 2.301,21.582 					"/>
					<polygon clip-path="url(#SVGID_13_)" fill="#EA6B81" points="2.301,21.109 38.615,16.124 38.615,16.361 2.301,21.345 					"/>
					<polygon clip-path="url(#SVGID_13_)" fill="#EB6B81" points="2.301,20.872 38.615,15.888 38.615,16.124 2.301,21.109 					"/>
					<polygon clip-path="url(#SVGID_13_)" fill="#EB6C81" points="2.301,20.635 38.615,15.651 38.615,15.888 2.301,20.872 					"/>
					<polygon clip-path="url(#SVGID_13_)" fill="#EB6D81" points="2.301,20.399 38.615,15.414 38.615,15.651 2.301,20.635 					"/>
					<polygon clip-path="url(#SVGID_13_)" fill="#EB6E80" points="2.301,20.162 38.615,15.178 38.615,15.414 2.301,20.399 					"/>
					<polygon clip-path="url(#SVGID_13_)" fill="#EB6E80" points="2.301,19.925 38.615,14.941 38.615,15.178 2.301,20.162 					"/>
					<polygon clip-path="url(#SVGID_13_)" fill="#EB6F80" points="2.301,19.688 38.615,14.704 38.615,14.941 2.301,19.925 					"/>
					<polygon clip-path="url(#SVGID_13_)" fill="#EB7080" points="2.301,19.452 38.615,14.468 38.615,14.704 2.301,19.688 					"/>
					<polygon clip-path="url(#SVGID_13_)" fill="#EB7180" points="2.301,19.215 38.615,14.231 38.615,14.468 2.301,19.452 					"/>
					<polygon clip-path="url(#SVGID_13_)" fill="#EB717F" points="2.301,18.978 38.615,13.994 38.615,14.231 2.301,19.215 					"/>
					<polygon clip-path="url(#SVGID_13_)" fill="#EB727F" points="2.301,18.742 38.615,13.757 38.615,13.994 2.301,18.978 					"/>
					<polygon clip-path="url(#SVGID_13_)" fill="#EB737F" points="2.301,18.505 38.615,13.521 38.615,13.757 2.301,18.742 					"/>
					<polygon clip-path="url(#SVGID_13_)" fill="#EB747F" points="2.301,18.268 38.615,13.284 38.615,13.521 2.301,18.505 					"/>
					<polygon clip-path="url(#SVGID_13_)" fill="#EB747E" points="2.301,18.031 38.615,13.047 38.615,13.284 2.301,18.268 					"/>
					<polygon clip-path="url(#SVGID_13_)" fill="#EB757E" points="2.301,17.795 38.615,12.811 38.615,13.047 2.301,18.031 					"/>
					<polygon clip-path="url(#SVGID_13_)" fill="#EB767E" points="2.301,17.558 38.615,12.574 38.615,12.811 2.301,17.795 					"/>
					<polygon clip-path="url(#SVGID_13_)" fill="#EC777E" points="2.301,17.321 38.615,12.337 38.615,12.574 2.301,17.558 					"/>
					<polygon clip-path="url(#SVGID_13_)" fill="#EC777E" points="2.301,17.085 38.615,12.1 38.615,12.337 2.301,17.321 					"/>
					<polygon clip-path="url(#SVGID_13_)" fill="#EC787D" points="2.301,16.848 38.615,11.864 38.615,12.1 2.301,17.085 					"/>
					<polygon clip-path="url(#SVGID_13_)" fill="#EC797D" points="2.301,16.611 38.615,11.627 38.615,11.864 2.301,16.848 					"/>
					<polygon clip-path="url(#SVGID_13_)" fill="#EC797D" points="2.301,16.375 38.615,11.39 38.615,11.627 2.301,16.611 					"/>
					<polygon clip-path="url(#SVGID_13_)" fill="#EC7A7C" points="2.301,16.138 38.615,11.154 38.615,11.39 2.301,16.375 					"/>
					<polygon clip-path="url(#SVGID_13_)" fill="#EC7B7C" points="2.301,15.901 38.615,10.917 38.615,11.154 2.301,16.138 					"/>
					<polygon clip-path="url(#SVGID_13_)" fill="#EC7C7C" points="2.301,15.664 38.615,10.68 38.615,10.917 2.301,15.901 					"/>
					<polygon clip-path="url(#SVGID_13_)" fill="#EC7C7C" points="2.301,15.428 38.615,10.443 38.615,10.68 2.301,15.664 					"/>
					<polygon clip-path="url(#SVGID_13_)" fill="#EC7D7B" points="2.301,15.191 38.615,10.207 38.615,10.443 2.301,15.428 					"/>
					<polygon clip-path="url(#SVGID_13_)" fill="#EC7E7B" points="2.301,14.954 38.615,9.97 38.615,10.207 2.301,15.191 					"/>
					<polygon clip-path="url(#SVGID_13_)" fill="#EC7E7B" points="2.301,14.718 38.615,9.733 38.615,9.97 2.301,14.954 					"/>
					<polygon clip-path="url(#SVGID_13_)" fill="#EC7F7A" points="2.301,14.481 38.615,9.497 38.615,9.733 2.301,14.718 					"/>
					<polygon clip-path="url(#SVGID_13_)" fill="#ED807A" points="2.301,14.244 38.615,9.26 38.615,9.497 2.301,14.481 					"/>
					<polygon clip-path="url(#SVGID_13_)" fill="#ED817A" points="2.301,14.007 38.615,9.023 38.615,9.26 2.301,14.244 					"/>
					<polygon clip-path="url(#SVGID_13_)" fill="#ED817A" points="2.301,13.771 38.615,8.786 38.615,9.023 2.301,14.007 					"/>
					<polygon clip-path="url(#SVGID_13_)" fill="#ED8279" points="2.301,13.534 38.615,8.55 38.615,8.786 2.301,13.771 					"/>
					<polygon clip-path="url(#SVGID_13_)" fill="#ED8379" points="2.301,13.297 38.615,8.313 38.615,8.55 2.301,13.534 					"/>
					<polygon clip-path="url(#SVGID_13_)" fill="#ED8379" points="2.301,13.061 38.615,8.076 38.615,8.313 2.301,13.297 					"/>
					<polygon clip-path="url(#SVGID_13_)" fill="#ED8478" points="2.301,12.824 38.615,7.84 38.615,8.076 2.301,13.061 					"/>
					<polygon clip-path="url(#SVGID_13_)" fill="#ED8578" points="2.301,12.587 38.615,7.603 38.615,7.84 2.301,12.824 					"/>
					<polygon clip-path="url(#SVGID_13_)" fill="#ED8678" points="2.301,12.35 38.615,7.366 38.615,7.603 2.301,12.587 					"/>
					<polygon clip-path="url(#SVGID_13_)" fill="#ED8677" points="2.301,12.114 38.615,7.129 38.615,7.366 2.301,12.35 					"/>
					<polygon clip-path="url(#SVGID_13_)" fill="#ED8777" points="2.301,11.877 38.615,6.893 38.615,7.129 2.301,12.114 					"/>
					<polygon clip-path="url(#SVGID_13_)" fill="#ED8877" points="2.301,11.64 38.615,6.656 38.615,6.893 2.301,11.877 					"/>
					<polygon clip-path="url(#SVGID_13_)" fill="#ED8876" points="2.301,11.404 38.615,6.419 38.615,6.656 2.301,11.64 					"/>
					<polygon clip-path="url(#SVGID_13_)" fill="#EE8976" points="2.301,11.167 38.615,6.183 38.615,6.419 2.301,11.404 					"/>
					<polygon clip-path="url(#SVGID_13_)" fill="#EE8A76" points="2.301,10.93 38.615,5.946 38.615,6.183 2.301,11.167 					"/>
					<polygon clip-path="url(#SVGID_13_)" fill="#EE8A75" points="2.301,10.693 38.615,5.709 38.615,5.946 2.301,10.93 					"/>
					<polygon clip-path="url(#SVGID_13_)" fill="#EE8B75" points="2.301,10.457 38.615,5.472 38.615,5.709 2.301,10.693 					"/>
					<polygon clip-path="url(#SVGID_13_)" fill="#EE8C74" points="2.301,10.22 38.615,5.236 38.615,5.472 2.301,10.457 					"/>
					<polygon clip-path="url(#SVGID_13_)" fill="#EE8C74" points="2.301,9.983 38.615,4.999 38.615,5.236 2.301,10.22 					"/>
					<polygon clip-path="url(#SVGID_13_)" fill="#EE8D74" points="2.301,9.747 38.615,4.762 38.615,4.999 2.301,9.983 					"/>
					<polygon clip-path="url(#SVGID_13_)" fill="#EE8E73" points="2.301,9.51 38.615,4.526 38.615,4.762 2.301,9.747 					"/>
					<polygon clip-path="url(#SVGID_13_)" fill="#EE8F73" points="2.301,9.273 38.615,4.289 38.615,4.526 2.301,9.51 					"/>
					<polygon clip-path="url(#SVGID_13_)" fill="#EE8F72" points="2.301,9.036 38.615,4.052 38.615,4.289 2.301,9.273 					"/>
					<polygon clip-path="url(#SVGID_13_)" fill="#EE9072" points="2.301,8.8 38.615,3.816 38.615,4.052 2.301,9.036 					"/>
					<polygon clip-path="url(#SVGID_13_)" fill="#EE9172" points="2.301,8.563 38.615,3.579 38.615,3.816 2.301,8.8 					"/>
					<polygon clip-path="url(#SVGID_13_)" fill="#EE9171" points="2.301,8.326 38.615,3.342 38.615,3.579 2.301,8.563 					"/>
					<polygon clip-path="url(#SVGID_13_)" fill="#EE9271" points="2.301,8.09 38.615,3.105 38.615,3.342 2.301,8.326 					"/>
					<polygon clip-path="url(#SVGID_13_)" fill="#EE9370" points="2.301,7.853 38.615,2.869 38.615,3.105 2.301,8.09 					"/>
					<polygon clip-path="url(#SVGID_13_)" fill="#EF9370" points="2.301,7.616 38.615,2.632 38.615,2.869 2.301,7.853 					"/>
					<polygon clip-path="url(#SVGID_13_)" fill="#EF946F" points="2.301,7.379 38.615,2.395 38.615,2.632 2.301,7.616 					"/>
					<polygon clip-path="url(#SVGID_13_)" fill="#EF956F" points="2.301,7.143 38.615,2.159 38.615,2.395 2.301,7.379 					"/>
					<polygon clip-path="url(#SVGID_13_)" fill="#EF956E" points="2.301,6.906 38.615,1.922 38.615,2.159 2.301,7.143 					"/>
					<polygon clip-path="url(#SVGID_13_)" fill="#EF966E" points="2.301,6.669 38.615,1.685 38.615,1.922 2.301,6.906 					"/>
					<polygon clip-path="url(#SVGID_13_)" fill="#EF976D" points="2.301,6.433 38.615,1.448 38.615,1.685 2.301,6.669 					"/>
					<polygon clip-path="url(#SVGID_13_)" fill="#EF976D" points="2.301,6.196 38.615,1.212 38.615,1.448 2.301,6.433 					"/>
					<polygon clip-path="url(#SVGID_13_)" fill="#EF986D" points="2.301,5.959 38.615,0.975 38.615,1.212 2.301,6.196 					"/>
					<polygon clip-path="url(#SVGID_13_)" fill="#EF986C" points="2.301,5.723 38.615,0.738 38.615,0.975 2.301,5.959 					"/>
					<polygon clip-path="url(#SVGID_13_)" fill="#EF996C" points="2.301,5.486 38.615,0.502 38.615,0.738 2.301,5.723 					"/>
					<polygon clip-path="url(#SVGID_13_)" fill="#EF9A6B" points="2.301,5.249 38.615,0.265 38.615,0.502 2.301,5.486 					"/>
					<polygon clip-path="url(#SVGID_13_)" fill="#F09A6B" points="2.301,5.012 38.615,0.028 38.615,0.265 2.301,5.249 					"/>
					<polygon clip-path="url(#SVGID_13_)" fill="#F09B6A" points="2.301,4.776 38.615,-0.209 38.615,0.028 2.301,5.012 					"/>
					<polygon clip-path="url(#SVGID_13_)" fill="#F09C69" points="2.301,4.539 38.615,-0.445 38.615,-0.209 2.301,4.776 					"/>
					<polygon clip-path="url(#SVGID_13_)" fill="#F09C69" points="2.301,4.302 38.615,-0.682 38.615,-0.445 2.301,4.539 					"/>
					<polygon clip-path="url(#SVGID_13_)" fill="#F09D68" points="2.301,4.066 38.615,-0.919 38.615,-0.682 2.301,4.302 					"/>
					<polygon clip-path="url(#SVGID_13_)" fill="#F09E68" points="2.301,3.829 38.615,-1.155 38.615,-0.919 2.301,4.066 					"/>
					<polygon clip-path="url(#SVGID_13_)" fill="#F09E67" points="2.301,3.592 38.615,-1.392 38.615,-1.155 2.301,3.829 					"/>
					<polygon clip-path="url(#SVGID_13_)" fill="#F09F67" points="2.301,3.355 38.615,-1.629 38.615,-1.392 2.301,3.592 					"/>
					<polygon clip-path="url(#SVGID_13_)" fill="#F09F66" points="2.301,3.119 38.615,-1.866 38.615,-1.629 2.301,3.355 					"/>
					<polygon clip-path="url(#SVGID_13_)" fill="#F0A066" points="2.301,2.882 38.615,-2.102 38.615,-1.866 2.301,3.119 					"/>
					<polygon clip-path="url(#SVGID_13_)" fill="#F0A165" points="2.301,2.645 38.615,-2.339 38.615,-2.102 2.301,2.882 					"/>
					<polygon clip-path="url(#SVGID_13_)" fill="#F0A164" points="2.301,2.409 38.615,-2.576 38.615,-2.339 2.301,2.645 					"/>
					<polygon clip-path="url(#SVGID_13_)" fill="#F1A264" points="2.301,2.172 38.615,-2.812 38.615,-2.576 2.301,2.409 					"/>
					<polygon clip-path="url(#SVGID_13_)" fill="#F1A363" points="2.301,1.935 38.615,-3.049 38.615,-2.812 2.301,2.172 					"/>
					<polygon clip-path="url(#SVGID_13_)" fill="#F1A363" points="2.301,1.698 38.615,-3.286 38.615,-3.049 2.301,1.935 					"/>
					<polygon clip-path="url(#SVGID_13_)" fill="#F1A462" points="2.301,1.462 38.615,-3.523 38.615,-3.286 2.301,1.698 					"/>
					<polygon clip-path="url(#SVGID_13_)" fill="#F1A461" points="2.301,1.225 38.615,-3.759 38.615,-3.523 2.301,1.462 					"/>
					<polygon clip-path="url(#SVGID_13_)" fill="#F1A561" points="2.301,0.988 37.625,-3.86 38.615,-3.86 38.615,-3.759 
						2.301,1.225 					"/>
					<polygon clip-path="url(#SVGID_13_)" fill="#F1A660" points="2.301,0.752 35.9,-3.86 37.625,-3.86 2.301,0.988 					"/>
					<polygon clip-path="url(#SVGID_13_)" fill="#F1A65F" points="2.301,0.515 34.176,-3.86 35.9,-3.86 2.301,0.752 					"/>
					<polygon clip-path="url(#SVGID_13_)" fill="#F1A75F" points="2.301,0.278 32.451,-3.86 34.176,-3.86 2.301,0.515 					"/>
					<polygon clip-path="url(#SVGID_13_)" fill="#F1A75E" points="2.301,0.041 30.726,-3.86 32.451,-3.86 2.301,0.278 					"/>
					<polygon clip-path="url(#SVGID_13_)" fill="#F1A85E" points="2.301,-0.195 29.002,-3.86 30.726,-3.86 2.301,0.041 					"/>
					<polygon clip-path="url(#SVGID_13_)" fill="#F1A95D" points="2.301,-0.432 27.277,-3.86 29.002,-3.86 2.301,-0.195 					"/>
					<polygon clip-path="url(#SVGID_13_)" fill="#F1A95C" points="2.301,-0.669 25.553,-3.86 27.277,-3.86 2.301,-0.432 					"/>
					<polygon clip-path="url(#SVGID_13_)" fill="#F1AA5B" points="2.301,-0.905 23.828,-3.86 25.553,-3.86 2.301,-0.669 					"/>
					<polygon clip-path="url(#SVGID_13_)" fill="#F2AA5B" points="2.301,-1.142 22.103,-3.86 23.828,-3.86 2.301,-0.905 					"/>
					<polygon clip-path="url(#SVGID_13_)" fill="#F2AB5A" points="2.301,-1.379 20.379,-3.86 22.103,-3.86 2.301,-1.142 					"/>
					<polygon clip-path="url(#SVGID_13_)" fill="#F2AC59" points="2.301,-1.616 18.654,-3.86 20.379,-3.86 2.301,-1.379 					"/>
					<polygon clip-path="url(#SVGID_13_)" fill="#F2AC59" points="2.301,-1.852 16.93,-3.86 18.654,-3.86 2.301,-1.616 					"/>
					<polygon clip-path="url(#SVGID_13_)" fill="#F2AD58" points="2.301,-2.089 15.205,-3.86 16.93,-3.86 2.301,-1.852 					"/>
					<polygon clip-path="url(#SVGID_13_)" fill="#F2AD57" points="2.301,-2.326 13.48,-3.86 15.205,-3.86 2.301,-2.089 					"/>
					<polygon clip-path="url(#SVGID_13_)" fill="#F2AE56" points="2.301,-2.562 11.756,-3.86 13.48,-3.86 2.301,-2.326 					"/>
					<polygon clip-path="url(#SVGID_13_)" fill="#F2AF56" points="2.301,-2.799 10.031,-3.86 11.756,-3.86 2.301,-2.562 					"/>
					<polygon clip-path="url(#SVGID_13_)" fill="#F2AF55" points="2.301,-3.036 8.307,-3.86 10.031,-3.86 2.301,-2.799 					"/>
					<polygon clip-path="url(#SVGID_13_)" fill="#F2B054" points="2.301,-3.273 6.582,-3.86 8.307,-3.86 2.301,-3.036 					"/>
					<polygon clip-path="url(#SVGID_13_)" fill="#F2B053" points="2.301,-3.509 4.857,-3.86 6.582,-3.86 2.301,-3.273 					"/>
					<polygon clip-path="url(#SVGID_13_)" fill="#F3B152" points="2.301,-3.746 3.133,-3.86 4.857,-3.86 2.301,-3.509 					"/>
					<polygon clip-path="url(#SVGID_13_)" fill="#F3B252" points="3.133,-3.86 2.301,-3.746 2.301,-3.86 					"/>
				</g>
			</g>
		</g>
		<g>
			<defs>
				<path id="SVGID_14_" d="M0.333,10.561c2.024-0.768,3.635,0.139,4.514,1.67c2.012,3.554-2.162,5.561,0.877,12.59
					c1.201,1.658,2.671,3.093,4.338,4.247c2.919,1.709,6.386,2.52,9.989,2.103c4.067-0.471,7.602-2.426,10.136-5.268
					c-1.529,0.878-3.256,1.465-5.116,1.681c-3.837,0.445-7.488-0.779-10.24-3.101c-0.515-0.434-0.998-0.906-1.445-1.413
					c-3.9-2.663-3.134-6.402-4.791-9.935C7.514,10.9,5.74,9.458,3.627,9.458C2.596,9.457,1.485,9.8,0.333,10.561"/>
			</defs>
			<clipPath id="SVGID_15_">
				<use xlink:href="#SVGID_14_"  overflow="visible"/>
			</clipPath>
			<g clip-path="url(#SVGID_15_)">
				<g>
					<defs>
						
							<rect id="SVGID_16_" x="-2.678" y="4.77" transform="matrix(-0.9309 -0.3653 0.3653 -0.9309 21.9675 45.202)" width="35.874" height="31.507"/>
					</defs>
					<clipPath id="SVGID_17_">
						<use xlink:href="#SVGID_16_"  overflow="visible"/>
					</clipPath>
					<polygon clip-path="url(#SVGID_17_)" fill="#E43637" points="0.262,-0.694 -7.193,18.305 -7.193,-0.694 					"/>
					<polygon clip-path="url(#SVGID_17_)" fill="#E43637" points="0.519,-0.694 -7.193,18.958 -7.193,18.305 0.262,-0.694 					"/>
					<polygon clip-path="url(#SVGID_17_)" fill="#E43637" points="0.72,-0.694 -7.193,19.47 -7.193,18.958 0.519,-0.694 					"/>
					<polygon clip-path="url(#SVGID_17_)" fill="#E33638" points="0.921,-0.694 -7.193,19.982 -7.193,19.47 0.72,-0.694 					"/>
					<polygon clip-path="url(#SVGID_17_)" fill="#E33739" points="1.121,-0.694 -7.193,20.494 -7.193,19.982 0.921,-0.694 					"/>
					<polygon clip-path="url(#SVGID_17_)" fill="#E23739" points="1.322,-0.694 -7.193,21.006 -7.193,20.494 1.121,-0.694 					"/>
					<polygon clip-path="url(#SVGID_17_)" fill="#E2373A" points="1.523,-0.694 -7.193,21.517 -7.193,21.006 1.322,-0.694 					"/>
					<polygon clip-path="url(#SVGID_17_)" fill="#E1373B" points="1.724,-0.694 -7.193,22.029 -7.193,21.517 1.523,-0.694 					"/>
					<polygon clip-path="url(#SVGID_17_)" fill="#E1383C" points="1.925,-0.694 -7.193,22.541 -7.193,22.029 1.724,-0.694 					"/>
					<polygon clip-path="url(#SVGID_17_)" fill="#E1383C" points="2.126,-0.694 -7.193,23.053 -7.193,22.541 1.925,-0.694 					"/>
					<polygon clip-path="url(#SVGID_17_)" fill="#E0383D" points="2.326,-0.694 -7.193,23.565 -7.193,23.053 2.126,-0.694 					"/>
					<polygon clip-path="url(#SVGID_17_)" fill="#E0383E" points="2.527,-0.694 -7.193,24.077 -7.193,23.565 2.326,-0.694 					"/>
					<polygon clip-path="url(#SVGID_17_)" fill="#DF393F" points="2.728,-0.694 -7.193,24.588 -7.193,24.077 2.527,-0.694 					"/>
					<polygon clip-path="url(#SVGID_17_)" fill="#DF393F" points="2.929,-0.694 -7.193,25.1 -7.193,24.588 2.728,-0.694 					"/>
					<polygon clip-path="url(#SVGID_17_)" fill="#DF3940" points="3.13,-0.694 -7.193,25.612 -7.193,25.1 2.929,-0.694 					"/>
					<polygon clip-path="url(#SVGID_17_)" fill="#DE3941" points="3.331,-0.694 -7.193,26.124 -7.193,25.612 3.13,-0.694 					"/>
					<polygon clip-path="url(#SVGID_17_)" fill="#DE3A42" points="3.532,-0.694 -7.193,26.636 -7.193,26.124 3.331,-0.694 					"/>
					<polygon clip-path="url(#SVGID_17_)" fill="#DD3A42" points="3.732,-0.694 -7.193,27.148 -7.193,26.636 3.532,-0.694 					"/>
					<polygon clip-path="url(#SVGID_17_)" fill="#DD3A43" points="3.933,-0.694 -7.193,27.659 -7.193,27.148 3.732,-0.694 					"/>
					<polygon clip-path="url(#SVGID_17_)" fill="#DC3A44" points="4.134,-0.694 -7.193,28.171 -7.193,27.659 3.933,-0.694 					"/>
					<polygon clip-path="url(#SVGID_17_)" fill="#DC3B44" points="4.335,-0.694 -7.193,28.683 -7.193,28.171 4.134,-0.694 					"/>
					<polygon clip-path="url(#SVGID_17_)" fill="#DC3B45" points="4.536,-0.694 -7.193,29.195 -7.193,28.683 4.335,-0.694 					"/>
					<polygon clip-path="url(#SVGID_17_)" fill="#DB3B46" points="4.737,-0.694 -7.193,29.707 -7.193,29.195 4.536,-0.694 					"/>
					<polygon clip-path="url(#SVGID_17_)" fill="#DB3B47" points="4.937,-0.694 -7.193,30.218 -7.193,29.707 4.737,-0.694 					"/>
					<polygon clip-path="url(#SVGID_17_)" fill="#DA3C47" points="5.138,-0.694 -7.193,30.73 -7.193,30.218 4.937,-0.694 					"/>
					<polygon clip-path="url(#SVGID_17_)" fill="#DA3C48" points="5.339,-0.694 -7.193,31.242 -7.193,30.73 5.138,-0.694 					"/>
					<polygon clip-path="url(#SVGID_17_)" fill="#DA3C49" points="5.54,-0.694 -7.193,31.754 -7.193,31.242 5.339,-0.694 					"/>
					<polygon clip-path="url(#SVGID_17_)" fill="#D93C4A" points="5.741,-0.694 -7.193,32.266 -7.193,31.754 5.54,-0.694 					"/>
					<polygon clip-path="url(#SVGID_17_)" fill="#D93C4A" points="5.942,-0.694 -7.193,32.778 -7.193,32.266 5.741,-0.694 					"/>
					<polygon clip-path="url(#SVGID_17_)" fill="#D83D4B" points="6.142,-0.694 -7.193,33.289 -7.193,32.778 5.942,-0.694 					"/>
					<polygon clip-path="url(#SVGID_17_)" fill="#D83D4C" points="6.343,-0.694 -7.193,33.801 -7.193,33.289 6.142,-0.694 					"/>
					<polygon clip-path="url(#SVGID_17_)" fill="#D73D4C" points="6.544,-0.694 -7.193,34.313 -7.193,33.801 6.343,-0.694 					"/>
					<polygon clip-path="url(#SVGID_17_)" fill="#D73D4D" points="6.745,-0.694 -7.193,34.825 -7.193,34.313 6.544,-0.694 					"/>
					<polygon clip-path="url(#SVGID_17_)" fill="#D73D4E" points="6.946,-0.694 -7.193,35.337 -7.193,34.825 6.745,-0.694 					"/>
					<polygon clip-path="url(#SVGID_17_)" fill="#D63E4E" points="7.147,-0.694 -7.193,35.849 -7.193,35.337 6.946,-0.694 					"/>
					<polygon clip-path="url(#SVGID_17_)" fill="#D63E4F" points="7.348,-0.694 -7.193,36.36 -7.193,35.849 7.147,-0.694 					"/>
					<polygon clip-path="url(#SVGID_17_)" fill="#D53E50" points="7.548,-0.694 -7.193,36.872 -7.193,36.36 7.348,-0.694 					"/>
					<polygon clip-path="url(#SVGID_17_)" fill="#D53E51" points="7.749,-0.694 -7.193,37.384 -7.193,36.872 7.548,-0.694 					"/>
					<polygon clip-path="url(#SVGID_17_)" fill="#D53E51" points="7.95,-0.694 -7.193,37.896 -7.193,37.384 7.749,-0.694 					"/>
					<polygon clip-path="url(#SVGID_17_)" fill="#D43F52" points="8.151,-0.694 -7.193,38.408 -7.193,37.896 7.95,-0.694 					"/>
					<polygon clip-path="url(#SVGID_17_)" fill="#D43F53" points="8.352,-0.694 -7.193,38.92 -7.193,38.408 8.151,-0.694 					"/>
					<polygon clip-path="url(#SVGID_17_)" fill="#D33F53" points="8.553,-0.694 -7.193,39.431 -7.193,38.92 8.352,-0.694 					"/>
					<polygon clip-path="url(#SVGID_17_)" fill="#D33F54" points="8.753,-0.694 -7.193,39.943 -7.193,39.431 8.553,-0.694 					"/>
					<polygon clip-path="url(#SVGID_17_)" fill="#D23F55" points="8.954,-0.694 -7.193,40.455 -7.193,39.943 8.753,-0.694 					"/>
					<polygon clip-path="url(#SVGID_17_)" fill="#D24055" points="9.155,-0.694 -7.193,40.967 -7.193,40.455 8.954,-0.694 					"/>
					<polygon clip-path="url(#SVGID_17_)" fill="#D24056" points="9.356,-0.694 -7.193,41.479 -7.193,40.967 9.155,-0.694 					"/>
					<polygon clip-path="url(#SVGID_17_)" fill="#D14057" points="9.557,-0.694 -7.095,41.74 -7.193,41.74 -7.193,41.479 
						9.356,-0.694 					"/>
					<polygon clip-path="url(#SVGID_17_)" fill="#D14057" points="9.758,-0.694 -6.894,41.74 -7.095,41.74 9.557,-0.694 					"/>
					<polygon clip-path="url(#SVGID_17_)" fill="#D04058" points="9.958,-0.694 -6.693,41.74 -6.894,41.74 9.758,-0.694 					"/>
					<polygon clip-path="url(#SVGID_17_)" fill="#D04159" points="10.159,-0.694 -6.492,41.74 -6.693,41.74 9.958,-0.694 					"/>
					<polygon clip-path="url(#SVGID_17_)" fill="#D04159" points="10.36,-0.694 -6.291,41.74 -6.492,41.74 10.159,-0.694 					"/>
					<polygon clip-path="url(#SVGID_17_)" fill="#CF415A" points="10.561,-0.694 -6.09,41.74 -6.291,41.74 10.36,-0.694 					"/>
					<polygon clip-path="url(#SVGID_17_)" fill="#CF415B" points="10.762,-0.694 -5.89,41.74 -6.09,41.74 10.561,-0.694 					"/>
					<polygon clip-path="url(#SVGID_17_)" fill="#CE415B" points="10.963,-0.694 -5.689,41.74 -5.89,41.74 10.762,-0.694 					"/>
					<polygon clip-path="url(#SVGID_17_)" fill="#CE425C" points="11.164,-0.694 -5.488,41.74 -5.689,41.74 10.963,-0.694 					"/>
					<polygon clip-path="url(#SVGID_17_)" fill="#CE425D" points="11.364,-0.694 -5.287,41.74 -5.488,41.74 11.164,-0.694 					"/>
					<polygon clip-path="url(#SVGID_17_)" fill="#CD425D" points="11.565,-0.694 -5.086,41.74 -5.287,41.74 11.364,-0.694 					"/>
					<polygon clip-path="url(#SVGID_17_)" fill="#CD425E" points="11.766,-0.694 -4.885,41.74 -5.086,41.74 11.565,-0.694 					"/>
					<polygon clip-path="url(#SVGID_17_)" fill="#CC425F" points="11.967,-0.694 -4.684,41.74 -4.885,41.74 11.766,-0.694 					"/>
					<polygon clip-path="url(#SVGID_17_)" fill="#CC425F" points="12.168,-0.694 -4.484,41.74 -4.684,41.74 11.967,-0.694 					"/>
					<polygon clip-path="url(#SVGID_17_)" fill="#CB4360" points="12.369,-0.694 -4.283,41.74 -4.484,41.74 12.168,-0.694 					"/>
					<polygon clip-path="url(#SVGID_17_)" fill="#CB4361" points="12.569,-0.694 -4.082,41.74 -4.283,41.74 12.369,-0.694 					"/>
					<polygon clip-path="url(#SVGID_17_)" fill="#CB4361" points="12.77,-0.694 -3.881,41.74 -4.082,41.74 12.569,-0.694 					"/>
					<polygon clip-path="url(#SVGID_17_)" fill="#CA4362" points="12.971,-0.694 -3.68,41.74 -3.881,41.74 12.77,-0.694 					"/>
					<polygon clip-path="url(#SVGID_17_)" fill="#CA4363" points="13.172,-0.694 -3.479,41.74 -3.68,41.74 12.971,-0.694 					"/>
					<polygon clip-path="url(#SVGID_17_)" fill="#C94363" points="13.373,-0.694 -3.279,41.74 -3.479,41.74 13.172,-0.694 					"/>
					<polygon clip-path="url(#SVGID_17_)" fill="#C94464" points="13.574,-0.694 -3.078,41.74 -3.279,41.74 13.373,-0.694 					"/>
					<polygon clip-path="url(#SVGID_17_)" fill="#C94464" points="13.775,-0.694 -2.877,41.74 -3.078,41.74 13.574,-0.694 					"/>
					<polygon clip-path="url(#SVGID_17_)" fill="#C84465" points="13.975,-0.694 -2.676,41.74 -2.877,41.74 13.775,-0.694 					"/>
					<polygon clip-path="url(#SVGID_17_)" fill="#C84466" points="14.176,-0.694 -2.475,41.74 -2.676,41.74 13.975,-0.694 					"/>
					<polygon clip-path="url(#SVGID_17_)" fill="#C74466" points="14.377,-0.694 -2.274,41.74 -2.475,41.74 14.176,-0.694 					"/>
					<polygon clip-path="url(#SVGID_17_)" fill="#C74467" points="14.578,-0.694 -2.073,41.74 -2.274,41.74 14.377,-0.694 					"/>
					<polygon clip-path="url(#SVGID_17_)" fill="#C74568" points="14.779,-0.694 -1.873,41.74 -2.073,41.74 14.578,-0.694 					"/>
					<polygon clip-path="url(#SVGID_17_)" fill="#C64568" points="14.98,-0.694 -1.672,41.74 -1.873,41.74 14.779,-0.694 					"/>
					<polygon clip-path="url(#SVGID_17_)" fill="#C64569" points="15.18,-0.694 -1.471,41.74 -1.672,41.74 14.98,-0.694 					"/>
					<polygon clip-path="url(#SVGID_17_)" fill="#C54569" points="15.381,-0.694 -1.27,41.74 -1.471,41.74 15.18,-0.694 					"/>
					<polygon clip-path="url(#SVGID_17_)" fill="#C5456A" points="15.582,-0.694 -1.069,41.74 -1.27,41.74 15.381,-0.694 					"/>
					<polygon clip-path="url(#SVGID_17_)" fill="#C5456B" points="15.783,-0.694 -0.868,41.74 -1.069,41.74 15.582,-0.694 					"/>
					<polygon clip-path="url(#SVGID_17_)" fill="#C4456B" points="15.984,-0.694 -0.668,41.74 -0.868,41.74 15.783,-0.694 					"/>
					<polygon clip-path="url(#SVGID_17_)" fill="#C4466C" points="16.185,-0.694 -0.467,41.74 -0.668,41.74 15.984,-0.694 					"/>
					<polygon clip-path="url(#SVGID_17_)" fill="#C3466C" points="16.385,-0.694 -0.266,41.74 -0.467,41.74 16.185,-0.694 					"/>
					<polygon clip-path="url(#SVGID_17_)" fill="#C3466D" points="16.586,-0.694 -0.065,41.74 -0.266,41.74 16.385,-0.694 					"/>
					<polygon clip-path="url(#SVGID_17_)" fill="#C3466E" points="16.787,-0.694 0.136,41.74 -0.065,41.74 16.586,-0.694 					"/>
					<polygon clip-path="url(#SVGID_17_)" fill="#C2466E" points="16.988,-0.694 0.337,41.74 0.136,41.74 16.787,-0.694 					"/>
					<polygon clip-path="url(#SVGID_17_)" fill="#C2466F" points="17.189,-0.694 0.537,41.74 0.337,41.74 16.988,-0.694 					"/>
					<polygon clip-path="url(#SVGID_17_)" fill="#C1466F" points="17.39,-0.694 0.738,41.74 0.537,41.74 17.189,-0.694 					"/>
					<polygon clip-path="url(#SVGID_17_)" fill="#C14770" points="17.591,-0.694 0.939,41.74 0.738,41.74 17.39,-0.694 					"/>
					<polygon clip-path="url(#SVGID_17_)" fill="#C14771" points="17.791,-0.694 1.14,41.74 0.939,41.74 17.591,-0.694 					"/>
					<polygon clip-path="url(#SVGID_17_)" fill="#C04771" points="17.992,-0.694 1.341,41.74 1.14,41.74 17.791,-0.694 					"/>
					<polygon clip-path="url(#SVGID_17_)" fill="#C04772" points="18.193,-0.694 1.542,41.74 1.341,41.74 17.992,-0.694 					"/>
					<polygon clip-path="url(#SVGID_17_)" fill="#BF4772" points="18.394,-0.694 1.743,41.74 1.542,41.74 18.193,-0.694 					"/>
					<polygon clip-path="url(#SVGID_17_)" fill="#BF4773" points="18.595,-0.694 1.943,41.74 1.743,41.74 18.394,-0.694 					"/>
					<polygon clip-path="url(#SVGID_17_)" fill="#BF4773" points="18.796,-0.694 2.144,41.74 1.943,41.74 18.595,-0.694 					"/>
					<polygon clip-path="url(#SVGID_17_)" fill="#BE4774" points="18.996,-0.694 2.345,41.74 2.144,41.74 18.796,-0.694 					"/>
					<polygon clip-path="url(#SVGID_17_)" fill="#BE4875" points="19.197,-0.694 2.546,41.74 2.345,41.74 18.996,-0.694 					"/>
					<polygon clip-path="url(#SVGID_17_)" fill="#BD4875" points="19.398,-0.694 2.747,41.74 2.546,41.74 19.197,-0.694 					"/>
					<polygon clip-path="url(#SVGID_17_)" fill="#BD4876" points="19.599,-0.694 2.948,41.74 2.747,41.74 19.398,-0.694 					"/>
					<polygon clip-path="url(#SVGID_17_)" fill="#BD4876" points="19.8,-0.694 3.148,41.74 2.948,41.74 19.599,-0.694 					"/>
					<polygon clip-path="url(#SVGID_17_)" fill="#BC4877" points="20.001,-0.694 3.349,41.74 3.148,41.74 19.8,-0.694 					"/>
					<polygon clip-path="url(#SVGID_17_)" fill="#BC4877" points="20.201,-0.694 3.55,41.74 3.349,41.74 20.001,-0.694 					"/>
					<polygon clip-path="url(#SVGID_17_)" fill="#BB4878" points="20.402,-0.694 3.751,41.74 3.55,41.74 20.201,-0.694 					"/>
					<polygon clip-path="url(#SVGID_17_)" fill="#BB4878" points="20.603,-0.694 3.952,41.74 3.751,41.74 20.402,-0.694 					"/>
					<polygon clip-path="url(#SVGID_17_)" fill="#BB4979" points="20.804,-0.694 4.153,41.74 3.952,41.74 20.603,-0.694 					"/>
					<polygon clip-path="url(#SVGID_17_)" fill="#BA497A" points="21.005,-0.694 4.353,41.74 4.153,41.74 20.804,-0.694 					"/>
					<polygon clip-path="url(#SVGID_17_)" fill="#BA497A" points="21.206,-0.694 4.554,41.74 4.353,41.74 21.005,-0.694 					"/>
					<polygon clip-path="url(#SVGID_17_)" fill="#BA497B" points="21.407,-0.694 4.755,41.74 4.554,41.74 21.206,-0.694 					"/>
					<polygon clip-path="url(#SVGID_17_)" fill="#B9497B" points="21.607,-0.694 4.956,41.74 4.755,41.74 21.407,-0.694 					"/>
					<polygon clip-path="url(#SVGID_17_)" fill="#B9497C" points="21.808,-0.694 5.157,41.74 4.956,41.74 21.607,-0.694 					"/>
					<polygon clip-path="url(#SVGID_17_)" fill="#B8497C" points="22.009,-0.694 5.358,41.74 5.157,41.74 21.808,-0.694 					"/>
					<polygon clip-path="url(#SVGID_17_)" fill="#B8497D" points="22.21,-0.694 5.559,41.74 5.358,41.74 22.009,-0.694 					"/>
					<polygon clip-path="url(#SVGID_17_)" fill="#B8497D" points="22.411,-0.694 5.759,41.74 5.559,41.74 22.21,-0.694 					"/>
					<polygon clip-path="url(#SVGID_17_)" fill="#B74A7E" points="22.612,-0.694 5.96,41.74 5.759,41.74 22.411,-0.694 					"/>
					<polygon clip-path="url(#SVGID_17_)" fill="#B74A7E" points="22.812,-0.694 6.161,41.74 5.96,41.74 22.612,-0.694 					"/>
					<polygon clip-path="url(#SVGID_17_)" fill="#B64A7F" points="23.013,-0.694 6.362,41.74 6.161,41.74 22.812,-0.694 					"/>
					<polygon clip-path="url(#SVGID_17_)" fill="#B64A7F" points="23.214,-0.694 6.563,41.74 6.362,41.74 23.013,-0.694 					"/>
					<polygon clip-path="url(#SVGID_17_)" fill="#B64A80" points="23.415,-0.694 6.764,41.74 6.563,41.74 23.214,-0.694 					"/>
					<polygon clip-path="url(#SVGID_17_)" fill="#B54A80" points="23.616,-0.694 6.964,41.74 6.764,41.74 23.415,-0.694 					"/>
					<polygon clip-path="url(#SVGID_17_)" fill="#B54A81" points="23.817,-0.694 7.165,41.74 6.964,41.74 23.616,-0.694 					"/>
					<polygon clip-path="url(#SVGID_17_)" fill="#B54A81" points="24.018,-0.694 7.366,41.74 7.165,41.74 23.817,-0.694 					"/>
					<polygon clip-path="url(#SVGID_17_)" fill="#B44A82" points="24.218,-0.694 7.567,41.74 7.366,41.74 24.018,-0.694 					"/>
					<polygon clip-path="url(#SVGID_17_)" fill="#B44A82" points="24.419,-0.694 7.768,41.74 7.567,41.74 24.218,-0.694 					"/>
					<polygon clip-path="url(#SVGID_17_)" fill="#B34B83" points="24.62,-0.694 7.969,41.74 7.768,41.74 24.419,-0.694 					"/>
					<polygon clip-path="url(#SVGID_17_)" fill="#B34B83" points="24.821,-0.694 8.17,41.74 7.969,41.74 24.62,-0.694 					"/>
					<polygon clip-path="url(#SVGID_17_)" fill="#B34B83" points="25.022,-0.694 8.37,41.74 8.17,41.74 24.821,-0.694 					"/>
					<polygon clip-path="url(#SVGID_17_)" fill="#B24B84" points="25.223,-0.694 8.571,41.74 8.37,41.74 25.022,-0.694 					"/>
					<polygon clip-path="url(#SVGID_17_)" fill="#B24B84" points="25.423,-0.694 8.772,41.74 8.571,41.74 25.223,-0.694 					"/>
					<polygon clip-path="url(#SVGID_17_)" fill="#B14B85" points="25.624,-0.694 8.973,41.74 8.772,41.74 25.423,-0.694 					"/>
					<polygon clip-path="url(#SVGID_17_)" fill="#B14B85" points="25.825,-0.694 9.174,41.74 8.973,41.74 25.624,-0.694 					"/>
					<polygon clip-path="url(#SVGID_17_)" fill="#B14B86" points="26.026,-0.694 9.375,41.74 9.174,41.74 25.825,-0.694 					"/>
					<polygon clip-path="url(#SVGID_17_)" fill="#B04B86" points="26.227,-0.694 9.575,41.74 9.375,41.74 26.026,-0.694 					"/>
					<polygon clip-path="url(#SVGID_17_)" fill="#B04B87" points="26.428,-0.694 9.776,41.74 9.575,41.74 26.227,-0.694 					"/>
					<polygon clip-path="url(#SVGID_17_)" fill="#B04B87" points="26.628,-0.694 9.977,41.74 9.776,41.74 26.428,-0.694 					"/>
					<polygon clip-path="url(#SVGID_17_)" fill="#AF4C88" points="26.829,-0.694 10.178,41.74 9.977,41.74 26.628,-0.694 					"/>
					<polygon clip-path="url(#SVGID_17_)" fill="#AF4C88" points="27.03,-0.694 10.379,41.74 10.178,41.74 26.829,-0.694 					"/>
					<polygon clip-path="url(#SVGID_17_)" fill="#AE4C89" points="27.231,-0.694 10.58,41.74 10.379,41.74 27.03,-0.694 					"/>
					<polygon clip-path="url(#SVGID_17_)" fill="#AE4C89" points="27.432,-0.694 10.78,41.74 10.58,41.74 27.231,-0.694 					"/>
					<polygon clip-path="url(#SVGID_17_)" fill="#AE4C89" points="27.633,-0.694 10.981,41.74 10.78,41.74 27.432,-0.694 					"/>
					<polygon clip-path="url(#SVGID_17_)" fill="#AD4C8A" points="27.834,-0.694 11.182,41.74 10.981,41.74 27.633,-0.694 					"/>
					<polygon clip-path="url(#SVGID_17_)" fill="#AD4C8A" points="28.034,-0.694 11.383,41.74 11.182,41.74 27.834,-0.694 					"/>
					<polygon clip-path="url(#SVGID_17_)" fill="#AD4C8B" points="28.235,-0.694 11.584,41.74 11.383,41.74 28.034,-0.694 					"/>
					<polygon clip-path="url(#SVGID_17_)" fill="#AC4C8B" points="28.436,-0.694 11.785,41.74 11.584,41.74 28.235,-0.694 					"/>
					<polygon clip-path="url(#SVGID_17_)" fill="#AC4C8B" points="28.637,-0.694 11.986,41.74 11.785,41.74 28.436,-0.694 					"/>
					<polygon clip-path="url(#SVGID_17_)" fill="#AC4C8C" points="28.838,-0.694 12.186,41.74 11.986,41.74 28.637,-0.694 					"/>
					<polygon clip-path="url(#SVGID_17_)" fill="#AB4C8C" points="29.039,-0.694 12.387,41.74 12.186,41.74 28.838,-0.694 					"/>
					<polygon clip-path="url(#SVGID_17_)" fill="#AB4C8D" points="29.239,-0.694 12.588,41.74 12.387,41.74 29.039,-0.694 					"/>
					<polygon clip-path="url(#SVGID_17_)" fill="#AB4C8D" points="29.44,-0.694 12.789,41.74 12.588,41.74 29.239,-0.694 					"/>
					<polygon clip-path="url(#SVGID_17_)" fill="#AA4C8D" points="29.641,-0.694 12.99,41.74 12.789,41.74 29.44,-0.694 					"/>
					<polygon clip-path="url(#SVGID_17_)" fill="#AA4C8E" points="29.842,-0.694 13.191,41.74 12.99,41.74 29.641,-0.694 					"/>
					<polygon clip-path="url(#SVGID_17_)" fill="#AA4C8E" points="30.043,-0.694 13.391,41.74 13.191,41.74 29.842,-0.694 					"/>
					<polygon clip-path="url(#SVGID_17_)" fill="#A94C8E" points="30.244,-0.694 13.592,41.74 13.391,41.74 30.043,-0.694 					"/>
					<polygon clip-path="url(#SVGID_17_)" fill="#A94C8F" points="30.444,-0.694 13.793,41.74 13.592,41.74 30.244,-0.694 					"/>
					<polygon clip-path="url(#SVGID_17_)" fill="#A84C8F" points="30.645,-0.694 13.994,41.74 13.793,41.74 30.444,-0.694 					"/>
					<polygon clip-path="url(#SVGID_17_)" fill="#A84C90" points="30.846,-0.694 14.195,41.74 13.994,41.74 30.645,-0.694 					"/>
					<polygon clip-path="url(#SVGID_17_)" fill="#A84C90" points="31.047,-0.694 14.396,41.74 14.195,41.74 30.846,-0.694 					"/>
					<polygon clip-path="url(#SVGID_17_)" fill="#A74D90" points="31.248,-0.694 14.596,41.74 14.396,41.74 31.047,-0.694 					"/>
					<polygon clip-path="url(#SVGID_17_)" fill="#A74D91" points="31.449,-0.694 14.797,41.74 14.596,41.74 31.248,-0.694 					"/>
					<polygon clip-path="url(#SVGID_17_)" fill="#A74D91" points="31.65,-0.694 14.998,41.74 14.797,41.74 31.449,-0.694 					"/>
					<polygon clip-path="url(#SVGID_17_)" fill="#A64D91" points="31.85,-0.694 15.199,41.74 14.998,41.74 31.65,-0.694 					"/>
					<polygon clip-path="url(#SVGID_17_)" fill="#A64D92" points="32.051,-0.694 15.4,41.74 15.199,41.74 31.85,-0.694 					"/>
					<polygon clip-path="url(#SVGID_17_)" fill="#A64D92" points="32.252,-0.694 15.601,41.74 15.4,41.74 32.051,-0.694 					"/>
					<polygon clip-path="url(#SVGID_17_)" fill="#A54D92" points="32.453,-0.694 15.802,41.74 15.601,41.74 32.252,-0.694 					"/>
					<polygon clip-path="url(#SVGID_17_)" fill="#A54D93" points="32.654,-0.694 16.002,41.74 15.802,41.74 32.453,-0.694 					"/>
					<polygon clip-path="url(#SVGID_17_)" fill="#A54D93" points="32.855,-0.694 16.203,41.74 16.002,41.74 32.654,-0.694 					"/>
					<polygon clip-path="url(#SVGID_17_)" fill="#A44D93" points="33.055,-0.694 16.404,41.74 16.203,41.74 32.855,-0.694 					"/>
					<polygon clip-path="url(#SVGID_17_)" fill="#A44D94" points="33.256,-0.694 16.605,41.74 16.404,41.74 33.055,-0.694 					"/>
					<polygon clip-path="url(#SVGID_17_)" fill="#A44D94" points="33.457,-0.694 16.806,41.74 16.605,41.74 33.256,-0.694 					"/>
					<polygon clip-path="url(#SVGID_17_)" fill="#A44D94" points="33.658,-0.694 17.007,41.74 16.806,41.74 33.457,-0.694 					"/>
					<polygon clip-path="url(#SVGID_17_)" fill="#A34D95" points="33.859,-0.694 17.207,41.74 17.007,41.74 33.658,-0.694 					"/>
					<polygon clip-path="url(#SVGID_17_)" fill="#A34D95" points="34.06,-0.694 17.408,41.74 17.207,41.74 33.859,-0.694 					"/>
					<polygon clip-path="url(#SVGID_17_)" fill="#A34D95" points="34.261,-0.694 17.609,41.74 17.408,41.74 34.06,-0.694 					"/>
					<polygon clip-path="url(#SVGID_17_)" fill="#A24D95" points="34.461,-0.694 17.81,41.74 17.609,41.74 34.261,-0.694 					"/>
					<polygon clip-path="url(#SVGID_17_)" fill="#A24D96" points="34.662,-0.694 18.011,41.74 17.81,41.74 34.461,-0.694 					"/>
					<polygon clip-path="url(#SVGID_17_)" fill="#A24D96" points="34.863,-0.694 18.212,41.74 18.011,41.74 34.662,-0.694 					"/>
					<polygon clip-path="url(#SVGID_17_)" fill="#A14D96" points="35.064,-0.694 18.413,41.74 18.212,41.74 34.863,-0.694 					"/>
					<polygon clip-path="url(#SVGID_17_)" fill="#A14D97" points="35.265,-0.694 18.613,41.74 18.413,41.74 35.064,-0.694 					"/>
					<polygon clip-path="url(#SVGID_17_)" fill="#A14D97" points="35.466,-0.694 18.814,41.74 18.613,41.74 35.265,-0.694 					"/>
					<polygon clip-path="url(#SVGID_17_)" fill="#A14D97" points="35.666,-0.694 19.015,41.74 18.814,41.74 35.466,-0.694 					"/>
					<polygon clip-path="url(#SVGID_17_)" fill="#A04D97" points="35.867,-0.694 19.216,41.74 19.015,41.74 35.666,-0.694 					"/>
					<polygon clip-path="url(#SVGID_17_)" fill="#A04D98" points="36.068,-0.694 19.417,41.74 19.216,41.74 35.867,-0.694 					"/>
					<polygon clip-path="url(#SVGID_17_)" fill="#A04D98" points="36.269,-0.694 19.618,41.74 19.417,41.74 36.068,-0.694 					"/>
					<polygon clip-path="url(#SVGID_17_)" fill="#A04D98" points="36.47,-0.694 19.818,41.74 19.618,41.74 36.269,-0.694 					"/>
					<polygon clip-path="url(#SVGID_17_)" fill="#9F4D98" points="36.671,-0.694 20.019,41.74 19.818,41.74 36.47,-0.694 					"/>
					<polygon clip-path="url(#SVGID_17_)" fill="#9F4D99" points="36.871,-0.694 20.22,41.74 20.019,41.74 36.671,-0.694 					"/>
					<polygon clip-path="url(#SVGID_17_)" fill="#9F4D99" points="37.072,-0.694 20.421,41.74 20.22,41.74 36.871,-0.694 					"/>
					<polygon clip-path="url(#SVGID_17_)" fill="#9F4D99" points="37.273,-0.694 20.622,41.74 20.421,41.74 37.072,-0.694 					"/>
					<polygon clip-path="url(#SVGID_17_)" fill="#9E4D99" points="37.474,-0.694 20.823,41.74 20.622,41.74 37.273,-0.694 					"/>
					<polygon clip-path="url(#SVGID_17_)" fill="#9E4D99" points="37.675,-0.694 21.023,41.74 20.823,41.74 37.474,-0.694 					"/>
					<polygon clip-path="url(#SVGID_17_)" fill="#9E4D99" points="37.712,-0.276 21.224,41.74 21.023,41.74 37.675,-0.694 
						37.712,-0.694 					"/>
					<polygon clip-path="url(#SVGID_17_)" fill="#9E4E99" points="37.712,0.236 21.425,41.74 21.224,41.74 37.712,-0.276 					"/>
					<polygon clip-path="url(#SVGID_17_)" fill="#9E4E9A" points="37.712,0.748 21.626,41.74 21.425,41.74 37.712,0.236 					"/>
					<polygon clip-path="url(#SVGID_17_)" fill="#9E4E9A" points="37.712,1.259 21.827,41.74 21.626,41.74 37.712,0.748 					"/>
					<polygon clip-path="url(#SVGID_17_)" fill="#9E4E9A" points="37.712,1.771 22.028,41.74 21.827,41.74 37.712,1.259 					"/>
					<polygon clip-path="url(#SVGID_17_)" fill="#9E4E9A" points="37.712,4.233 22.994,41.74 22.028,41.74 37.712,1.771 					"/>
					<polygon clip-path="url(#SVGID_17_)" fill="#9E4E9A" points="22.994,41.74 37.712,4.233 37.712,41.74 					"/>
				</g>
			</g>
		</g>
		<g>
			<path fill="#1A1E2D" d="M34.412,20.314c-0.46,7.178-6.93,12.606-14.451,12.124c-7.521-0.482-13.245-6.692-12.785-13.87
				c0.46-7.178,6.93-12.606,14.451-12.124C29.148,6.926,34.871,13.136,34.412,20.314"/>
		</g>
		<g>
			<defs>
				<path id="SVGID_18_" d="M20.251,25.108c0-1.466,1.275-2.655,2.849-2.655c1.574,0,2.849,1.189,2.849,2.655
					c0,1.466-1.275,2.655-2.849,2.655C21.526,27.763,20.251,26.574,20.251,25.108 M20.65,7.585c-3.756,0.224-6.656,2.14-7.349,2.744
					c-0.273,0.226-0.548,0.47-0.82,0.734c-0.011,0.01-0.021,0.021-0.032,0.031c-0.094,0.092-0.188,0.187-0.282,0.284
					c-0.044,0.046-0.088,0.093-0.132,0.139c-0.066,0.07-0.132,0.142-0.197,0.215c-0.048,0.053-0.095,0.107-0.142,0.161
					c-0.059,0.068-0.118,0.138-0.177,0.209c-0.045,0.054-0.09,0.11-0.135,0.165c-0.061,0.076-0.121,0.153-0.18,0.231
					c-0.039,0.051-0.077,0.102-0.116,0.153c-0.064,0.086-0.127,0.175-0.189,0.264c-0.031,0.044-0.062,0.089-0.093,0.134
					c-0.065,0.097-0.13,0.195-0.194,0.295c-0.025,0.04-0.051,0.079-0.075,0.119c-0.065,0.104-0.128,0.21-0.191,0.318
					c-0.022,0.038-0.044,0.075-0.065,0.113c-0.061,0.109-0.122,0.22-0.181,0.332c-0.02,0.038-0.04,0.076-0.059,0.115
					c-0.058,0.113-0.115,0.228-0.17,0.344c-0.018,0.037-0.035,0.075-0.052,0.112c-0.051,0.111-0.101,0.223-0.149,0.336
					c-0.004,0.01-0.007,0.019-0.011,0.028c-0.133,0.315-0.251,0.638-0.356,0.965c1.041-1.041,2.524-1.693,4.171-1.693
					c3.147,0,5.699,2.378,5.699,5.311c0,2.933-2.551,5.311-5.699,5.311c-1.667,0-3.167-0.667-4.209-1.731
					c1.445,5.002,5.766,9.128,11.259,9.64c0.008,0,0.015,0,0.023,0.001c7.57,0.054,13.724-5.649,13.724-12.69
					c0-2.733-0.927-5.264-2.504-7.335c4.071,5.441,0.1,11.965,0.1,11.965s1.753-3.437,0.475-7.442
					c-0.448-1.406-1.269-3.172-2.701-4.52c-2.146-2.02-4.2-2.81-6.118-3.184c-2.664-0.519-5.219-0.011-7.11,0.617
					c0,0,7.716-4.725,14.054,1.13c0.273,0.252,0.524,0.509,0.756,0.769c-2.359-2.703-5.895-4.711-9.869-4.711
					C21.119,7.564,20.885,7.571,20.65,7.585"/>
			</defs>
			<clipPath id="SVGID_19_">
				<use xlink:href="#SVGID_18_"  overflow="visible"/>
			</clipPath>
			<g clip-path="url(#SVGID_19_)">
				<g>
					<defs>
						<rect id="SVGID_20_" x="9.221" y="5.615" width="26.572" height="27.368"/>
					</defs>
					<clipPath id="SVGID_21_">
						<use xlink:href="#SVGID_20_"  overflow="visible"/>
					</clipPath>
					<g clip-path="url(#SVGID_21_)">
						<defs>
							<rect id="SVGID_22_" x="9.221" y="5.615" width="26.572" height="27.368"/>
						</defs>
						<clipPath id="SVGID_23_">
							<use xlink:href="#SVGID_22_"  overflow="visible"/>
						</clipPath>
						<g clip-path="url(#SVGID_23_)">
							
								<image overflow="visible" width="56" height="58" xlink:href="8BF2716E.jpg"  transform="matrix(0.48 0 0 0.48 9.2214 5.6152)">
							</image>
						</g>
					</g>
				</g>
			</g>
		</g>
		<g>
			<defs>
				<path id="SVGID_24_" d="M30.164,4.074c0.122,0.136,0.24,0.275,0.357,0.416c0.037,0.044,0.073,0.088,0.109,0.133
					c0.039,0.048,0.079,0.095,0.117,0.143c0.002,0.004,0.005,0.009,0.007,0.013c1.86,2.335,3.11,5.208,3.469,8.4
					c0.547,4.855-1.078,9.446-4.092,12.79c-2.549,2.829-6.094,4.765-10.163,5.215c-3.605,0.399-7.068-0.43-9.978-2.156
					c-1.661-1.162-3.124-2.605-4.316-4.27c-1.598-2.229-1.983-3.513-2.653-5.476c-0.055,1.024-0.027,2.067,0.092,3.121
					C4.262,32.598,13.384,39.958,23.488,38.84c8.886-0.983,16.172-8.172,16.323-16.861c-1.464,2.987-4.046,5.446-5.138,5.843
					c2.302-2.794,4.309-6.064,4.08-11.386C38.452,9.394,31.58,4.864,30.442,4.23L30.44,4.229l0,0.001
					C30.277,4.125,30.18,4.07,30.165,4.07C30.163,4.07,30.162,4.071,30.164,4.074"/>
			</defs>
			<clipPath id="SVGID_25_">
				<use xlink:href="#SVGID_24_"  overflow="visible"/>
			</clipPath>
			<g clip-path="url(#SVGID_25_)">
				<g>
					<defs>
						<rect id="SVGID_26_" x="2.968" y="4.07" width="36.844" height="35.887"/>
					</defs>
					<clipPath id="SVGID_27_">
						<use xlink:href="#SVGID_26_"  overflow="visible"/>
					</clipPath>
					<path clip-path="url(#SVGID_27_)" fill="#5A479A" d="M2.967,4.07v35.887V4.07z"/>
					<rect x="2.967" y="4.07" clip-path="url(#SVGID_27_)" fill="#5A479A" width="0.366" height="35.887"/>
					<rect x="3.333" y="4.07" clip-path="url(#SVGID_27_)" fill="#5A489B" width="0.366" height="35.887"/>
					<rect x="3.699" y="4.07" clip-path="url(#SVGID_27_)" fill="#5A499B" width="0.366" height="35.887"/>
					<rect x="4.065" y="4.07" clip-path="url(#SVGID_27_)" fill="#5A499B" width="0.366" height="35.887"/>
					<rect x="4.431" y="4.07" clip-path="url(#SVGID_27_)" fill="#594A9C" width="0.366" height="35.887"/>
					<rect x="4.797" y="4.07" clip-path="url(#SVGID_27_)" fill="#594B9C" width="0.366" height="35.887"/>
					<rect x="5.163" y="4.07" clip-path="url(#SVGID_27_)" fill="#594B9D" width="0.366" height="35.887"/>
					<rect x="5.529" y="4.07" clip-path="url(#SVGID_27_)" fill="#594C9D" width="0.366" height="35.887"/>
					<rect x="5.895" y="4.07" clip-path="url(#SVGID_27_)" fill="#584D9D" width="0.366" height="35.887"/>
					<rect x="6.261" y="4.07" clip-path="url(#SVGID_27_)" fill="#584D9E" width="0.366" height="35.887"/>
					<rect x="6.627" y="4.07" clip-path="url(#SVGID_27_)" fill="#584E9E" width="0.366" height="35.887"/>
					<rect x="6.993" y="4.07" clip-path="url(#SVGID_27_)" fill="#584F9F" width="0.366" height="35.887"/>
					<rect x="7.358" y="4.07" clip-path="url(#SVGID_27_)" fill="#574F9F" width="0.366" height="35.887"/>
					<rect x="7.724" y="4.07" clip-path="url(#SVGID_27_)" fill="#5750A0" width="0.366" height="35.887"/>
					<rect x="8.09" y="4.07" clip-path="url(#SVGID_27_)" fill="#5751A0" width="0.366" height="35.887"/>
					<rect x="8.456" y="4.07" clip-path="url(#SVGID_27_)" fill="#5751A0" width="0.366" height="35.887"/>
					<rect x="8.822" y="4.07" clip-path="url(#SVGID_27_)" fill="#5652A1" width="0.366" height="35.887"/>
					<rect x="9.188" y="4.07" clip-path="url(#SVGID_27_)" fill="#5653A1" width="0.366" height="35.887"/>
					<rect x="9.554" y="4.07" clip-path="url(#SVGID_27_)" fill="#5653A2" width="0.366" height="35.887"/>
					<rect x="9.92" y="4.07" clip-path="url(#SVGID_27_)" fill="#5654A2" width="0.366" height="35.887"/>
					<rect x="10.286" y="4.07" clip-path="url(#SVGID_27_)" fill="#5554A3" width="0.366" height="35.887"/>
					<rect x="10.652" y="4.07" clip-path="url(#SVGID_27_)" fill="#5555A3" width="0.366" height="35.887"/>
					<rect x="11.018" y="4.07" clip-path="url(#SVGID_27_)" fill="#5556A3" width="0.366" height="35.887"/>
					<rect x="11.384" y="4.07" clip-path="url(#SVGID_27_)" fill="#5556A4" width="0.366" height="35.887"/>
					<rect x="11.75" y="4.07" clip-path="url(#SVGID_27_)" fill="#5457A4" width="0.366" height="35.887"/>
					<rect x="12.115" y="4.07" clip-path="url(#SVGID_27_)" fill="#5458A5" width="0.366" height="35.887"/>
					<rect x="12.481" y="4.07" clip-path="url(#SVGID_27_)" fill="#5458A5" width="0.366" height="35.887"/>
					<rect x="12.847" y="4.07" clip-path="url(#SVGID_27_)" fill="#5359A6" width="0.366" height="35.887"/>
					<rect x="13.213" y="4.07" clip-path="url(#SVGID_27_)" fill="#535AA6" width="0.366" height="35.887"/>
					<rect x="13.579" y="4.07" clip-path="url(#SVGID_27_)" fill="#535AA6" width="0.366" height="35.887"/>
					<rect x="13.945" y="4.07" clip-path="url(#SVGID_27_)" fill="#525BA7" width="0.366" height="35.887"/>
					<rect x="14.311" y="4.07" clip-path="url(#SVGID_27_)" fill="#525CA7" width="0.366" height="35.887"/>
					<rect x="14.677" y="4.07" clip-path="url(#SVGID_27_)" fill="#525CA8" width="0.366" height="35.887"/>
					<rect x="15.043" y="4.07" clip-path="url(#SVGID_27_)" fill="#515DA8" width="0.366" height="35.887"/>
					<rect x="15.409" y="4.07" clip-path="url(#SVGID_27_)" fill="#515DA9" width="0.366" height="35.887"/>
					<rect x="15.775" y="4.07" clip-path="url(#SVGID_27_)" fill="#515EA9" width="0.366" height="35.887"/>
					<rect x="16.14" y="4.07" clip-path="url(#SVGID_27_)" fill="#505FAA" width="0.366" height="35.887"/>
					<rect x="16.506" y="4.07" clip-path="url(#SVGID_27_)" fill="#505FAA" width="0.366" height="35.887"/>
					<rect x="16.872" y="4.07" clip-path="url(#SVGID_27_)" fill="#5060AA" width="0.366" height="35.887"/>
					<rect x="17.238" y="4.07" clip-path="url(#SVGID_27_)" fill="#4F60AB" width="0.366" height="35.887"/>
					<rect x="17.604" y="4.07" clip-path="url(#SVGID_27_)" fill="#4F61AB" width="0.366" height="35.887"/>
					<rect x="17.97" y="4.07" clip-path="url(#SVGID_27_)" fill="#4F62AC" width="0.366" height="35.887"/>
					<rect x="18.336" y="4.07" clip-path="url(#SVGID_27_)" fill="#4E62AC" width="0.366" height="35.887"/>
					<rect x="18.702" y="4.07" clip-path="url(#SVGID_27_)" fill="#4E63AD" width="0.366" height="35.887"/>
					<rect x="19.068" y="4.07" clip-path="url(#SVGID_27_)" fill="#4E64AD" width="0.366" height="35.887"/>
					<rect x="19.434" y="4.07" clip-path="url(#SVGID_27_)" fill="#4D64AE" width="0.366" height="35.887"/>
					<rect x="19.8" y="4.07" clip-path="url(#SVGID_27_)" fill="#4D65AE" width="0.366" height="35.887"/>
					<rect x="20.166" y="4.07" clip-path="url(#SVGID_27_)" fill="#4D65AF" width="0.366" height="35.887"/>
					<rect x="20.531" y="4.07" clip-path="url(#SVGID_27_)" fill="#4C66AF" width="0.366" height="35.887"/>
					<rect x="20.897" y="4.07" clip-path="url(#SVGID_27_)" fill="#4C67AF" width="0.366" height="35.887"/>
					<rect x="21.263" y="4.07" clip-path="url(#SVGID_27_)" fill="#4B67B0" width="0.366" height="35.887"/>
					<rect x="21.629" y="4.07" clip-path="url(#SVGID_27_)" fill="#4B68B0" width="0.366" height="35.887"/>
					<rect x="21.995" y="4.07" clip-path="url(#SVGID_27_)" fill="#4B68B1" width="0.366" height="35.887"/>
					<rect x="22.361" y="4.07" clip-path="url(#SVGID_27_)" fill="#4A69B1" width="0.366" height="35.887"/>
					<rect x="22.727" y="4.07" clip-path="url(#SVGID_27_)" fill="#4A6AB2" width="0.366" height="35.887"/>
					<rect x="23.093" y="4.07" clip-path="url(#SVGID_27_)" fill="#496AB2" width="0.366" height="35.887"/>
					<rect x="23.459" y="4.07" clip-path="url(#SVGID_27_)" fill="#496BB3" width="0.366" height="35.887"/>
					<rect x="23.825" y="4.07" clip-path="url(#SVGID_27_)" fill="#486BB3" width="0.366" height="35.887"/>
					<rect x="24.191" y="4.07" clip-path="url(#SVGID_27_)" fill="#486CB4" width="0.366" height="35.887"/>
					<rect x="24.557" y="4.07" clip-path="url(#SVGID_27_)" fill="#486DB4" width="0.366" height="35.887"/>
					<rect x="24.922" y="4.07" clip-path="url(#SVGID_27_)" fill="#476DB4" width="0.366" height="35.887"/>
					<rect x="25.288" y="4.07" clip-path="url(#SVGID_27_)" fill="#476EB5" width="0.366" height="35.887"/>
					<rect x="25.654" y="4.07" clip-path="url(#SVGID_27_)" fill="#466EB5" width="0.366" height="35.887"/>
					<rect x="26.02" y="4.07" clip-path="url(#SVGID_27_)" fill="#466FB6" width="0.366" height="35.887"/>
					<rect x="26.386" y="4.07" clip-path="url(#SVGID_27_)" fill="#4570B6" width="0.366" height="35.887"/>
					<rect x="26.752" y="4.07" clip-path="url(#SVGID_27_)" fill="#4570B7" width="0.366" height="35.887"/>
					<rect x="27.118" y="4.07" clip-path="url(#SVGID_27_)" fill="#4471B7" width="0.366" height="35.887"/>
					<rect x="27.484" y="4.07" clip-path="url(#SVGID_27_)" fill="#4471B8" width="0.366" height="35.887"/>
					<rect x="27.85" y="4.07" clip-path="url(#SVGID_27_)" fill="#4372B8" width="0.366" height="35.887"/>
					<rect x="28.216" y="4.07" clip-path="url(#SVGID_27_)" fill="#4372B9" width="0.366" height="35.887"/>
					<rect x="28.582" y="4.07" clip-path="url(#SVGID_27_)" fill="#4273B9" width="0.366" height="35.887"/>
					<rect x="28.948" y="4.07" clip-path="url(#SVGID_27_)" fill="#4274B9" width="0.366" height="35.887"/>
					<rect x="29.313" y="4.07" clip-path="url(#SVGID_27_)" fill="#4174BA" width="0.366" height="35.887"/>
					<rect x="29.679" y="4.07" clip-path="url(#SVGID_27_)" fill="#4174BA" width="0.208" height="35.887"/>
					<rect x="29.887" y="4.07" clip-path="url(#SVGID_27_)" fill="#4175BA" width="0.208" height="35.887"/>
					<rect x="30.095" y="4.07" clip-path="url(#SVGID_27_)" fill="#4075BB" width="0.208" height="35.887"/>
					<rect x="30.303" y="4.07" clip-path="url(#SVGID_27_)" fill="#4076BB" width="0.208" height="35.887"/>
					<rect x="30.511" y="4.07" clip-path="url(#SVGID_27_)" fill="#3F76BC" width="0.208" height="35.887"/>
					<rect x="30.719" y="4.07" clip-path="url(#SVGID_27_)" fill="#3F77BC" width="0.208" height="35.887"/>
					<rect x="30.927" y="4.07" clip-path="url(#SVGID_27_)" fill="#3F78BD" width="0.208" height="35.887"/>
					<rect x="31.135" y="4.07" clip-path="url(#SVGID_27_)" fill="#3E78BD" width="0.208" height="35.887"/>
					<rect x="31.344" y="4.07" clip-path="url(#SVGID_27_)" fill="#3E79BE" width="0.208" height="35.887"/>
					<rect x="31.552" y="4.07" clip-path="url(#SVGID_27_)" fill="#3D79BE" width="0.208" height="35.887"/>
					<rect x="31.76" y="4.07" clip-path="url(#SVGID_27_)" fill="#3D7ABE" width="0.208" height="35.887"/>
					<rect x="31.968" y="4.07" clip-path="url(#SVGID_27_)" fill="#3C7ABF" width="0.208" height="35.887"/>
					<rect x="32.176" y="4.07" clip-path="url(#SVGID_27_)" fill="#3B7BBF" width="0.208" height="35.887"/>
					<rect x="32.384" y="4.07" clip-path="url(#SVGID_27_)" fill="#3B7CC0" width="0.208" height="35.887"/>
					<rect x="32.592" y="4.07" clip-path="url(#SVGID_27_)" fill="#3A7CC0" width="0.208" height="35.887"/>
					<rect x="32.8" y="4.07" clip-path="url(#SVGID_27_)" fill="#3A7DC1" width="0.208" height="35.887"/>
					<rect x="33.008" y="4.07" clip-path="url(#SVGID_27_)" fill="#397DC1" width="0.208" height="35.887"/>
					<rect x="33.216" y="4.07" clip-path="url(#SVGID_27_)" fill="#397EC2" width="0.208" height="35.887"/>
					<rect x="33.424" y="4.07" clip-path="url(#SVGID_27_)" fill="#387EC2" width="0.208" height="35.887"/>
					<rect x="33.632" y="4.07" clip-path="url(#SVGID_27_)" fill="#377FC2" width="0.208" height="35.887"/>
					<rect x="33.84" y="4.07" clip-path="url(#SVGID_27_)" fill="#3780C3" width="0.208" height="35.887"/>
					<rect x="34.048" y="4.07" clip-path="url(#SVGID_27_)" fill="#3680C3" width="0.208" height="35.887"/>
					<rect x="34.256" y="4.07" clip-path="url(#SVGID_27_)" fill="#3681C4" width="0.208" height="35.887"/>
					<rect x="34.464" y="4.07" clip-path="url(#SVGID_27_)" fill="#3581C4" width="0.208" height="35.887"/>
					<rect x="34.672" y="4.07" clip-path="url(#SVGID_27_)" fill="#3482C5" width="0.208" height="35.887"/>
					<rect x="34.88" y="4.07" clip-path="url(#SVGID_27_)" fill="#3482C5" width="0.208" height="35.887"/>
					<rect x="35.088" y="4.07" clip-path="url(#SVGID_27_)" fill="#3383C6" width="0.208" height="35.887"/>
					<rect x="35.296" y="4.07" clip-path="url(#SVGID_27_)" fill="#3283C6" width="0.208" height="35.887"/>
					<rect x="35.504" y="4.07" clip-path="url(#SVGID_27_)" fill="#3284C7" width="0.208" height="35.887"/>
					<rect x="35.712" y="4.07" clip-path="url(#SVGID_27_)" fill="#3185C7" width="0.208" height="35.887"/>
					<rect x="35.92" y="4.07" clip-path="url(#SVGID_27_)" fill="#3085C7" width="0.208" height="35.887"/>
					<rect x="36.128" y="4.07" clip-path="url(#SVGID_27_)" fill="#2F86C8" width="0.208" height="35.887"/>
					<rect x="36.336" y="4.07" clip-path="url(#SVGID_27_)" fill="#2E86C8" width="0.208" height="35.887"/>
					<rect x="36.544" y="4.07" clip-path="url(#SVGID_27_)" fill="#2E87C9" width="0.208" height="35.887"/>
					<rect x="36.752" y="4.07" clip-path="url(#SVGID_27_)" fill="#2D87C9" width="0.208" height="35.887"/>
					<rect x="36.96" y="4.07" clip-path="url(#SVGID_27_)" fill="#2C88CA" width="0.208" height="35.887"/>
					<rect x="37.168" y="4.07" clip-path="url(#SVGID_27_)" fill="#2B88CA" width="0.208" height="35.887"/>
					<rect x="37.376" y="4.07" clip-path="url(#SVGID_27_)" fill="#2A89CB" width="0.208" height="35.887"/>
					<rect x="37.584" y="4.07" clip-path="url(#SVGID_27_)" fill="#298ACB" width="0.208" height="35.887"/>
					<rect x="37.792" y="4.07" clip-path="url(#SVGID_27_)" fill="#288ACC" width="0.208" height="35.887"/>
					<rect x="38" y="4.07" clip-path="url(#SVGID_27_)" fill="#278BCC" width="0.208" height="35.887"/>
					<rect x="38.208" y="4.07" clip-path="url(#SVGID_27_)" fill="#268BCC" width="0.208" height="35.887"/>
					<rect x="38.416" y="4.07" clip-path="url(#SVGID_27_)" fill="#258CCD" width="0.208" height="35.887"/>
					<rect x="38.624" y="4.07" clip-path="url(#SVGID_27_)" fill="#248CCD" width="0.208" height="35.887"/>
					<rect x="38.832" y="4.07" clip-path="url(#SVGID_27_)" fill="#238DCE" width="0.208" height="35.887"/>
					<rect x="39.04" y="4.07" clip-path="url(#SVGID_27_)" fill="#228DCE" width="0.208" height="35.887"/>
					<rect x="39.248" y="4.07" clip-path="url(#SVGID_27_)" fill="#218ECF" width="0.208" height="35.887"/>
					<rect x="39.456" y="4.07" clip-path="url(#SVGID_27_)" fill="#208ECF" width="0.208" height="35.887"/>
					<rect x="39.664" y="4.07" clip-path="url(#SVGID_27_)" fill="#208ECF" width="0.148" height="35.887"/>
					<path clip-path="url(#SVGID_27_)" fill="#208ECF" d="M39.812,39.958V4.07V39.958z"/>
				</g>
			</g>
		</g>
		<g>
			<path fill-rule="evenodd" clip-rule="evenodd" fill="#50C0DE" d="M30.164,4.074c3.118,1.715,6.625,4.571,7.23,9.815
				c0.596,5.167-5.264,17.123-15.325,18.236c-4.448,0.492-8.698-0.72-12.109-3.119c2.575,1.814,6.939,2.517,10.009,2.178
				c4.069-0.45,7.614-2.386,10.163-5.215c3.015-3.344,4.639-7.934,4.092-12.789C33.828,9.659,32.351,6.524,30.164,4.074"/>
		</g>
	</g>
	<g>
		<g>
			<path fill="#FFFFFF" d="M8.859,47.73c0-0.707-0.429-1.102-1.078-1.102c-0.661,0-1.079,0.394-1.079,1.102v3.491H4.43V47.73
				c0-0.707-0.417-1.102-1.067-1.102c-0.673,0-1.09,0.394-1.09,1.102v3.491H0v-6.506h2.273v0.858
				c0.371-0.522,1.009-0.916,1.89-0.916c0.974,0,1.739,0.44,2.168,1.194c0.441-0.661,1.206-1.194,2.169-1.194
				c1.647,0,2.633,1.067,2.633,2.771v3.792H8.859V47.73z"/>
		</g>
		<g>
			<path fill="#FFFFFF" d="M15.173,51.302c-1.925,0-3.305-1.264-3.305-3.34c0-2.064,1.357-3.328,3.305-3.328
				c1.925,0,3.282,1.241,3.282,3.259c0,0.174-0.012,0.36-0.035,0.533h-4.303c0.047,0.754,0.452,1.055,0.963,1.055
				c0.441,0,0.684-0.244,0.811-0.51h2.424C18.014,50.305,16.797,51.302,15.173,51.302 M14.129,47.324h2.006
				c0-0.58-0.452-0.893-0.974-0.893C14.617,46.431,14.234,46.733,14.129,47.324"/>
		</g>
		<g>
			<rect x="19.191" y="42.639" fill="#FFFFFF" width="2.273" height="8.581"/>
		</g>
		<g>
			<path fill="#FFFFFF" d="M25.504,51.302c-1.925,0-3.305-1.264-3.305-3.34c0-2.064,1.357-3.328,3.305-3.328
				c1.925,0,3.282,1.241,3.282,3.259c0,0.174-0.011,0.36-0.035,0.533h-4.302c0.046,0.754,0.452,1.055,0.963,1.055
				c0.44,0,0.684-0.244,0.812-0.51h2.424C28.345,50.305,27.128,51.302,25.504,51.302 M24.46,47.324h2.006
				c0-0.58-0.452-0.893-0.974-0.893C24.948,46.431,24.565,46.733,24.46,47.324"/>
		</g>
		<g>
			<path fill="#FFFFFF" d="M32.167,44.634c0.928,0,1.577,0.406,1.913,0.986v-0.905h2.273v6.506H34.08v-0.904
				c-0.336,0.58-0.997,0.986-1.913,0.986c-1.542,0-2.771-1.264-2.771-3.34C29.396,45.886,30.625,44.634,32.167,44.634
				 M32.898,46.617c-0.65,0-1.183,0.464-1.183,1.345c0,0.87,0.533,1.357,1.183,1.357c0.638,0,1.183-0.476,1.183-1.357
				C34.08,47.092,33.535,46.617,32.898,46.617"/>
		</g>
		<g>
			<path fill="#FFFFFF" d="M41.264,44.634c1.554,0,2.772,1.253,2.772,3.328c0,2.076-1.218,3.34-2.772,3.34
				c-0.916,0-1.554-0.417-1.902-0.986v4.012h-2.273v-9.614h2.273v0.905C39.698,45.04,40.359,44.634,41.264,44.634 M40.545,46.617
				c-0.638,0-1.183,0.475-1.183,1.345c0,0.881,0.545,1.357,1.183,1.357c0.638,0,1.182-0.487,1.182-1.357
				C41.727,47.081,41.183,46.617,40.545,46.617"/>
		</g>
	</g>
</g>
</svg>
