<?xml version="1.0" encoding="utf-8"?>
<!-- Generator: Adobe Illustrator 17.0.0, SVG Export Plug-In . SVG Version: 6.00 Build 0)  -->
<!DOCTYPE svg PUBLIC "-//W3C//DTD SVG 1.1//EN" "http://www.w3.org/Graphics/SVG/1.1/DTD/svg11.dtd">
<svg version="1.1" id="圖層_1" xmlns="http://www.w3.org/2000/svg" xmlns:xlink="http://www.w3.org/1999/xlink" x="0px" y="0px"
	 width="1920.517px" height="232.061px" viewBox="0 0 1920.517 232.061" enable-background="new 0 0 1920.517 232.061"
	 xml:space="preserve">
<g>
	<defs>
		<rect id="SVGID_1_" x="0" y="0" width="1920.517" height="232.061"/>
	</defs>
	<clipPath id="SVGID_2_">
		<use xlink:href="#SVGID_1_"  overflow="visible"/>
	</clipPath>
	<g clip-path="url(#SVGID_2_)">
		<g>
			<path fill="none" stroke="#FFFFFF" stroke-miterlimit="10" d="M139.891,53.056v37.679H94.053v132.235H47.015V90.735H1.657V53.056
				H139.891z"/>
			<path fill="none" stroke="#FFFFFF" stroke-miterlimit="10" d="M204.927,90.735v28.079h54.958v35.759h-54.958v30.719h62.158
				v37.679H157.649V53.056h109.436v37.679H204.927z"/>
			<path fill="none" stroke="#FFFFFF" stroke-miterlimit="10" d="M398.117,194.651h-60.238l-9.359,28.319h-49.678l62.158-169.193
				h54.478l61.917,169.193h-49.918L398.117,194.651z M386.357,159.132l-18.239-55.198l-18.479,55.198H386.357z"/>
			<path fill="none" stroke="#FFFFFF" stroke-miterlimit="10" d="M670.986,53.776v169.193h-46.798v-95.997l-31.439,95.997h-40.559
				l-31.438-95.997v95.997h-47.278V53.776h57.838l41.758,109.916l40.559-109.916H670.986z"/>
			<path fill="none" stroke="#FFFFFF" stroke-miterlimit="10" d="M943.373,53.776v169.193h-46.799v-95.997l-31.438,95.997h-40.559
				l-31.439-95.997v95.997H745.86V53.776h57.837l41.76,109.916l40.559-109.916H943.373z"/>
			<path fill="none" stroke="#FFFFFF" stroke-miterlimit="10" d="M1018.968,90.735v28.079h54.958v35.759h-54.958v30.719h62.158
				v37.679H971.691V53.056h109.436v37.679H1018.968z"/>
			<path fill="none" stroke="#FFFFFF" stroke-miterlimit="10" d="M1302.395,53.776v169.193h-46.798v-95.997l-31.438,95.997H1183.6
				l-31.439-95.997v95.997h-47.277V53.776h57.837l41.759,109.916l40.559-109.916H1302.395z"/>
			<path fill="none" stroke="#FFFFFF" stroke-miterlimit="10" d="M1462.586,150.492c5.839,7.522,8.76,16.241,8.76,26.159
				c0,14.722-4.882,26.122-14.639,34.199c-9.762,8.081-23.76,12.12-41.999,12.12h-83.996V53.056h82.076
				c17.118,0,30.517,3.761,40.198,11.28c9.679,7.522,14.52,18.4,14.52,32.639c0,10.08-2.64,18.521-7.919,25.319
				c-5.28,6.802-12.24,11.242-20.88,13.32C1448.787,138.012,1456.744,142.974,1462.586,150.492z M1377.989,120.973h23.76
				c11.838,0,17.759-4.958,17.759-14.879c0-10.237-6-15.359-17.999-15.359h-23.52V120.973z M1423.108,169.691
				c0-10.56-6.16-15.839-18.479-15.839h-26.64v31.198h26.64C1416.947,185.05,1423.108,179.932,1423.108,169.691z"/>
			<path fill="none" stroke="#FFFFFF" stroke-miterlimit="10" d="M1540.7,90.735v28.079h54.958v35.759H1540.7v30.719h62.158v37.679
				h-109.436V53.056h109.436v37.679H1540.7z"/>
			<path fill="none" stroke="#FFFFFF" stroke-miterlimit="10" d="M1713.013,222.969l-34.319-62.638h-4.8v62.638h-47.277V53.056
				h74.637c13.597,0,25.157,2.362,34.679,7.08c9.517,4.721,16.68,11.242,21.479,19.56c4.8,8.321,7.199,17.681,7.199,28.079
				c0,11.842-3.281,22.121-9.84,30.839c-6.562,8.722-16,14.842-28.318,18.359l38.639,65.998H1713.013z M1673.894,128.653h23.279
				c13.117,0,19.68-5.917,19.68-17.759c0-5.599-1.643-9.997-4.92-13.2c-3.281-3.198-8.201-4.8-14.76-4.8h-23.279V128.653z"/>
			<path fill="none" stroke="#FFFFFF" stroke-miterlimit="10" d="M1905.004,199.69c-4.8,7.68-11.842,13.762-21.119,18.239
				c-9.28,4.481-20.399,6.72-33.358,6.72c-19.68,0-35.879-4.717-48.599-14.159c-12.719-9.438-19.642-22.878-20.759-40.318h50.158
				c0.479,5.921,2.317,10.319,5.52,13.199c3.199,2.88,7.117,4.32,11.76,4.32c4.158,0,7.398-1.039,9.72-3.12
				c2.317-2.078,3.479-5.04,3.479-8.88c0-5.119-2.321-9.078-6.96-11.879c-4.642-2.797-11.999-5.88-22.079-9.24
				c-10.721-3.679-19.559-7.278-26.519-10.8c-6.96-3.517-12.96-8.797-17.999-15.839c-5.04-7.039-7.56-16.079-7.56-27.119
				c0-10.56,2.718-19.638,8.159-27.239c5.438-7.597,12.877-13.357,22.319-17.279c9.438-3.918,20.159-5.88,32.158-5.88
				c19.519,0,35.076,4.602,46.679,13.8c11.599,9.202,17.958,22.12,19.079,38.758h-50.638c-0.642-5.28-2.28-9.198-4.92-11.759
				c-2.64-2.558-6.12-3.84-10.439-3.84c-3.683,0-6.563,0.96-8.64,2.88c-2.081,1.92-3.12,4.8-3.12,8.64c0,4.8,2.28,8.561,6.84,11.279
				c4.56,2.723,11.718,5.76,21.479,9.12c10.718,3.84,19.597,7.601,26.64,11.28c7.038,3.682,13.117,9.041,18.239,16.079
				c5.118,7.042,7.68,16.162,7.68,27.359C1912.204,183.453,1909.804,192.01,1905.004,199.69z"/>
		</g>
	</g>
</g>
</svg>
