<?xml version="1.0" encoding="utf-8"?>
<!-- Generator: Adobe Illustrator 17.0.0, SVG Export Plug-In . SVG Version: 6.00 Build 0)  -->
<!DOCTYPE svg PUBLIC "-//W3C//DTD SVG 1.1//EN" "http://www.w3.org/Graphics/SVG/1.1/DTD/svg11.dtd">
<svg version="1.1" id="圖層_1" xmlns="http://www.w3.org/2000/svg" xmlns:xlink="http://www.w3.org/1999/xlink" x="0px" y="0px"
	 width="771.084px" height="173.594px" viewBox="0 0 771.084 173.594" enable-background="new 0 0 771.084 173.594"
	 xml:space="preserve">
<g>
	<polygon fill="none" stroke="#FFFFFF" stroke-width="2" stroke-miterlimit="10" points="51.557,1 89.955,123.396 128.114,1 
		178.272,1 120.194,170.914 59.476,170.914 1.399,1 	"/>
	<path fill="none" stroke="#FFFFFF" stroke-width="2" stroke-miterlimit="10" d="M299.466,142.595h-60.238l-9.359,28.318H180.19
		L242.348,1.72h54.478l61.918,169.193h-49.918L299.466,142.595z M287.706,107.076l-18.239-55.198l-18.479,55.198H287.706z"/>
	<polygon fill="none" stroke="#FFFFFF" stroke-width="2" stroke-miterlimit="10" points="419.941,135.155 472.979,135.155 
		472.979,170.914 372.663,170.914 372.663,1 419.941,1 	"/>
	<path fill="none" stroke="#FFFFFF" stroke-width="2" stroke-miterlimit="10" d="M536.813,1v96.957
		c0,9.599,2.119,17.001,6.36,22.199c4.237,5.2,10.681,7.799,19.318,7.799c8.641,0,15.158-2.64,19.559-7.919
		c4.399-5.28,6.601-12.638,6.601-22.079V1h47.037v96.957c0,16-3.24,29.601-9.719,40.798c-6.48,11.201-15.322,19.641-26.519,25.319
		c-11.201,5.681-23.843,8.52-37.919,8.52c-14.08,0-26.519-2.798-37.319-8.4c-10.799-5.599-19.24-13.998-25.318-25.199
		c-6.082-11.197-9.119-24.877-9.119-41.038V1H536.813z"/>
	<polygon fill="none" stroke="#FFFFFF" stroke-width="2" stroke-miterlimit="10" points="707.926,38.679 707.926,66.758 
		762.884,66.758 762.884,102.516 707.926,102.516 707.926,133.235 770.084,133.235 770.084,170.914 660.648,170.914 660.648,1 
		770.084,1 770.084,38.679 	"/>
</g>
</svg>
