<?xml version="1.0" encoding="utf-8"?>
<!-- Generator: Adobe Illustrator 17.0.0, SVG Export Plug-In . SVG Version: 6.00 Build 0)  -->
<!DOCTYPE svg PUBLIC "-//W3C//DTD SVG 1.1//EN" "http://www.w3.org/Graphics/SVG/1.1/DTD/svg11.dtd">
<svg version="1.1" id="圖層_1" xmlns="http://www.w3.org/2000/svg" xmlns:xlink="http://www.w3.org/1999/xlink" x="0px" y="0px"
	 width="833.721px" height="176.232px" viewBox="0 0 833.721 176.232" enable-background="new 0 0 833.721 176.232"
	 xml:space="preserve">
<g>
	<polygon fill="none" stroke="#FFFFFF" stroke-width="2" stroke-miterlimit="10" points="51.557,3.639 89.955,126.035 
		128.114,3.639 178.272,3.639 120.194,173.552 59.476,173.552 1.399,3.639 	"/>
	
		<rect x="192.191" y="3.639" fill="none" stroke="#FFFFFF" stroke-width="2" stroke-miterlimit="10" width="47.278" height="169.913"/>
	<path fill="none" stroke="#FFFFFF" stroke-width="2" stroke-miterlimit="10" d="M385.143,150.273
		c-4.8,7.681-11.842,13.764-21.12,18.239c-9.28,4.482-20.399,6.721-33.358,6.721c-19.679,0-35.879-4.718-48.598-14.159
		c-12.72-9.439-19.642-22.878-20.759-40.319h50.158c0.479,5.921,2.317,10.32,5.518,13.2c3.199,2.88,7.117,4.32,11.76,4.32
		c4.159,0,7.398-1.039,9.72-3.12c2.317-2.077,3.479-5.04,3.479-8.88c0-5.118-2.321-9.078-6.959-11.88
		c-4.643-2.798-12-5.88-22.079-9.239c-10.721-3.68-19.56-7.278-26.519-10.8c-6.96-3.518-12.96-8.798-18-15.84
		c-5.039-7.038-7.559-16.079-7.559-27.119c0-10.56,2.718-19.638,8.159-27.238c5.439-7.598,12.877-13.357,22.32-17.28
		C300.745,2.961,311.466,1,323.465,1c19.518,0,35.076,4.6,46.678,13.798c11.599,9.203,17.958,22.121,19.08,38.759h-50.639
		c-0.641-5.279-2.279-9.197-4.919-11.76c-2.64-2.557-6.12-3.839-10.44-3.839c-3.682,0-6.562,0.96-8.64,2.879
		c-2.081,1.92-3.119,4.8-3.119,8.64c0,4.801,2.28,8.563,6.84,11.279c4.559,2.723,11.718,5.76,21.479,9.121
		c10.716,3.839,19.596,7.6,26.638,11.279c7.039,3.682,13.117,9.041,18.24,16.08c5.118,7.042,7.68,16.16,7.68,27.358
		C392.343,134.037,389.943,142.593,385.143,150.273z"/>
	
		<rect x="412.982" y="3.639" fill="none" stroke="#FFFFFF" stroke-width="2" stroke-miterlimit="10" width="47.277" height="169.913"/>
	<path fill="none" stroke="#FFFFFF" stroke-width="2" stroke-miterlimit="10" d="M612.054,12.159
		c13.198,7.439,23.598,17.801,31.198,31.079c7.597,13.28,11.399,28.239,11.399,44.878c0,16.641-3.84,31.599-11.52,44.878
		c-7.68,13.282-18.119,23.639-31.318,31.079c-13.199,7.439-27.719,11.158-43.559,11.158c-15.84,0-30.4-3.72-43.678-11.158
		c-13.283-7.44-23.76-17.797-31.439-31.079c-7.68-13.279-11.52-28.237-11.52-44.878c0-16.639,3.84-31.598,11.52-44.878
		c7.68-13.278,18.156-23.641,31.439-31.079C537.855,4.719,552.415,1,568.255,1C584.252,1,598.853,4.719,612.054,12.159z
		 M539.937,56.316c-6.881,7.764-10.32,18.359-10.32,31.8c0,13.121,3.439,23.601,10.32,31.438c6.877,7.841,16.318,11.76,28.318,11.76
		c11.838,0,21.198-3.919,28.079-11.76c6.877-7.837,10.319-18.316,10.319-31.438c0-13.44-3.401-24.036-10.199-31.8
		c-6.803-7.759-16.2-11.64-28.199-11.64C556.255,44.677,546.814,48.558,539.937,56.316z"/>
	<polygon fill="none" stroke="#FFFFFF" stroke-width="2" stroke-miterlimit="10" points="832.721,173.552 785.443,173.552 
		723.046,78.756 723.046,173.552 675.767,173.552 675.767,3.879 723.046,3.879 785.443,99.875 785.443,3.879 832.721,3.879 	"/>
</g>
</svg>
