<?xml version="1.0" encoding="utf-8"?>
<!-- Generator: Adobe Illustrator 17.0.0, SVG Export Plug-In . SVG Version: 6.00 Build 0)  -->
<!DOCTYPE svg PUBLIC "-//W3C//DTD SVG 1.1//EN" "http://www.w3.org/Graphics/SVG/1.1/DTD/svg11.dtd">
<svg version="1.1" id="圖層_1" xmlns="http://www.w3.org/2000/svg" xmlns:xlink="http://www.w3.org/1999/xlink" x="0px" y="0px"
	 width="1595.094px" height="181.512px" viewBox="-0.598 -331.921 1595.094 181.512"
	 enable-background="new -0.598 -331.921 1595.094 181.512" xml:space="preserve">
<g>
	<g>
		<path fill="none" stroke="#FFFFFF" stroke-width="2" stroke-miterlimit="10" d="M251.384-328.201l-40.798,175.06h-60.332
			l-24.231-108.053l-24.231,108.053H41.46L0.662-328.201h52.419l19.287,119.179l26.951-119.179h53.161l27.198,119.179
			l19.287-119.179C198.965-328.201,251.384-328.201,251.384-328.201z"/>
		<path fill="none" stroke="#FFFFFF" stroke-width="2" stroke-miterlimit="10" d="M423.969-328.201v175.06h-48.463v-70.716h-59.342
			v70.716h-48.71v-175.06h48.71v65.523h59.342v-65.523H423.969z"/>
		<path fill="none" stroke="#FFFFFF" stroke-width="2" stroke-miterlimit="10" d="M556.497-182.318h-62.063l-9.643,29.177h-51.183
			l64.04-174.318h56.128l63.793,174.318h-51.43L556.497-182.318z M544.382-218.912l-18.792-56.87l-19.039,56.87H544.382z"/>
		<path fill="none" stroke="#FFFFFF" stroke-width="2" stroke-miterlimit="10" d="M758.756-328.201v38.819h-47.227v136.24h-48.463
			v-136.239h-46.732v-38.82H758.756z"/>
		<path fill="none" stroke="#FFFFFF" stroke-width="2" stroke-miterlimit="10" d="M1055.712-328.201l-40.798,175.06h-60.331
			l-24.232-108.053L906.12-153.141h-60.332l-40.798-175.06h52.419l19.287,119.179l26.951-119.179h53.161l27.199,119.179
			l19.285-119.179C1003.292-328.201,1055.712-328.201,1055.712-328.201z"/>
		<path fill="none" stroke="#FFFFFF" stroke-width="2" stroke-miterlimit="10" d="M1120.492-289.381v28.93h56.622v36.842h-56.622
			v31.649h64.04v38.819h-112.751v-175.06h112.751v38.819h-64.04V-289.381z"/>
		<path fill="none" stroke="#FFFFFF" stroke-width="2" stroke-miterlimit="10" d="M1392.227-195.794
			c-7.418,13.271-17.969,23.698-31.649,31.278c-13.685,7.584-29.756,11.374-48.216,11.374h-69.728v-175.059h69.728
			c18.46,0,34.574,3.67,48.34,11.003c13.762,7.336,24.313,17.598,31.649,30.784c7.332,13.19,11.003,28.273,11.003,45.249
			C1403.354-224.186,1399.645-209.06,1392.227-195.794z M1341.786-208.28c8.241-7.746,12.363-18.707,12.363-32.886
			c0-14.009-4.122-24.931-12.363-32.762c-8.244-7.827-19.533-11.745-33.874-11.745h-16.566v89.014h16.566
			C1322.252-196.659,1333.541-200.53,1341.786-208.28z"/>
		<path fill="none" stroke="#FFFFFF" stroke-width="2" stroke-miterlimit="10" d="M1549.607-319.423
			c13.599,7.665,24.313,18.34,32.144,32.021c7.827,13.684,11.745,29.095,11.745,46.237c0,17.146-3.956,32.558-11.869,46.238
			c-7.912,13.684-18.668,24.355-32.267,32.02c-13.6,7.665-28.559,11.498-44.878,11.498s-31.321-3.833-45.002-11.498
			c-13.684-7.665-24.479-18.336-32.391-32.02c-7.912-13.68-11.868-29.092-11.868-46.238c0-17.142,3.956-32.553,11.868-46.237
			c7.912-13.681,18.707-24.355,32.391-32.021c13.681-7.665,28.683-11.498,45.002-11.498
			C1520.963-330.921,1536.007-327.088,1549.607-319.423z M1475.305-273.927c-7.09,7.997-10.633,18.915-10.633,32.762
			c0,13.519,3.543,24.316,10.633,32.391c7.085,8.079,16.813,12.116,29.177,12.116c12.196,0,21.84-4.037,28.93-12.116
			c7.085-8.075,10.632-18.873,10.632-32.391c0-13.847-3.504-24.765-10.509-32.762c-7.008-7.994-16.69-11.992-29.053-11.992
			C1492.119-285.92,1482.39-281.921,1475.305-273.927z"/>
	</g>
</g>
</svg>
